<svg width="232" height="232" viewBox="0 0 232 232" fill="none" xmlns="http://www.w3.org/2000/svg">
<line x1="88.978" y1="49.5" x2="136.934" y2="49.5" stroke="#AA99EC" stroke-dasharray="2 2"/>
<line x1="88.978" y1="181.5" x2="142.851" y2="181.5" stroke="#AA99EC" stroke-dasharray="2 2"/>
<line x1="50.5" y1="92.1943" x2="50.5" y2="138.244" stroke="#AA99EC" stroke-dasharray="2 2"/>
<line x1="182.5" y1="98.4382" x2="182.5" y2="140.794" stroke="#AA99EC" stroke-dasharray="2 2"/>
<path d="M44 3.4641C47.7128 1.32051 52.2872 1.32051 56 3.4641L87.3013 21.5359C91.0141 23.6795 93.3013 27.641 93.3013 31.9282V68.0718C93.3013 72.359 91.0141 76.3205 87.3013 78.4641L56 96.5359C52.2872 98.6795 47.7128 98.6795 44 96.5359L12.6987 78.4641C8.98592 76.3205 6.69873 72.359 6.69873 68.0718V31.9282C6.69873 27.641 8.98592 23.6795 12.6987 21.5359L44 3.4641Z" fill="#202020"/>
<path d="M45.2498 8.25372C48.1889 6.5568 51.8105 6.55691 54.7498 8.25372L83.7781 25.0135C86.7173 26.7105 88.5281 29.8471 88.5281 33.241V66.7596C88.528 70.1534 86.7171 73.2891 83.7781 74.9861L54.7498 91.7459C51.8105 93.4428 48.189 93.4429 45.2498 91.7459L16.2224 74.9861C13.2832 73.2892 11.4725 70.1535 11.4724 66.7596V33.241C11.4724 29.847 13.2831 26.7105 16.2224 25.0135L45.2498 8.25372Z" stroke="#80838D"/>
<g clip-path="url(#clip0_39_772)">
<path d="M49.8735 29.5H52.7963C53.1948 29.5 53.5517 29.7363 53.6908 30.0926L56.2563 36.6596C56.2761 36.7101 56.2763 36.7664 56.2569 36.817L56.2424 36.8544V36.855L53.6879 43.5589C53.5506 43.9188 53.1922 44.1584 52.7904 44.1584H49.8683C49.7039 44.1584 49.589 44.0037 49.6428 43.8555L52.277 36.6596L49.6495 29.8058C49.5925 29.6574 49.7077 29.5 49.8735 29.5Z" fill="#D631B9"/>
<path d="M42.2446 29.5H45.1671C45.5656 29.5 45.9226 29.7363 46.0616 30.0926L48.6271 36.6596C48.6469 36.7101 48.6471 36.7664 48.6277 36.817L48.6132 36.8544V36.855L46.0587 43.5589C45.9214 43.9188 45.563 44.1584 45.1612 44.1584H42.2391C42.0747 44.1584 41.9598 44.0037 42.0139 43.8555L44.6475 36.6596L42.0206 29.8058C41.9636 29.6574 42.0788 29.5 42.2446 29.5Z" fill="#D631B9"/>
<path d="M51.8569 35.2598H47.731V38.4366H51.8569L52.531 36.8027L51.8569 35.2598Z" fill="#D631B9"/>
<path d="M51.5607 29.5H54.4835C54.8821 29.5 55.239 29.7363 55.3781 30.0926L57.9436 36.6596C57.9634 36.7101 57.9636 36.7664 57.9442 36.817L57.9296 36.8544V36.855L55.3751 43.5589C55.2378 43.9188 54.8794 44.1584 54.4777 44.1584H51.5555C51.3911 44.1584 51.2762 44.0037 51.3301 43.8555L53.9642 36.6596L51.3367 29.8058C51.2797 29.6574 51.3949 29.5 51.5607 29.5Z" fill="white"/>
<path d="M43.9316 29.5H46.8541C47.2526 29.5 47.6096 29.7363 47.7486 30.0926L50.3141 36.6596C50.3339 36.7101 50.3341 36.7664 50.3147 36.817L50.3002 36.8544V36.855L47.7457 43.5589C47.6084 43.9188 47.25 44.1584 46.8483 44.1584H43.9261C43.7617 44.1584 43.6468 44.0037 43.7009 43.8555L46.3345 36.6596L43.7076 29.8058C43.6506 29.6574 43.7658 29.5 43.9316 29.5Z" fill="white"/>
<path d="M53.5442 35.2598H49.4182V38.4366H53.5442L54.2182 36.8027L53.5442 35.2598Z" fill="white"/>
</g>
<path d="M37.16 67.692C36.072 67.692 35.1067 67.4467 34.264 66.956C33.4213 66.4547 32.76 65.772 32.28 64.908C31.8 64.0333 31.56 63.0307 31.56 61.9C31.56 60.7693 31.8 59.772 32.28 58.908C32.76 58.0333 33.416 57.3507 34.248 56.86C35.0907 56.3587 36.056 56.108 37.144 56.108C37.912 56.108 38.6267 56.2467 39.288 56.524C39.9493 56.7907 40.5253 57.1693 41.016 57.66C41.5173 58.14 41.9013 58.6947 42.168 59.324L40.136 60.076C39.9547 59.6813 39.7147 59.34 39.416 59.052C39.1173 58.7533 38.776 58.524 38.392 58.364C38.008 58.1933 37.592 58.108 37.144 58.108C36.4933 58.108 35.912 58.2733 35.4 58.604C34.8987 58.924 34.504 59.3667 34.216 59.932C33.9387 60.4973 33.8 61.1533 33.8 61.9C33.8 62.6467 33.944 63.308 34.232 63.884C34.52 64.4493 34.92 64.8973 35.432 65.228C35.944 65.548 36.5307 65.708 37.192 65.708C37.6507 65.708 38.0667 65.6227 38.44 65.452C38.824 65.2707 39.16 65.0253 39.448 64.716C39.7467 64.4067 39.9867 64.0493 40.168 63.644L42.2 64.38C41.9333 65.0307 41.5493 65.6067 41.048 66.108C40.5573 66.6093 39.9813 66.9987 39.32 67.276C38.6587 67.5533 37.9387 67.692 37.16 67.692ZM48.7538 67.692C47.6658 67.692 46.7004 67.4467 45.8578 66.956C45.0151 66.4547 44.3538 65.772 43.8738 64.908C43.3938 64.0333 43.1538 63.0307 43.1538 61.9C43.1538 60.7693 43.3938 59.772 43.8738 58.908C44.3538 58.0333 45.0098 57.3507 45.8418 56.86C46.6844 56.3587 47.6498 56.108 48.7378 56.108C49.5058 56.108 50.2204 56.2467 50.8818 56.524C51.5431 56.7907 52.1191 57.1693 52.6098 57.66C53.1111 58.14 53.4951 58.6947 53.7618 59.324L51.7298 60.076C51.5484 59.6813 51.3084 59.34 51.0098 59.052C50.7111 58.7533 50.3698 58.524 49.9858 58.364C49.6018 58.1933 49.1858 58.108 48.7378 58.108C48.0871 58.108 47.5058 58.2733 46.9938 58.604C46.4924 58.924 46.0978 59.3667 45.8098 59.932C45.5324 60.4973 45.3938 61.1533 45.3938 61.9C45.3938 62.6467 45.5378 63.308 45.8258 63.884C46.1138 64.4493 46.5138 64.8973 47.0258 65.228C47.5378 65.548 48.1244 65.708 48.7858 65.708C49.2444 65.708 49.6604 65.6227 50.0338 65.452C50.4178 65.2707 50.7538 65.0253 51.0417 64.716C51.3404 64.4067 51.5804 64.0493 51.7618 63.644L53.7938 64.38C53.5271 65.0307 53.1431 65.6067 52.6418 66.108C52.1511 66.6093 51.5751 66.9987 50.9138 67.276C50.2524 67.5533 49.5324 67.692 48.7538 67.692ZM55.4035 67.5V56.3H57.5955V67.5H55.4035ZM60.0285 67.5V56.3H64.1885C64.9778 56.3 65.6765 56.46 66.2845 56.78C66.8925 57.0893 67.3672 57.5267 67.7085 58.092C68.0498 58.6467 68.2205 59.292 68.2205 60.028C68.2205 60.7533 68.0552 61.3987 67.7245 61.964C67.3938 62.5293 66.9405 62.9773 66.3645 63.308C65.7885 63.628 65.1218 63.788 64.3645 63.788H62.2205V67.5H60.0285ZM62.2205 61.772H64.3165C64.8072 61.772 65.2072 61.612 65.5165 61.292C65.8365 60.9613 65.9965 60.54 65.9965 60.028C65.9965 59.516 65.8205 59.1 65.4685 58.78C65.1272 58.46 64.6845 58.3 64.1405 58.3H62.2205V61.772Z" fill="white"/>
<rect x="132" width="100" height="100" rx="12" fill="white"/>
<path d="M138.568 25.2535V16.8535H141.268C141.844 16.8535 142.336 16.9415 142.744 17.1175C143.16 17.2935 143.48 17.5535 143.704 17.8975C143.936 18.2415 144.052 18.6655 144.052 19.1695C144.052 19.5535 143.96 19.8975 143.776 20.2015C143.6 20.4975 143.352 20.7415 143.032 20.9335C143.448 21.1335 143.764 21.4015 143.98 21.7375C144.204 22.0735 144.316 22.4735 144.316 22.9375C144.316 23.4255 144.204 23.8455 143.98 24.1975C143.764 24.5415 143.456 24.8055 143.056 24.9895C142.656 25.1655 142.176 25.2535 141.616 25.2535H138.568ZM139.732 24.1855H141.544C142.04 24.1855 142.424 24.0695 142.696 23.8375C142.976 23.5975 143.116 23.2775 143.116 22.8775C143.116 22.4295 142.956 22.0855 142.636 21.8455C142.324 21.5975 141.884 21.4735 141.316 21.4735H139.732V24.1855ZM139.732 20.4655H141.46C141.892 20.4655 142.232 20.3495 142.48 20.1175C142.736 19.8855 142.864 19.5655 142.864 19.1575C142.864 18.7335 142.72 18.4095 142.432 18.1855C142.144 17.9535 141.74 17.8375 141.22 17.8375H139.732V20.4655ZM145.904 25.2535V16.8535H147.08V24.1735H150.98V25.2535H145.904ZM155.634 25.3975C154.818 25.3975 154.094 25.2135 153.462 24.8455C152.83 24.4775 152.334 23.9655 151.974 23.3095C151.622 22.6535 151.446 21.9015 151.446 21.0535C151.446 20.2055 151.622 19.4575 151.974 18.8095C152.334 18.1535 152.826 17.6415 153.45 17.2735C154.074 16.8975 154.794 16.7095 155.61 16.7095C156.426 16.7095 157.146 16.8975 157.77 17.2735C158.394 17.6415 158.882 18.1535 159.234 18.8095C159.586 19.4575 159.762 20.2055 159.762 21.0535C159.762 21.9015 159.586 22.6535 159.234 23.3095C158.882 23.9655 158.394 24.4775 157.77 24.8455C157.154 25.2135 156.442 25.3975 155.634 25.3975ZM155.634 24.3175C156.21 24.3175 156.718 24.1775 157.158 23.8975C157.598 23.6175 157.942 23.2335 158.19 22.7455C158.438 22.2575 158.562 21.6935 158.562 21.0535C158.562 20.4215 158.434 19.8615 158.178 19.3735C157.93 18.8775 157.582 18.4895 157.134 18.2095C156.694 17.9295 156.186 17.7895 155.61 17.7895C155.034 17.7895 154.522 17.9295 154.074 18.2095C153.626 18.4895 153.274 18.8775 153.018 19.3735C152.77 19.8615 152.646 20.4215 152.646 21.0535C152.646 21.6935 152.774 22.2575 153.03 22.7455C153.286 23.2335 153.638 23.6175 154.086 23.8975C154.542 24.1775 155.058 24.3175 155.634 24.3175ZM164.925 25.3975C164.125 25.3975 163.413 25.2135 162.789 24.8455C162.165 24.4695 161.677 23.9575 161.325 23.3095C160.973 22.6535 160.797 21.9015 160.797 21.0535C160.797 20.2055 160.973 19.4575 161.325 18.8095C161.677 18.1535 162.161 17.6415 162.777 17.2735C163.393 16.8975 164.101 16.7095 164.901 16.7095C165.421 16.7095 165.917 16.8055 166.389 16.9975C166.861 17.1815 167.281 17.4415 167.649 17.7775C168.025 18.1055 168.313 18.4895 168.513 18.9295L167.457 19.4095C167.305 19.0815 167.097 18.7975 166.833 18.5575C166.569 18.3175 166.269 18.1295 165.933 17.9935C165.605 17.8575 165.261 17.7895 164.901 17.7895C164.341 17.7895 163.841 17.9295 163.401 18.2095C162.961 18.4895 162.617 18.8735 162.369 19.3615C162.121 19.8495 161.997 20.4135 161.997 21.0535C161.997 21.6935 162.121 22.2615 162.369 22.7575C162.625 23.2535 162.973 23.6415 163.413 23.9215C163.861 24.1935 164.369 24.3295 164.937 24.3295C165.305 24.3295 165.653 24.2575 165.981 24.1135C166.309 23.9615 166.601 23.7575 166.857 23.5015C167.121 23.2375 167.333 22.9375 167.493 22.6015L168.549 23.0695C168.349 23.5255 168.065 23.9295 167.697 24.2815C167.329 24.6335 166.905 24.9095 166.425 25.1095C165.953 25.3015 165.453 25.3975 164.925 25.3975ZM170.777 22.5895L170.429 21.3415L174.713 16.8535H176.213L170.777 22.5895ZM170.009 25.2535V16.8535H171.149V25.2535H170.009ZM174.917 25.2535L171.497 20.9815L172.301 20.2375L176.369 25.2535H174.917ZM181.085 25.3975C180.285 25.3975 179.573 25.2135 178.949 24.8455C178.325 24.4695 177.837 23.9575 177.485 23.3095C177.133 22.6535 176.957 21.9015 176.957 21.0535C176.957 20.2055 177.133 19.4575 177.485 18.8095C177.837 18.1535 178.321 17.6415 178.937 17.2735C179.553 16.8975 180.261 16.7095 181.061 16.7095C181.581 16.7095 182.077 16.8055 182.549 16.9975C183.021 17.1815 183.441 17.4415 183.809 17.7775C184.185 18.1055 184.473 18.4895 184.673 18.9295L183.617 19.4095C183.465 19.0815 183.257 18.7975 182.993 18.5575C182.729 18.3175 182.429 18.1295 182.093 17.9935C181.765 17.8575 181.421 17.7895 181.061 17.7895C180.501 17.7895 180.001 17.9295 179.561 18.2095C179.121 18.4895 178.777 18.8735 178.529 19.3615C178.281 19.8495 178.157 20.4135 178.157 21.0535C178.157 21.6935 178.281 22.2615 178.529 22.7575C178.785 23.2535 179.133 23.6415 179.573 23.9215C180.021 24.1935 180.529 24.3295 181.097 24.3295C181.465 24.3295 181.813 24.2575 182.141 24.1135C182.469 23.9615 182.761 23.7575 183.017 23.5015C183.281 23.2375 183.493 22.9375 183.653 22.6015L184.709 23.0695C184.509 23.5255 184.225 23.9295 183.857 24.2815C183.489 24.6335 183.065 24.9095 182.585 25.1095C182.113 25.3015 181.613 25.3975 181.085 25.3975ZM191.87 25.2535V16.8535H193.046V25.2535H191.87ZM186.17 25.2535V16.8535H187.346V25.2535H186.17ZM187.154 21.4735V20.3935H192.242V21.4735H187.154ZM200.989 25.2535L197.665 16.8535H198.865L202.249 25.2535H200.989ZM194.221 25.2535L197.605 16.8535H198.805L195.481 25.2535H194.221ZM195.817 23.0095V21.9535H200.653V23.0095H195.817ZM203.42 25.2535V16.8535H204.596V25.2535H203.42ZM206.736 25.2535V16.8535H207.948L212.7 23.2855V16.8535H213.888V25.2535H212.7L207.912 18.7615V25.2535H206.736ZM224.767 25.2535L221.443 16.8535H222.643L226.027 25.2535H224.767ZM217.999 25.2535L221.383 16.8535H222.583L219.259 25.2535H217.999ZM219.595 23.0095V21.9535H224.431V23.0095H219.595Z" fill="#202020"/>
<path fill-rule="evenodd" clip-rule="evenodd" d="M165.268 63.3683V58.8071C165.608 58.9069 165.966 58.9069 166.307 58.8071V63.3683C165.969 63.2684 165.608 63.2684 165.268 63.3683ZM182.417 55.0879L186.887 57.6679C185.257 58.6097 183.63 59.5471 182 60.4889L177.116 57.6679L181.586 55.0879C181.848 54.936 182.152 54.936 182.417 55.0879ZM187.403 58.5663C185.774 59.5059 184.148 60.4476 182.519 61.3872V67.0289L186.987 64.4489C187.251 64.297 187.403 64.0344 187.403 63.7284V58.5663ZM181.479 67.0266V61.3849L176.595 58.5662V63.7285C176.595 64.0345 176.747 64.297 177.011 64.4489L181.479 67.0266ZM181.583 73.8077L177.113 76.3877L181.998 79.2086C183.628 78.2669 185.255 77.3295 186.885 76.3877L182.415 73.8077C182.152 73.6558 181.848 73.6558 181.583 73.8077ZM176.597 77.2861L181.482 80.1048V85.7465L177.014 83.1665C176.749 83.0146 176.597 82.752 176.597 82.446V77.2861ZM182.521 85.7464V80.1069C184.15 79.1673 185.776 78.2256 187.405 77.286V82.4483C187.405 82.7543 187.254 83.0168 186.989 83.1687L182.521 85.7464ZM165.372 64.4484L160.902 67.0284C162.529 67.968 164.159 68.9076 165.789 69.8472C167.418 68.9076 169.046 67.968 170.675 67.0284L166.205 64.4484C165.94 64.2943 165.637 64.2943 165.372 64.4484ZM160.385 67.9246C162.013 68.8642 163.64 69.8059 165.27 70.7455V76.3872L160.802 73.8072C160.537 73.6553 160.385 73.3927 160.385 73.0867V67.9246ZM166.309 76.3872V70.7455C167.939 69.8059 169.564 68.8641 171.194 67.9246V73.0868C171.194 73.3928 171.042 73.6554 170.777 73.8073L166.309 76.3872ZM166.205 45.7283L170.675 48.3084C169.046 49.2479 167.418 50.1875 165.788 51.1271C164.161 50.1875 162.531 49.2479 160.902 48.3084L165.372 45.7283C165.637 45.5764 165.94 45.5764 166.205 45.7283ZM171.192 49.2067C169.562 50.1463 167.937 51.0881 166.307 52.0276L166.309 57.6671L170.777 55.0871C171.042 54.9352 171.194 54.6726 171.194 54.3666L171.192 49.2067ZM165.268 57.6671V52.0276C163.64 51.088 162.013 50.1463 160.383 49.2067V54.369C160.383 54.6749 160.535 54.9375 160.8 55.0894L165.268 57.6671ZM181.583 36.369L177.113 38.9491L181.998 41.77C183.628 40.8282 185.255 39.8908 186.885 38.9491L182.415 36.369C182.152 36.215 181.848 36.215 181.583 36.369ZM176.597 39.8453L181.481 42.664V48.3057L177.014 45.7257C176.749 45.5738 176.597 45.3112 176.597 45.0052V39.8453ZM182.521 48.3078V42.6661C184.15 41.7265 185.776 40.7848 187.405 39.8452V45.0075C187.405 45.3135 187.253 45.576 186.989 45.7279L182.521 48.3078ZM198.628 45.7278L203.098 48.3078C201.469 49.2496 199.841 50.187 198.212 51.1287L193.327 48.3078L197.797 45.7278C198.06 45.5759 198.363 45.5759 198.628 45.7278ZM203.615 49.2062C201.985 50.1458 200.36 51.0875 198.73 52.0271L198.732 57.6666L203.2 55.0865C203.465 54.9346 203.617 54.6721 203.617 54.3661L203.615 49.2062ZM197.691 57.6665V52.0248L192.806 49.2061V54.3684C192.806 54.6743 192.958 54.9369 193.223 55.0888L197.691 57.6665ZM197.795 64.4475L193.325 67.0276C194.952 67.9672 196.582 68.9067 198.212 69.8463C199.841 68.9067 201.469 67.9672 203.098 67.0276L198.628 64.4475C198.364 64.2935 198.06 64.2935 197.795 64.4475ZM192.808 67.9238C194.436 68.8634 196.063 69.8051 197.693 70.7447V76.3864L193.225 73.8063C192.96 73.6544 192.808 73.3919 192.808 73.0859V67.9238ZM198.732 70.7447C200.362 69.8051 201.987 68.8634 203.617 67.9238V73.0861C203.617 73.392 203.465 73.6546 203.2 73.8065L198.732 76.3865V70.7447ZM171.66 47.739L175.61 45.4584C175.694 45.8034 175.872 46.1116 176.128 46.3568L172.179 48.6374C172.094 48.2924 171.916 47.9821 171.66 47.739ZM188.391 45.4584L192.34 47.739C192.084 47.9842 191.904 48.2924 191.821 48.6374L187.872 46.3568C188.128 46.1116 188.306 45.8013 188.391 45.4584ZM198.732 58.8055V63.3667C198.392 63.2669 198.034 63.2669 197.693 63.3667V58.8055C198.031 58.9053 198.392 58.9053 198.732 58.8055ZM192.34 74.4357L188.39 76.7163C188.306 76.3713 188.128 76.0632 187.872 75.818L191.821 73.5374C191.906 73.8802 192.084 74.1905 192.34 74.4357ZM175.609 76.7163L171.66 74.4357C171.916 74.1905 172.096 73.8824 172.179 73.5374L176.128 75.818C175.872 76.061 175.694 76.3713 175.609 76.7163ZM192.34 55.7155L188.39 57.9961C188.306 57.6511 188.128 57.343 187.872 57.0978L191.821 54.8172C191.906 55.1622 192.084 55.4703 192.34 55.7155ZM188.39 64.1758L192.34 66.4565C192.084 66.7017 191.903 67.0098 191.821 67.3548L187.872 65.0742C188.128 64.8312 188.306 64.5209 188.39 64.1758ZM182.521 68.1664V72.7275C182.18 72.6277 181.822 72.6277 181.481 72.7275V68.1664C181.82 68.2662 182.18 68.2662 182.521 68.1664ZM176.128 65.0742L172.179 67.3548C172.094 67.0098 171.916 66.7017 171.66 66.4565L175.609 64.1758C175.694 64.5209 175.872 64.8312 176.128 65.0742ZM175.609 57.996L171.66 55.7153C171.916 55.4701 172.096 55.162 172.179 54.817L176.128 57.0976C175.872 57.3428 175.694 57.6509 175.609 57.996ZM181.479 54.0076V49.4464C181.82 49.5462 182.178 49.5462 182.518 49.4464V54.0076C182.18 53.9078 181.82 53.9078 181.479 54.0076Z" fill="#202020"/>
<rect y="132" width="100" height="100" rx="12" fill="white"/>
<path d="M7.068 157.253V148.853H9.768C10.344 148.853 10.836 148.941 11.244 149.117C11.66 149.293 11.98 149.553 12.204 149.897C12.436 150.241 12.552 150.665 12.552 151.169C12.552 151.553 12.46 151.897 12.276 152.201C12.1 152.497 11.852 152.741 11.532 152.933C11.948 153.133 12.264 153.401 12.48 153.737C12.704 154.073 12.816 154.473 12.816 154.937C12.816 155.425 12.704 155.845 12.48 156.197C12.264 156.541 11.956 156.805 11.556 156.989C11.156 157.165 10.676 157.253 10.116 157.253H7.068ZM8.232 156.185H10.044C10.54 156.185 10.924 156.069 11.196 155.837C11.476 155.597 11.616 155.277 11.616 154.877C11.616 154.429 11.456 154.085 11.136 153.845C10.824 153.597 10.384 153.473 9.816 153.473H8.232V156.185ZM8.232 152.465H9.96C10.392 152.465 10.732 152.349 10.98 152.117C11.236 151.885 11.364 151.565 11.364 151.157C11.364 150.733 11.22 150.409 10.932 150.185C10.644 149.953 10.24 149.837 9.72 149.837H8.232V152.465ZM14.4039 157.253V148.853H15.5799V156.173H19.4799V157.253H14.4039ZM24.1337 157.397C23.3177 157.397 22.5937 157.213 21.9617 156.845C21.3297 156.477 20.8337 155.965 20.4737 155.309C20.1217 154.653 19.9457 153.901 19.9457 153.053C19.9457 152.205 20.1217 151.457 20.4737 150.809C20.8337 150.153 21.3257 149.641 21.9497 149.273C22.5737 148.897 23.2937 148.709 24.1097 148.709C24.9257 148.709 25.6457 148.897 26.2697 149.273C26.8937 149.641 27.3817 150.153 27.7337 150.809C28.0857 151.457 28.2617 152.205 28.2617 153.053C28.2617 153.901 28.0857 154.653 27.7337 155.309C27.3817 155.965 26.8937 156.477 26.2697 156.845C25.6537 157.213 24.9417 157.397 24.1337 157.397ZM24.1337 156.317C24.7097 156.317 25.2177 156.177 25.6577 155.897C26.0977 155.617 26.4417 155.233 26.6897 154.745C26.9377 154.257 27.0617 153.693 27.0617 153.053C27.0617 152.421 26.9337 151.861 26.6777 151.373C26.4297 150.877 26.0817 150.489 25.6337 150.209C25.1937 149.929 24.6857 149.789 24.1097 149.789C23.5337 149.789 23.0217 149.929 22.5737 150.209C22.1257 150.489 21.7737 150.877 21.5177 151.373C21.2697 151.861 21.1457 152.421 21.1457 153.053C21.1457 153.693 21.2737 154.257 21.5297 154.745C21.7857 155.233 22.1377 155.617 22.5857 155.897C23.0417 156.177 23.5577 156.317 24.1337 156.317ZM33.4253 157.397C32.6253 157.397 31.9133 157.213 31.2893 156.845C30.6653 156.469 30.1773 155.957 29.8253 155.309C29.4733 154.653 29.2973 153.901 29.2973 153.053C29.2973 152.205 29.4733 151.457 29.8253 150.809C30.1773 150.153 30.6613 149.641 31.2773 149.273C31.8933 148.897 32.6013 148.709 33.4013 148.709C33.9213 148.709 34.4173 148.805 34.8893 148.997C35.3613 149.181 35.7813 149.441 36.1493 149.777C36.5253 150.105 36.8133 150.489 37.0133 150.929L35.9573 151.409C35.8053 151.081 35.5973 150.797 35.3333 150.557C35.0693 150.317 34.7693 150.129 34.4333 149.993C34.1053 149.857 33.7613 149.789 33.4013 149.789C32.8413 149.789 32.3413 149.929 31.9013 150.209C31.4613 150.489 31.1173 150.873 30.8693 151.361C30.6213 151.849 30.4973 152.413 30.4973 153.053C30.4973 153.693 30.6213 154.261 30.8693 154.757C31.1253 155.253 31.4733 155.641 31.9133 155.921C32.3613 156.193 32.8693 156.329 33.4373 156.329C33.8053 156.329 34.1533 156.257 34.4813 156.113C34.8093 155.961 35.1013 155.757 35.3573 155.501C35.6213 155.237 35.8333 154.937 35.9933 154.601L37.0493 155.069C36.8493 155.525 36.5653 155.929 36.1973 156.281C35.8293 156.633 35.4053 156.909 34.9253 157.109C34.4533 157.301 33.9533 157.397 33.4253 157.397ZM39.2774 154.589L38.9294 153.341L43.2134 148.853H44.7134L39.2774 154.589ZM38.5094 157.253V148.853H39.6494V157.253H38.5094ZM43.4174 157.253L39.9974 152.981L40.8014 152.237L44.8694 157.253H43.4174ZM49.5854 157.397C48.7854 157.397 48.0734 157.213 47.4494 156.845C46.8254 156.469 46.3374 155.957 45.9854 155.309C45.6334 154.653 45.4574 153.901 45.4574 153.053C45.4574 152.205 45.6334 151.457 45.9854 150.809C46.3374 150.153 46.8214 149.641 47.4374 149.273C48.0534 148.897 48.7614 148.709 49.5614 148.709C50.0814 148.709 50.5774 148.805 51.0494 148.997C51.5214 149.181 51.9414 149.441 52.3094 149.777C52.6854 150.105 52.9734 150.489 53.1734 150.929L52.1174 151.409C51.9654 151.081 51.7574 150.797 51.4934 150.557C51.2294 150.317 50.9294 150.129 50.5934 149.993C50.2654 149.857 49.9214 149.789 49.5614 149.789C49.0014 149.789 48.5014 149.929 48.0614 150.209C47.6214 150.489 47.2774 150.873 47.0294 151.361C46.7814 151.849 46.6574 152.413 46.6574 153.053C46.6574 153.693 46.7814 154.261 47.0294 154.757C47.2854 155.253 47.6334 155.641 48.0734 155.921C48.5214 156.193 49.0294 156.329 49.5974 156.329C49.9654 156.329 50.3134 156.257 50.6414 156.113C50.9694 155.961 51.2614 155.757 51.5174 155.501C51.7814 155.237 51.9934 154.937 52.1534 154.601L53.2094 155.069C53.0094 155.525 52.7254 155.929 52.3574 156.281C51.9894 156.633 51.5654 156.909 51.0854 157.109C50.6134 157.301 50.1134 157.397 49.5854 157.397ZM60.3696 157.253V148.853H61.5456V157.253H60.3696ZM54.6696 157.253V148.853H55.8456V157.253H54.6696ZM55.6536 153.473V152.393H60.7416V153.473H55.6536ZM69.4893 157.253L66.1653 148.853H67.3653L70.7493 157.253H69.4893ZM62.7213 157.253L66.1053 148.853H67.3053L63.9813 157.253H62.7213ZM64.3173 155.009V153.953H69.1533V155.009H64.3173ZM71.9196 157.253V148.853H73.0956V157.253H71.9196ZM75.236 157.253V148.853H76.448L81.2 155.285V148.853H82.388V157.253H81.2L76.412 150.761V157.253H75.236ZM87.4586 157.253V148.853H90.1586C90.7346 148.853 91.2266 148.941 91.6346 149.117C92.0506 149.293 92.3706 149.553 92.5946 149.897C92.8266 150.241 92.9426 150.665 92.9426 151.169C92.9426 151.553 92.8506 151.897 92.6666 152.201C92.4906 152.497 92.2426 152.741 91.9226 152.933C92.3386 153.133 92.6546 153.401 92.8706 153.737C93.0946 154.073 93.2066 154.473 93.2066 154.937C93.2066 155.425 93.0946 155.845 92.8706 156.197C92.6546 156.541 92.3466 156.805 91.9466 156.989C91.5466 157.165 91.0666 157.253 90.5066 157.253H87.4586ZM88.6226 156.185H90.4346C90.9306 156.185 91.3146 156.069 91.5866 155.837C91.8666 155.597 92.0066 155.277 92.0066 154.877C92.0066 154.429 91.8466 154.085 91.5266 153.845C91.2146 153.597 90.7746 153.473 90.2066 153.473H88.6226V156.185ZM88.6226 152.465H90.3506C90.7826 152.465 91.1226 152.349 91.3706 152.117C91.6266 151.885 91.7546 151.565 91.7546 151.157C91.7546 150.733 91.6106 150.409 91.3226 150.185C91.0346 149.953 90.6306 149.837 90.1106 149.837H88.6226V152.465Z" fill="#202020"/>
<path fill-rule="evenodd" clip-rule="evenodd" d="M33.2677 195.368V190.807C33.6084 190.907 33.9664 190.907 34.3071 190.807V195.368C33.9686 195.268 33.6084 195.268 33.2677 195.368ZM50.4167 187.088L54.8868 189.668C53.2572 190.61 51.6297 191.547 50.0001 192.489L45.1155 189.668L49.5856 187.088C49.8482 186.936 50.1519 186.936 50.4167 187.088ZM55.4032 190.566C53.7736 191.506 52.1483 192.448 50.5187 193.387V199.029L54.9866 196.449C55.2513 196.297 55.4032 196.034 55.4032 195.728V190.566ZM49.4793 199.027V193.385L44.5948 190.566V195.728C44.5948 196.034 44.7467 196.297 45.0114 196.449L49.4793 199.027ZM49.5835 205.808L45.1134 208.388L49.998 211.209C51.6276 210.267 53.255 209.329 54.8847 208.388L50.4146 205.808C50.152 205.656 49.8482 205.656 49.5835 205.808ZM44.597 209.286L49.4815 212.105V217.747L45.0136 215.166C44.7489 215.015 44.597 214.752 44.597 214.446V209.286ZM50.5209 217.746V212.107C52.1505 211.167 53.7758 210.226 55.4054 209.286V214.448C55.4054 214.754 55.2535 215.017 54.9888 215.169L50.5209 217.746ZM33.3719 196.448L28.9018 199.028C30.5293 199.968 32.1589 200.908 33.7885 201.847C35.4181 200.908 37.0456 199.968 38.6752 199.028L34.2051 196.448C33.9404 196.294 33.6366 196.294 33.3719 196.448ZM28.3853 199.925C30.0128 200.864 31.6403 201.806 33.2699 202.746V208.387L28.802 205.807C28.5372 205.655 28.3853 205.393 28.3853 205.087V199.925ZM34.3092 208.387V202.745C35.9389 201.806 37.5642 200.864 39.1938 199.925V205.087C39.1938 205.393 39.0419 205.655 38.7772 205.807L34.3092 208.387ZM34.2051 177.728L38.6752 180.308C37.0455 181.248 35.4181 182.188 33.7885 183.127C32.161 182.188 30.5314 181.248 28.9017 180.308L33.3718 177.728C33.6366 177.576 33.9403 177.576 34.2051 177.728ZM39.1916 181.207C37.562 182.146 35.9367 183.088 34.3071 184.028L34.3092 189.667L38.7772 187.087C39.0419 186.935 39.1938 186.673 39.1938 186.367L39.1916 181.207ZM33.2677 189.667V184.028C31.6403 183.088 30.0128 182.146 28.3832 181.207V186.369C28.3832 186.675 28.5351 186.937 28.7998 187.089L33.2677 189.667ZM49.5834 168.369L45.1134 170.949L49.9979 173.77C51.6275 172.828 53.255 171.891 54.8846 170.949L50.4145 168.369C50.152 168.215 49.8482 168.215 49.5834 168.369ZM44.5969 171.845L49.4814 174.664V180.306L45.0135 177.726C44.7488 177.574 44.5969 177.311 44.5969 177.005V171.845ZM50.5208 180.308V174.666C52.1504 173.727 53.7757 172.785 55.4053 171.845V177.008C55.4053 177.313 55.2534 177.576 54.9887 177.728L50.5208 180.308ZM66.6282 177.728L71.0983 180.308C69.4687 181.25 67.8412 182.187 66.2116 183.129L61.327 180.308L65.7971 177.728C66.0597 177.576 66.3634 177.576 66.6282 177.728ZM71.6147 181.206C69.9851 182.146 68.3598 183.087 66.7302 184.027L66.7324 189.667L71.2003 187.087C71.465 186.935 71.6169 186.672 71.6169 186.366L71.6147 181.206ZM65.6908 189.667V184.025L60.8063 181.206V186.368C60.8063 186.674 60.9582 186.937 61.2229 187.089L65.6908 189.667ZM65.795 196.448L61.3249 199.028C62.9524 199.967 64.582 200.907 66.2116 201.846C67.8413 200.907 69.4687 199.967 71.0983 199.028L66.6283 196.448C66.3635 196.293 66.0597 196.293 65.795 196.448ZM60.8085 199.924C62.4359 200.863 64.0634 201.805 65.693 202.745V208.386L61.2251 205.806C60.9604 205.654 60.8085 205.392 60.8085 205.086V199.924ZM66.7324 202.745C68.362 201.805 69.9873 200.863 71.6169 199.924V205.086C71.6169 205.392 71.465 205.655 71.2003 205.807L66.7324 208.387V202.745ZM39.6604 179.739L43.6097 177.458C43.6943 177.803 43.8723 178.112 44.1283 178.357L40.179 180.637C40.0944 180.292 39.9165 179.982 39.6604 179.739ZM56.3905 177.458L60.3398 179.739C60.0838 179.984 59.9037 180.292 59.8212 180.637L55.8719 178.357C56.128 178.112 56.3059 177.801 56.3905 177.458ZM66.7324 190.806V195.367C66.3917 195.267 66.0336 195.267 65.693 195.367V190.806C66.0315 190.905 66.3917 190.905 66.7324 190.806ZM60.3396 206.436L56.3903 208.716C56.3057 208.371 56.1277 208.063 55.8717 207.818L59.821 205.537C59.9056 205.88 60.0836 206.191 60.3396 206.436ZM43.6095 208.716L39.6602 206.436C39.9162 206.191 40.0964 205.882 40.1788 205.537L44.1281 207.818C43.8721 208.061 43.6941 208.371 43.6095 208.716ZM60.3396 187.716L56.3903 189.996C56.3057 189.651 56.1277 189.343 55.8717 189.098L59.821 186.817C59.9056 187.162 60.0836 187.47 60.3396 187.716ZM56.3903 196.176L60.3396 198.456C60.0836 198.702 59.9035 199.01 59.821 199.355L55.8717 197.074C56.1278 196.831 56.3057 196.521 56.3903 196.176ZM50.5209 200.166V204.728C50.1802 204.628 49.8221 204.628 49.4814 204.728V200.166C49.82 200.266 50.1802 200.266 50.5209 200.166ZM44.1281 197.074L40.1788 199.355C40.0942 199.01 39.9162 198.702 39.6602 198.456L43.6095 196.176C43.6941 196.521 43.8721 196.831 44.1281 197.074ZM43.6095 189.996L39.6602 187.715C39.9163 187.47 40.0964 187.162 40.1788 186.817L44.1281 189.098C43.8721 189.343 43.6941 189.651 43.6095 189.996ZM49.479 186.008V181.446C49.8196 181.546 50.1777 181.546 50.5184 181.446V186.008C50.1798 185.908 49.8196 185.908 49.479 186.008Z" fill="#202020"/>
<path d="M176 135.464C179.713 133.321 184.287 133.321 188 135.464L219.301 153.536C223.014 155.679 225.301 159.641 225.301 163.928V200.072C225.301 204.359 223.014 208.321 219.301 210.464L188 228.536C184.287 230.679 179.713 230.679 176 228.536L144.699 210.464C140.986 208.321 138.699 204.359 138.699 200.072V163.928C138.699 159.641 140.986 155.679 144.699 153.536L176 135.464Z" fill="#202020"/>
<path d="M177.25 140.254C180.189 138.557 183.811 138.557 186.75 140.254L215.778 157.013C218.717 158.711 220.528 161.847 220.528 165.241V198.76C220.528 202.153 218.717 205.289 215.778 206.986L186.75 223.746C183.81 225.443 180.189 225.443 177.25 223.746L148.222 206.986C145.283 205.289 143.473 202.153 143.472 198.76V165.241C143.472 161.847 145.283 158.71 148.222 157.013L177.25 140.254Z" stroke="#80838D"/>
<g clip-path="url(#clip1_39_772)">
<path d="M181.873 161.5H184.796C185.195 161.5 185.552 161.736 185.691 162.093L188.256 168.66C188.276 168.71 188.276 168.766 188.257 168.817L188.242 168.854V168.855L185.688 175.559C185.551 175.919 185.192 176.158 184.79 176.158H181.868C181.704 176.158 181.589 176.004 181.643 175.856L184.277 168.66L181.649 161.806C181.592 161.657 181.708 161.5 181.873 161.5Z" fill="#D631B9"/>
<path d="M174.245 161.5H177.167C177.566 161.5 177.923 161.736 178.062 162.093L180.627 168.66C180.647 168.71 180.647 168.766 180.628 168.817L180.613 168.854V168.855L178.059 175.559C177.921 175.919 177.563 176.158 177.161 176.158H174.239C174.075 176.158 173.96 176.004 174.014 175.856L176.647 168.66L174.021 161.806C173.964 161.657 174.079 161.5 174.245 161.5Z" fill="#D631B9"/>
<path d="M183.857 167.26H179.731V170.437H183.857L184.531 168.803L183.857 167.26Z" fill="#D631B9"/>
<path d="M183.561 161.5H186.484C186.882 161.5 187.239 161.736 187.378 162.093L189.944 168.66C189.963 168.71 189.964 168.766 189.944 168.817L189.93 168.854V168.855L187.375 175.559C187.238 175.919 186.879 176.158 186.478 176.158H183.556C183.391 176.158 183.276 176.004 183.33 175.856L185.964 168.66L183.337 161.806C183.28 161.657 183.395 161.5 183.561 161.5Z" fill="white"/>
<path d="M175.932 161.5H178.854C179.253 161.5 179.61 161.736 179.749 162.093L182.314 168.66C182.334 168.71 182.334 168.766 182.315 168.817L182.3 168.854V168.855L179.746 175.559C179.608 175.919 179.25 176.158 178.848 176.158H175.926C175.762 176.158 175.647 176.004 175.701 175.856L178.335 168.66L175.708 161.806C175.651 161.657 175.766 161.5 175.932 161.5Z" fill="white"/>
<path d="M185.544 167.26H181.418V170.437H185.544L186.218 168.803L185.544 167.26Z" fill="white"/>
</g>
<path d="M169.16 199.692C168.072 199.692 167.107 199.447 166.264 198.956C165.421 198.455 164.76 197.772 164.28 196.908C163.8 196.033 163.56 195.031 163.56 193.9C163.56 192.769 163.8 191.772 164.28 190.908C164.76 190.033 165.416 189.351 166.248 188.86C167.091 188.359 168.056 188.108 169.144 188.108C169.912 188.108 170.627 188.247 171.288 188.524C171.949 188.791 172.525 189.169 173.016 189.66C173.517 190.14 173.901 190.695 174.168 191.324L172.136 192.076C171.955 191.681 171.715 191.34 171.416 191.052C171.117 190.753 170.776 190.524 170.392 190.364C170.008 190.193 169.592 190.108 169.144 190.108C168.493 190.108 167.912 190.273 167.4 190.604C166.899 190.924 166.504 191.367 166.216 191.932C165.939 192.497 165.8 193.153 165.8 193.9C165.8 194.647 165.944 195.308 166.232 195.884C166.52 196.449 166.92 196.897 167.432 197.228C167.944 197.548 168.531 197.708 169.192 197.708C169.651 197.708 170.067 197.623 170.44 197.452C170.824 197.271 171.16 197.025 171.448 196.716C171.747 196.407 171.987 196.049 172.168 195.644L174.2 196.38C173.933 197.031 173.549 197.607 173.048 198.108C172.557 198.609 171.981 198.999 171.32 199.276C170.659 199.553 169.939 199.692 169.16 199.692ZM180.754 199.692C179.666 199.692 178.7 199.447 177.858 198.956C177.015 198.455 176.354 197.772 175.874 196.908C175.394 196.033 175.154 195.031 175.154 193.9C175.154 192.769 175.394 191.772 175.874 190.908C176.354 190.033 177.01 189.351 177.842 188.86C178.684 188.359 179.65 188.108 180.738 188.108C181.506 188.108 182.22 188.247 182.882 188.524C183.543 188.791 184.119 189.169 184.61 189.66C185.111 190.14 185.495 190.695 185.762 191.324L183.73 192.076C183.548 191.681 183.308 191.34 183.01 191.052C182.711 190.753 182.37 190.524 181.986 190.364C181.602 190.193 181.186 190.108 180.738 190.108C180.087 190.108 179.506 190.273 178.994 190.604C178.492 190.924 178.098 191.367 177.81 191.932C177.532 192.497 177.394 193.153 177.394 193.9C177.394 194.647 177.538 195.308 177.826 195.884C178.114 196.449 178.514 196.897 179.026 197.228C179.538 197.548 180.124 197.708 180.786 197.708C181.244 197.708 181.66 197.623 182.034 197.452C182.418 197.271 182.754 197.025 183.042 196.716C183.34 196.407 183.58 196.049 183.762 195.644L185.794 196.38C185.527 197.031 185.143 197.607 184.642 198.108C184.151 198.609 183.575 198.999 182.914 199.276C182.252 199.553 181.532 199.692 180.754 199.692ZM187.404 199.5V188.3H189.596V199.5H187.404ZM192.029 199.5V188.3H196.189C196.978 188.3 197.677 188.46 198.285 188.78C198.893 189.089 199.367 189.527 199.709 190.092C200.05 190.647 200.22 191.292 200.22 192.028C200.22 192.753 200.055 193.399 199.725 193.964C199.394 194.529 198.941 194.977 198.365 195.308C197.789 195.628 197.122 195.788 196.365 195.788H194.221V199.5H192.029ZM194.221 193.772H196.317C196.807 193.772 197.207 193.612 197.517 193.292C197.837 192.961 197.997 192.54 197.997 192.028C197.997 191.516 197.821 191.1 197.469 190.78C197.127 190.46 196.685 190.3 196.141 190.3H194.221V193.772Z" fill="white"/>
<defs>
<clipPath id="clip0_39_772">
<rect width="16" height="16" fill="white" transform="translate(42 28.5)"/>
</clipPath>
<clipPath id="clip1_39_772">
<rect width="16" height="16" fill="white" transform="translate(174 160.5)"/>
</clipPath>
</defs>
</svg>
