<svg xmlns="http://www.w3.org/2000/svg" fill="none" viewBox="0 0 30 30"><path fill="#BFF009" d="M0 15C0 6.716 6.716 0 15 0s15 6.716 15 15-6.716 15-15 15S0 23.284 0 15"/><path fill="#040404" fill-rule="evenodd" d="M15.617 8.728a.92.92 0 0 0-.917.917.92.92 0 0 0 .918.917h3.322v8.437h-2.284v-.76c-1.108 1.145-3.16 1.2-4.472.374-1.47-.878-2.145-2.694-1.901-4.378.209-1.534 1.105-2.746 2.455-3.317a3.148 3.148 0 0 1 2.879-4.42h1.641v2.23h-1.64Zm1.09 6.182v-2.117h-2.119a2.12 2.12 0 0 0-2.119 2.117 2.12 2.12 0 0 0 4.238 0" clip-rule="evenodd"/><path fill="#040404" d="M8.373 23.038h3.346c.915 0 1.444.308 1.738.56a1.9 1.9 0 0 1 .377.443l.004.006a1.202 1.202 0 0 0 2.178-.006 1.9 1.9 0 0 1 .378-.443c.293-.252.822-.56 1.737-.56h3.346v-2.406h-3.346c-1.461 0-2.507.494-3.206 1.058-.699-.564-1.745-1.058-3.206-1.058H8.373z"/></svg>