<svg width="40" height="40" viewBox="0 0 40 40" fill="none" xmlns="http://www.w3.org/2000/svg">
<g clip-path="url(#clip0_12_8711)">
<path d="M40 20C40 23.9556 38.827 27.8224 36.6294 31.1114C34.4318 34.4004 31.3082 36.9638 27.6537 38.4776C23.9992 39.9913 19.9778 40.3874 16.0982 39.6157C12.2186 38.844 8.65492 36.9392 5.85787 34.1421C3.06082 31.3451 1.15601 27.7814 0.384303 23.9018C-0.387401 20.0222 0.00866561 16.0009 1.52242 12.3463C3.03617 8.69181 5.59962 5.56824 8.88861 3.37061C12.1776 1.17298 16.0444 0 20 0C25.3043 0 30.3914 2.10714 34.1422 5.85786C37.8929 9.60859 40 14.6957 40 20Z" fill="#F7931A"/>
<path fill-rule="evenodd" clip-rule="evenodd" d="M14.2147 9.13273L18.8111 10.3636L19.8383 6.53455L22.1365 7.15818L21.1492 10.8291L23.0238 11.3327L24.0129 7.62182L26.3511 8.24727L25.3438 11.9782C25.3438 11.9782 29.162 12.8236 30.0602 15.9291C30.9583 19.0345 28.0856 20.6655 27.1983 20.7273C27.1983 20.7273 30.5438 22.5618 29.3947 26.1709C28.2456 29.78 24.7183 30.4255 21.0074 29.5982L20.0002 33.4673L17.662 32.8418L18.6892 29.0327L16.8347 28.5273L15.8074 32.3636L13.4874 31.74L14.5165 27.9218L9.79834 26.6491L10.9874 24.0091C10.9874 24.0091 12.3183 24.3727 12.822 24.4927C13.3256 24.6127 13.6492 24.0891 13.7911 23.5655C13.9329 23.0418 16.0692 14.3636 16.2711 13.6491C16.4729 12.9345 16.3911 12.3764 15.5438 12.1564C14.6965 11.9364 13.5438 11.5927 13.5438 11.5927L14.2147 9.13273ZM18.8511 20.6255L17.5783 25.6855C17.5783 25.6855 23.8892 27.9636 24.6965 24.7582C25.5038 21.5527 18.8511 20.6255 18.8511 20.6255ZM19.4365 18.2255L20.6856 13.5891C20.6856 13.5891 26.0892 14.5564 25.4238 17.1364C24.7583 19.7164 21.5729 18.7273 19.4365 18.2255Z" fill="white"/>
</g>
<defs>
<clipPath id="clip0_12_8711">
<rect width="40" height="40" fill="white"/>
</clipPath>
</defs>
</svg>
