<svg width="1010" height="582" viewBox="0 0 1010 582" fill="none" xmlns="http://www.w3.org/2000/svg">
<g clip-path="url(#clip0_136_2097)">
<g clip-path="url(#clip1_136_2097)">
<path d="M-69.0001 -41.9998L803.969 243.497C874.068 266.422 929.051 321.373 952.018 391.458L1080 782" stroke="#101014" stroke-width="1.24035"/>
<path d="M479 -1054L879.66 167.53C902.646 237.61 957.644 292.545 1027.75 315.452L1767 557" stroke="#101014" stroke-width="1.24035"/>
<path d="M-69.0002 -367L778.487 183.88C871.983 244.654 951.733 324.311 1012.62 417.735L1250 782" stroke="#101014" stroke-width="1.24035"/>
<path d="M41.0005 -1054L819.842 142.134C880.688 235.582 960.408 315.27 1053.88 376.079L1664 773" stroke="#101014" stroke-width="1.24035"/>
<path d="M-65.0001 -701L1414 778" stroke="#101014" stroke-width="1.24035"/>
</g>
</g>
<defs>
<clipPath id="clip0_136_2097">
<rect width="1010" height="582" fill="white"/>
</clipPath>
<clipPath id="clip1_136_2097">
<rect width="761" height="1580" fill="white" transform="translate(1580 -148) rotate(90)"/>
</clipPath>
</defs>
</svg>
