<svg width="1000" height="1000" viewBox="0 0 1000 1000" fill="none" xmlns="http://www.w3.org/2000/svg">
<g clip-path="url(#clip0_7_5538)" transform="translate(52 128) scale(1.6)">
<path d="M483.555 34.7015L558.025 222.177C560.658 228.81 560.658 236.234 558.025 242.867L483.555 430.342C475.217 451.295 454.986 465.044 432.474 465.044H258.3V444.355H294.021C326.495 444.355 355.721 424.5 367.702 394.279L427.603 243.174H299.726L225.387 430.298C217.049 451.251 196.818 465 174.306 465H0V444.311H35.5019C67.9759 444.311 97.1585 424.456 109.183 394.235L169.259 242.779C171.892 236.146 171.892 228.766 169.259 222.133L109.314 70.7208C97.3341 40.4558 68.1514 20.6013 35.6336 20.6013H0V0H174.174C196.687 0 216.961 13.7488 225.255 34.7015L299.594 221.826H427.515L367.57 70.7208C355.59 40.4997 326.407 20.6452 293.889 20.6452H258.212V0H432.386C454.899 0 475.173 13.7488 483.467 34.7015H483.555Z" fill="url(#paint0_linear_7_5538)"/>
</g>
<defs>
<linearGradient id="paint0_linear_7_5538" x1="560" y1="232.5" x2="0" y2="232.5" gradientUnits="userSpaceOnUse">
<stop offset="0.27" stop-color="#9A0DFF"/>
<stop offset="0.42" stop-color="#9E12FE"/>
<stop offset="0.62" stop-color="#AC23FC"/>
<stop offset="0.85" stop-color="#C23FF9"/>
<stop offset="0.92" stop-color="#CB49F8"/>
</linearGradient>
<clipPath id="clip0_7_5538">
<rect width="560" height="465" fill="white"/>
</clipPath>
</defs>
</svg>
