<svg width="80" height="80" viewBox="0 0 80 80" fill="none" xmlns="http://www.w3.org/2000/svg">
<g clip-path="url(#clip0_7_954)">
<path d="M40.0214 80C62.0944 80 79.9881 62.0914 79.9881 40C79.9881 17.9086 62.0944 0 40.0214 0C17.9484 0 0.0546875 17.9086 0.0546875 40C0.0546875 62.0914 17.9484 80 40.0214 80Z" fill="#FF0420"/>
<mask id="mask0_7_954" style="mask-type:luminance" maskUnits="userSpaceOnUse" x="8" y="8" width="64" height="64">
<path d="M71.4673 8.52734H8.57446V71.4726H71.4673V8.52734Z" fill="white"/>
</mask>
<g mask="url(#mask0_7_954)">
<path d="M71.4672 39.5711V40.1591C57.6017 47.07 47.2198 57.4606 40.3147 71.3379H39.7272C32.822 57.4674 22.44 47.07 8.57446 40.1591V39.5711C22.44 32.6602 32.822 22.2696 39.7272 8.39246H40.3147C47.2198 22.2696 57.6017 32.6602 71.4672 39.5711Z" fill="white"/>
<path fill-rule="evenodd" clip-rule="evenodd" d="M42.1649 50.602V54.4613H37.6934V50.5525C36.6657 50.4135 35.7571 50.1794 34.9675 49.8504C33.5995 49.2601 32.5684 48.4355 31.8742 47.377C31.2004 46.298 30.8635 45.0257 30.8635 43.5599H35.9476C35.9476 44.1096 36.1008 44.5982 36.407 45.0257C36.7132 45.4532 37.1727 45.7891 37.7852 46.0334C38.4182 46.2573 39.2042 46.3693 40.1435 46.3693C41.3686 46.3693 42.3282 46.1759 43.0225 45.7891C43.7371 45.3819 44.0944 44.8017 44.0944 44.0485C44.0944 43.4175 43.7983 42.9085 43.2062 42.5217C42.6345 42.1146 41.6748 41.8499 40.3272 41.7278L38.9184 41.6057C36.6724 41.4021 34.8858 40.7303 33.5587 39.5903C32.2315 38.4299 31.5679 36.8013 31.5679 34.7045C31.5679 33.2591 31.8844 32.058 32.5173 31.1012C33.1504 30.1444 34.0691 29.4319 35.2738 28.9637C35.96 28.6854 36.7256 28.4863 37.5708 28.3666V25.2688H42.0423V28.4252C42.8511 28.5674 43.5759 28.7876 44.2169 29.0858C45.4624 29.6355 46.4016 30.4294 47.0346 31.4677C47.6675 32.5059 47.984 33.7681 47.984 35.2541H42.9C42.9 34.7249 42.7672 34.2668 42.5018 33.88C42.2363 33.4729 41.8586 33.1573 41.3686 32.9334C40.899 32.6891 40.317 32.5669 39.6228 32.5669C38.9899 32.5669 38.4488 32.6585 37.9996 32.8418C37.5708 33.0046 37.2339 33.2489 36.9889 33.5747C36.7643 33.88 36.652 34.2566 36.652 34.7045C36.652 35.2541 36.8562 35.7631 37.2646 36.2313C37.6934 36.6791 38.408 36.954 39.4085 37.0557L40.8173 37.1779C43.3491 37.3815 45.3705 38.0533 46.8814 39.1933C48.4128 40.3129 49.1785 41.9313 49.1785 44.0485C49.1785 45.4939 48.8314 46.7153 48.1371 47.7129C47.4429 48.69 46.422 49.4331 45.0744 49.942C44.2229 50.2636 43.253 50.4836 42.1649 50.602Z" fill="#FF0420"/>
<path d="M34.9675 49.8504C33.5995 49.2601 32.5684 48.4355 31.8742 47.377C31.2004 46.298 30.8635 45.0257 30.8635 43.5599H35.9476C35.9476 44.1096 36.1008 44.5982 36.407 45.0257C36.7132 45.4532 37.1727 45.7891 37.7852 46.0334C38.4182 46.2573 39.2042 46.3693 40.1435 46.3693C41.3686 46.3693 42.3282 46.1759 43.0225 45.7891C43.7371 45.3819 44.0944 44.8017 44.0944 44.0485C44.0944 43.4175 43.7983 42.9085 43.2062 42.5217C42.6345 42.1146 41.6748 41.8499 40.3272 41.7278L38.9184 41.6057C36.6724 41.4021 34.8858 40.7303 33.5587 39.5903C32.2315 38.4299 31.5679 36.8013 31.5679 34.7045C31.5679 33.2591 31.8844 32.058 32.5173 31.1012C33.1504 30.1444 34.0691 29.4319 35.2738 28.9637C35.96 28.6854 36.7256 28.4863 37.5708 28.3666V25.2688H42.0423V28.4252C42.8511 28.5674 43.5759 28.7876 44.2169 29.0858C45.4624 29.6355 46.4016 30.4294 47.0346 31.4677C47.6675 32.5059 47.984 33.7681 47.984 35.2541H42.9C42.9 34.7249 42.7672 34.2668 42.5018 33.88C42.2363 33.4729 41.8586 33.1573 41.3686 32.9334C40.899 32.6891 40.317 32.5669 39.6228 32.5669C38.9899 32.5669 38.4488 32.6585 37.9996 32.8418C37.5708 33.0046 37.2339 33.2489 36.9889 33.5747C36.7643 33.88 36.652 34.2566 36.652 34.7045C36.652 35.2541 36.8562 35.7631 37.2646 36.2313C37.6934 36.6791 38.408 36.954 39.4085 37.0557L40.8173 37.1779C43.3491 37.3815 45.3705 38.0533 46.8814 39.1933C48.4128 40.3129 49.1785 41.9313 49.1785 44.0485C49.1785 45.4939 48.8314 46.7153 48.1371 47.7129C47.4429 48.69 46.422 49.4331 45.0744 49.942C44.2229 50.2636 43.253 50.4836 42.1649 50.602V54.4613H37.6934V50.5525C36.6657 50.4135 35.7571 50.1794 34.9675 49.8504Z" fill="#FF0420"/>
</g>
</g>
<defs>
<clipPath id="clip0_7_954">
<rect width="80" height="80" fill="white"/>
</clipPath>
</defs>
</svg>
