<?xml version="1.0" standalone="no"?>
<!DOCTYPE svg PUBLIC "-//W3C//DTD SVG 20010904//EN"
 "http://www.w3.org/TR/2001/REC-SVG-20010904/DTD/svg10.dtd">
<svg version="1.0" xmlns="http://www.w3.org/2000/svg"
 width="2000.000000pt" height="2000.000000pt" viewBox="0 0 2000.000000 2000.000000"
 preserveAspectRatio="xMidYMid meet">
<metadata>
Created by potrace 1.14, written by Peter Selinger 2001-2017
</metadata>
<g transform="translate(0.000000,2000.000000) scale(0.100000,-0.100000)"
fill="#000000" stroke="none">
<path d="M4210 16424 c-56 -24 -99 -73 -116 -131 -14 -48 -14 -58 0 -105 8
-29 508 -1400 1110 -3046 l1094 -2994 -1106 -3166 c-1009 -2887 -1107 -3172
-1107 -3229 0 -52 5 -68 30 -104 17 -23 50 -53 74 -66 l44 -23 1283 0 c1389 0
1351 -1 1499 55 153 57 312 191 400 335 29 48 259 668 890 2405 l850 2340
1514 3 c1457 2 1513 1 1509 -16 -3 -10 -386 -1109 -851 -2443 -466 -1333 -849
-2438 -853 -2455 -9 -46 13 -110 52 -154 69 -76 -34 -71 1429 -68 l1310 3 85
28 c215 72 389 216 481 399 46 90 2209 6053 2209 6088 0 31 -2132 5773 -2190
5897 -84 183 -238 329 -426 404 -152 61 -105 59 -1505 59 -1132 0 -1284 -2
-1317 -15 -75 -32 -122 -102 -122 -182 0 -39 170 -511 859 -2395 l858 -2348
-1523 0 -1523 0 -3 -21 c-2 -11 -376 982 -832 2208 -456 1225 -840 2252 -852
2280 -89 206 -283 373 -516 445 l-73 23 -1315 2 c-1160 2 -1319 1 -1350 -13z"/>
</g>
</svg>
