<?xml version="1.0" standalone="no"?>
<!DOCTYPE svg PUBLIC "-//W3C//DTD SVG 20010904//EN"
 "http://www.w3.org/TR/2001/REC-SVG-20010904/DTD/svg10.dtd">
<svg version="1.0" xmlns="http://www.w3.org/2000/svg"
 width="700.000000pt" height="700.000000pt" viewBox="0 0 700.000000 700.000000"
 preserveAspectRatio="xMidYMid meet">
<metadata>
Created by potrace 1.14, written by Peter Selinger 2001-2017
</metadata>
<g transform="translate(0.000000,700.000000) scale(0.100000,-0.100000)"
fill="#000000" stroke="none">
<path d="M3269 6996 c-2 -2 -42 -7 -89 -10 -47 -3 -98 -8 -115 -11 -31 -5 -67
-10 -149 -21 -47 -7 -47 -18 0 -27 11 -2 26 -6 34 -9 8 -3 89 -30 180 -59 307
-98 568 -216 740 -331 114 -76 264 -191 370 -282 44 -38 205 -199 245 -246
151 -174 267 -395 320 -609 80 -323 43 -635 -126 -1051 -108 -264 -318 -612
-695 -1150 -213 -306 -276 -414 -338 -587 -102 -288 -123 -586 -59 -873 9 -41
17 -77 18 -80 12 -66 100 -258 160 -352 227 -351 579 -586 995 -663 72 -14
354 -13 438 0 346 57 675 242 895 504 40 48 77 92 84 99 83 87 277 371 375
547 61 108 161 314 173 355 4 14 11 30 15 35 16 20 115 317 145 435 16 63 19
74 30 123 14 60 55 299 60 352 4 33 9 71 11 85 3 14 6 140 8 280 3 232 -6 420
-29 556 -3 21 -8 54 -11 72 -7 54 -44 231 -65 312 -87 331 -226 662 -395 938
-38 62 -74 122 -80 133 -6 10 -18 27 -27 37 -10 10 -17 23 -17 29 0 6 -3 13
-7 15 -5 2 -28 30 -52 63 -222 301 -439 512 -705 687 l-91 59 95 -88 c481
-446 686 -776 824 -1328 19 -77 37 -153 39 -170 3 -16 8 -50 12 -75 4 -25 9
-56 12 -70 10 -48 12 -455 3 -530 -5 -41 -12 -97 -15 -125 -31 -260 -128 -643
-238 -945 -155 -425 -365 -836 -554 -1088 -228 -303 -523 -443 -789 -376 -196
49 -352 212 -400 419 -49 213 9 426 181 660 288 392 562 873 736 1290 91 219
170 452 205 605 4 19 8 37 9 40 49 204 64 345 60 560 -2 147 -7 206 -25 285
-73 326 -250 624 -555 931 -153 154 -281 261 -450 376 -193 131 -221 145 -356
177 -125 30 -328 66 -429 76 -30 3 -71 8 -90 11 -40 5 -516 15 -521 10z"/>
<path d="M1957 6384 c-1 -1 -33 -5 -72 -8 -379 -32 -727 -220 -1000 -540 -163
-191 -320 -412 -428 -602 -59 -105 -149 -286 -172 -350 -10 -27 -21 -53 -25
-59 -31 -46 -160 -464 -184 -600 -24 -132 -34 -190 -42 -244 -3 -25 -8 -57
-10 -71 -19 -119 -26 -559 -11 -705 3 -38 9 -97 12 -130 10 -101 44 -283 80
-430 149 -610 458 -1165 902 -1621 111 -114 190 -180 323 -270 102 -69 178
-114 137 -81 -149 121 -385 368 -508 532 -183 245 -333 577 -394 878 -2 9 -6
20 -8 25 -3 4 -8 24 -11 44 -3 21 -11 59 -17 85 -26 115 -37 273 -34 473 2
113 6 216 8 230 3 14 8 50 12 80 15 120 23 177 30 200 2 8 6 33 10 55 3 22 12
67 20 100 9 33 17 70 20 82 34 160 142 491 229 705 151 373 363 761 521 953
118 145 272 262 405 310 55 20 54 20 110 28 90 14 123 14 196 2 278 -49 474
-311 457 -613 -8 -152 -68 -298 -194 -473 -456 -636 -776 -1271 -929 -1844
-29 -107 -34 -133 -46 -205 -3 -19 -10 -54 -15 -77 -17 -80 -24 -188 -23 -363
1 -137 6 -197 23 -277 55 -263 178 -506 385 -763 71 -87 269 -288 341 -345 27
-22 59 -48 70 -59 59 -54 327 -240 410 -284 22 -11 56 -25 75 -31 41 -12 225
-52 257 -56 11 -2 29 -6 40 -9 10 -3 41 -8 68 -11 28 -3 61 -7 75 -10 175 -35
698 -41 880 -11 14 3 45 7 70 11 94 12 125 17 128 20 2 1 -43 17 -100 35 -424
131 -689 245 -903 389 -384 257 -663 540 -809 821 -52 101 -119 279 -131 353
-3 18 -7 39 -10 47 -14 54 -22 297 -11 370 2 14 6 50 10 80 37 283 219 715
454 1080 66 104 323 485 403 600 44 63 110 159 145 212 134 201 232 456 260
678 3 25 7 51 10 58 6 21 5 281 -1 332 -46 338 -172 596 -405 830 -58 59 -132
126 -165 151 -253 190 -526 284 -848 292 -38 1 -69 1 -70 1z"/>
</g>
</svg>
