<svg xmlns="http://www.w3.org/2000/svg" fill="none" viewBox="4 4.4 41.6 41.6"><path fill="#fff" d="M34 16C25 6 13 2 7 8c-5 5-1 17 9 26 9 10 20 14 26 9 6-6 2-18-8-27Z"></path><path fill="#F79342" d="M38 23a36 36 0 0 1 4 8l1 5h-6v-1l-1-2-3-6a42 42 0 0 0-14-12l-2-1a7 7 0 0 0-3-1V7l5 1 7 3a48 48 0 0 1 12 12Z"></path><path fill="#fff" fill-rule="evenodd" d="m12 19 2-3 3-3c4-4 9-7 14-8 4-1 8-1 11 2a5 5 0 0 1 1 0c3 3 3 8 2 12a30 30 0 0 1-11 17l-4 2 1-4a63 63 0 0 1-13 10l-4 1 2-4a48 48 0 0 1-9 4v-2h2a46 46 0 0 0 11-7l-3 6 2-1a49 49 0 0 0 14-12v5a33 33 0 0 0 3-2c8-8 10-19 5-23-5-5-15-3-23 5a34 34 0 0 0-2 3h5A62 62 0 0 0 8 33l6-3a61 61 0 0 0-7 11v2H5a20 20 0 0 1 1-4l3-5-5 2 2-4a46 46 0 0 1 10-13h-4ZM7 43v2l-3 1 1-3h2Z" clip-rule="evenodd"></path><path fill="#fff" d="M7 43h2a46 46 0 0 0 11-7l-3 6 2-1a49 49 0 0 0 14-12v5a33 33 0 0 0 3-2c8-8 10-19 5-23-5-5-15-3-23 5a34 34 0 0 0-2 3h5A62 62 0 0 0 8 33l6-3a61 61 0 0 0-7 11v2Z"></path><path fill="#00F" fill-rule="evenodd" d="m16 17 2-3c8-8 18-10 23-5 5 4 3 15-5 23l-3 2v-5l-6 6-10 7 3-6c-8 6-13 7-13 7s1-5 7-13l-6 3 7-11 6-5h-5Z" clip-rule="evenodd"></path><path fill="#FBB042" d="m13 15 1 2 1 3a33 33 0 0 0 7 8 45 45 0 0 0 9 7 18 18 0 0 0 4 2h8v2a7 7 0 0 1-5 4h-7l-7-4A49 49 0 0 1 7 19v-8a7 7 0 0 1 4-4h2v8Z"></path></svg>