<svg width="492" height="494" viewBox="0 0 492 494" fill="none" xmlns="http://www.w3.org/2000/svg">
<path d="M270.652 0H371.119C384.826 0 397.089 7.95912 401.874 19.9606L490.058 241.148C490.739 242.854 490.747 244.731 490.081 246.443L489.587 247.714L489.582 247.726L401.769 473.524C397.054 485.646 384.726 493.716 370.923 493.716H270.471C264.822 493.716 260.862 488.506 262.724 483.523L353.271 241.148L262.946 10.2988C260.989 5.29678 264.952 0 270.652 0Z" fill="black"/>
<path d="M8.39276 0H108.86C122.567 0 134.83 7.95912 139.614 19.9606L227.799 241.148C228.479 242.854 228.487 244.731 227.822 246.443L227.327 247.714L227.322 247.726L139.509 473.524C134.795 485.646 122.467 493.716 108.664 493.716H8.2115C2.56253 493.716 -1.39662 488.506 0.465105 483.523L91.0122 241.148L0.686825 10.2988C-1.27034 5.29678 2.69291 0 8.39276 0Z" fill="black"/>
<path d="M338.826 194H197V301H338.826L362 245.971L338.826 194Z" fill="black"/>
</svg>
