<svg width="69" height="58" viewBox="0 0 69 58" fill="none" xmlns="http://www.w3.org/2000/svg">
<path d="M59.3701 4.27082L68.5129 27.361C68.8364 28.181 68.8364 29.0917 68.5129 29.9117L59.3701 53.0019C58.3465 55.5846 55.8646 57.278 53.0963 57.278H31.7082V54.7326H36.094C40.0821 54.7326 43.6671 52.2883 45.1414 48.566L52.4917 29.9597H36.7888L27.6618 53.0072C26.6383 55.5899 24.1564 57.2833 21.3881 57.2833H0V54.7379H4.35929C8.34734 54.7379 11.9324 52.2936 13.4014 48.5713L20.7782 29.9171C21.1017 29.1023 21.1017 28.1917 20.7782 27.3716L13.4173 8.7227C11.9483 4.99505 8.36325 2.55078 4.36989 2.55078H0V0H21.3881C24.1511 0 26.6383 1.69342 27.6618 4.27615L36.7888 27.3237H52.4917L45.1308 8.71205C43.6618 4.98973 40.0768 2.54545 36.0887 2.54545H31.7082V0H53.0963C55.8593 0 58.3465 1.69342 59.3701 4.27615V4.27082Z" fill="#9A0DFF"/>
</svg>
