<svg xmlns="http://www.w3.org/2000/svg" fill="none" viewBox="58.01 96.39 645.22 133.7"><path fill="#000" d="M237.83 197.01v-55.16c0-5.66 4.6-10.25 10.26-10.25h.75V197h-11.01Z"/><path fill="#000" d="M264.8 197.01V131.6h11.59l26.52 47.47V131.6h.28c5.66 0 10.26 4.59 10.26 10.25v55.16h-11.6l-26.52-47.47V197H264.8Z"/><path fill="#000" d="M348.15 198.6c-6.83 0-12.16-2.08-16-6.26-3.82-4.17-5.74-9.72-5.74-16.63h11.01c0 4.05.9 7.29 2.69 9.72 1.85 2.36 4.53 3.55 8.04 3.55 3.51 0 6.2-1.19 8.04-3.55 1.92-2.43 2.88-5.64 2.88-9.63v-33.95c0-5.66 4.59-10.25 10.25-10.25h.76v44.2c0 6.92-1.95 12.46-5.84 16.64-3.83 4.1-9.2 6.16-16.1 6.16Z"/><path fill="#000" d="M385.03 131.6h38.69a9.63 9.63 0 0 1-9.63 9.62h-18.04v18.5h27.67v9.63h-27.68v18.04h27.68v9.63h-38.69V131.6Z"/><path fill="#000" d="M664.55 131.6h38.68a9.63 9.63 0 0 1-9.62 9.62h-18.05v18.5h27.67v9.63h-27.67v18.04h27.67v9.63h-38.68V131.6Z"/><path fill="#000" d="M468.74 198.6c-9.55 0-17.12-3.17-22.69-9.53-5.57-6.36-8.36-14.61-8.36-24.77 0-10.15 2.79-18.4 8.36-24.76 5.57-6.36 13.14-9.53 22.69-9.53 8.02 0 14.61 2.24 19.79 6.72 5.17 4.43 8.21 10.2 9.12 17.3h-2.46c-4.83 0-8.69-3.66-11.55-7.55a16.53 16.53 0 0 0-2.87-3.02c-3.07-2.55-7.06-3.83-11.94-3.83-6.54 0-11.66 2.24-15.36 6.73-3.64 4.42-5.46 10.4-5.46 17.94 0 7.54 1.82 13.55 5.46 18.04 3.7 4.42 8.82 6.64 15.35 6.64 4.9 0 8.88-1.28 11.95-3.84 1.08-.88 2.04-1.89 2.87-3.01 2.86-3.9 6.72-7.55 11.55-7.55h2.46c-.9 7.1-3.95 12.9-9.12 17.39-5.18 4.42-11.77 6.63-19.79 6.63Z"/><path fill="#000" d="M526.09 197.01V141.7h-19.44a10.1 10.1 0 0 1 10.1-10.1h39.88v10.1H537.1V197h-11.01Z"/><path fill="#000" d="M570.6 197.01v-55.16c0-5.66 4.6-10.25 10.27-10.25h.75V197h-11.01Z"/><path fill="#000" d="m617.8 197.01-22.2-65.41h4.47c4.46 0 8.41 2.88 9.77 7.13l13.23 41.37 13.23-41.37a10.26 10.26 0 0 1 9.78-7.13h4.48L628.34 197h-10.53Z"/><path fill="url(#a)" d="M74.22 119.5a83.75 83.75 0 0 1 2.6-3.06c.03-.05.12-.06.16-.1.08-.1.2-.17.29-.26l.08-.1c.61-.57 1.26-1.19 2.02-1.73a30.1 30.1 0 0 1 8.33-4.56c9.35-3.28 19.75-1.26 27.9 6.44 11.4 10.68 10.37 27.87 1.28 39.3-11.49 17.04-31.23 40.82-3.9 62.11 4.92 3.83 8.57 6.99 24.05 11.46-10.13 1.87-19.52 1.29-29.97-1.38-7.39-4.17-19-13.1-22.96-25.17-5.98-18.3 10.52-45.65 18.5-56.19 10.94-14.58-6.77-30.36-19.81-12.74-6.82 9.18-18.75 35.17-14.6 54.44 2.42 10.93 5.65 18.9 18.46 29.84-2.38-1.4-4.68-2.99-6.92-4.77-29.75-27.71-26.3-70.56-5.5-93.53Z"/><path fill="url(#b)" d="M175.5 206.98a83.46 83.46 0 0 1-2.58 3.05c-.04.05-.13.06-.17.11-.08.1-.21.16-.29.26l-.08.1c-.61.57-1.26 1.18-2.02 1.72a30.1 30.1 0 0 1-8.33 4.57c-9.35 3.28-19.75 1.26-27.9-6.44-11.4-10.68-10.37-27.88-1.28-39.3 11.49-17.05 31.23-40.82 3.9-62.12-4.92-3.82-8.57-6.98-24.05-11.46 10.13-1.86 19.51-1.28 29.96 1.39 7.4 4.17 19.02 13.1 22.97 25.17 5.98 18.3-10.52 45.65-18.5 56.18-10.94 14.58 6.77 30.36 19.81 12.75 6.82-9.19 18.75-35.17 14.6-54.45-2.42-10.92-5.65-18.9-18.46-29.84a60.56 60.56 0 0 1 6.92 4.77c29.75 27.72 26.3 70.57 5.5 93.54Z"/><defs><linearGradient id="a" x1="58.01" x2="191.72" y1="163.24" y2="163.24" gradientUnits="userSpaceOnUse"><stop stop-color="#0082FA"/><stop offset="1" stop-color="#00F2FE"/></linearGradient><linearGradient id="b" x1="58.01" x2="191.72" y1="163.24" y2="163.24" gradientUnits="userSpaceOnUse"><stop stop-color="#0082FA"/><stop offset="1" stop-color="#00F2FE"/></linearGradient></defs></svg>