<svg width="43" height="11" viewBox="0 0 43 11" fill="none" xmlns="http://www.w3.org/2000/svg">
<path d="M2.44677e-05 10.38V0.150004H1.66502L5.08502 8.79H5.22002V0.150004H6.30003V10.38H4.63502L1.21502 1.74H1.08002V10.38H2.44677e-05ZM9.27917 10.38V0.150004H15.5192V1.185H9.92417L10.3892 0.765004V5.1L9.92417 4.725H14.3642V5.76H9.92417L10.3892 5.4V9.765L9.92417 9.345H15.5192V10.38H9.27917ZM17.4033 10.38L20.6433 4.725L20.6283 5.355L17.5683 0.150004H18.7983L21.0633 4.035H21.2133L23.4783 0.150004H24.7083L21.6333 5.355L21.6183 4.725L24.8883 10.38H23.6583L21.2133 6.105H21.0633L18.6483 10.38H17.4033ZM30.1024 10.53C29.0724 10.53 28.2774 10.245 27.7174 9.675C27.1674 9.105 26.8924 8.23 26.8924 7.05V0.150004H28.0024V7.05C28.0024 7.65 28.0724 8.13 28.2124 8.49C28.3624 8.85 28.5874 9.11 28.8874 9.27C29.1974 9.43 29.6024 9.51 30.1024 9.51H30.1774C30.6774 9.51 31.0774 9.43 31.3774 9.27C31.6774 9.11 31.8974 8.85 32.0374 8.49C32.1874 8.13 32.2624 7.65 32.2624 7.05V0.150004H33.3874V7.05C33.3874 8.22 33.1074 9.095 32.5474 9.675C31.9874 10.245 31.1974 10.53 30.1774 10.53H30.1024ZM39.1566 10.53C38.0666 10.53 37.2066 10.265 36.5766 9.735C35.9566 9.195 35.6466 8.365 35.6466 7.245H36.7566C36.7566 8.085 36.9516 8.675 37.3416 9.015C37.7316 9.345 38.3366 9.51 39.1566 9.51H39.2316C39.9816 9.51 40.5466 9.365 40.9266 9.075C41.3066 8.785 41.4966 8.345 41.4966 7.755C41.4966 7.345 41.3916 7.01 41.1816 6.75C40.9716 6.49 40.7116 6.29 40.4016 6.15C40.1016 6.01 39.6966 5.865 39.1866 5.715C39.0766 5.675 38.9566 5.635 38.8266 5.595L38.4966 5.475C37.9666 5.305 37.5166 5.115 37.1466 4.905C36.7866 4.685 36.4816 4.39 36.2316 4.02C35.9916 3.65 35.8716 3.185 35.8716 2.625C35.8816 1.805 36.1616 1.165 36.7116 0.705004C37.2716 0.235004 38.0166 4.41074e-06 38.9466 4.41074e-06H39.0216C40.0416 4.41074e-06 40.8516 0.270005 41.4516 0.810005C42.0516 1.34 42.3516 2.16 42.3516 3.27H41.2566C41.2566 2.72 41.1666 2.28 40.9866 1.95C40.8066 1.61 40.5566 1.37 40.2366 1.23C39.9166 1.09 39.5116 1.02 39.0216 1.02H38.9466C38.2966 1.02 37.8066 1.16 37.4766 1.44C37.1566 1.71 36.9966 2.105 36.9966 2.625C36.9966 3.005 37.0866 3.32 37.2666 3.57C37.4566 3.81 37.6916 4 37.9716 4.14C38.2516 4.28 38.6116 4.42 39.0516 4.56C39.1116 4.57 39.1666 4.585 39.2166 4.605C39.2666 4.615 39.3166 4.63 39.3666 4.65L39.7566 4.77C40.3266 4.95 40.8066 5.145 41.1966 5.355C41.5866 5.565 41.9166 5.865 42.1866 6.255C42.4666 6.645 42.6066 7.145 42.6066 7.755C42.6066 8.635 42.3016 9.32 41.6916 9.81C41.0816 10.29 40.2616 10.53 39.2316 10.53H39.1566Z" fill="#CB49F8"/>
</svg>
