<?xml version="1.0" encoding="UTF-8"?>
<svg id="Layer_1" data-name="Layer 1" xmlns="http://www.w3.org/2000/svg" xmlns:xlink="http://www.w3.org/1999/xlink" viewBox="0 0 295.07 157.67">
  <defs>
    <style>
      .cls-1 {
        fill: url(#linear-gradient);
      }

      .cls-2 {
        fill: #fff;
      }
    </style>
    <linearGradient id="linear-gradient" x1="250.16" y1="122.04" x2="230.59" y2="11.04" gradientUnits="userSpaceOnUse">
      <stop offset="0" stop-color="#4b8bc6"/>
      <stop offset="1" stop-color="#65c4eb"/>
    </linearGradient>
  </defs>
  <path class="cls-1" d="m283.81,5.38l-67.38,122.61-30.05-60.1,13.73-13.73,17.06,34.13L262.67,5.38h21.14Z"/>
  <path class="cls-2" d="m113.54,76.88c-.51-.03-1.05-.04-1.61-.04-2.2,0-4.27.42-6.21,1.26-1.94.84-3.64,1.99-5.1,3.45-1.46,1.46-2.62,3.17-3.49,5.13-.87,1.97-1.3,4.05-1.3,6.24v30.04h-15.02v-30.04c0-4.34.82-8.4,2.45-12.18,1.63-3.78,3.86-7.09,6.67-9.92,2.81-2.83,6.1-5.07,9.88-6.7,3.78-1.63,7.82-2.45,12.11-2.45,2.61,0,5.15.32,7.62.96,2.48.64,4.84,1.55,7.09,2.72l-11.65,11.8c-.46-.15-.95-.24-1.46-.27Zm62.03-10.19v32.64c0,3.93-.75,7.64-2.26,11.11-1.51,3.47-3.56,6.51-6.17,9.12-2.61,2.61-5.64,4.66-9.12,6.17-3.47,1.51-7.18,2.26-11.11,2.26s-7.64-.75-11.11-2.26c-3.47-1.51-6.51-3.56-9.12-6.17-2.61-2.61-4.66-5.64-6.17-9.12-1.51-3.47-2.26-7.18-2.26-11.11v-6.13l15.32-15.32v21.45c0,1.84.34,3.56,1.03,5.17.69,1.61,1.65,3.03,2.87,4.25,1.23,1.23,2.64,2.18,4.25,2.87,1.61.69,3.33,1.03,5.17,1.03s3.56-.34,5.17-1.03c1.61-.69,3.03-1.65,4.25-2.87,1.23-1.23,2.18-2.64,2.87-4.25.69-1.61,1.03-3.33,1.03-5.17v-32.64h15.32Zm-106.37,11.88c-1.43-3.34-3.38-6.27-5.86-8.77-2.48-2.5-5.39-4.48-8.73-5.94-3.35-1.46-6.91-2.18-10.69-2.18s-7.42.73-10.77,2.18c-3.35,1.46-6.27,3.44-8.77,5.94-2.5,2.5-4.47,5.43-5.9,8.77-1.43,3.35-2.15,6.91-2.15,10.69v61.24h15.17v-36.72c1.84.92,3.8,1.64,5.9,2.15,2.09.51,4.26.77,6.51.77,3.78,0,7.34-.71,10.69-2.15,3.34-1.43,6.26-3.38,8.73-5.86,2.48-2.48,4.43-5.39,5.86-8.73,1.43-3.34,2.15-6.91,2.15-10.69s-.72-7.34-2.15-10.69Zm-13.98,15.48c-.64,1.51-1.52,2.82-2.64,3.95-1.12,1.12-2.43,2.02-3.91,2.68-1.48.66-3.06,1-4.75,1s-3.36-.33-4.87-1c-1.51-.66-2.82-1.56-3.95-2.68-1.12-1.12-2.01-2.44-2.64-3.95-.64-1.51-.96-3.1-.96-4.79s.32-3.36.96-4.87c.64-1.51,1.52-2.82,2.64-3.95,1.12-1.12,2.44-2,3.95-2.64,1.51-.64,3.13-.96,4.87-.96s3.27.32,4.75.96c1.48.64,2.78,1.52,3.91,2.64,1.12,1.12,2,2.44,2.64,3.95.64,1.51.96,3.13.96,4.87s-.32,3.28-.96,4.79Z"/>
</svg>