<svg width="893" height="224" viewBox="0 0 893 224" fill="none" xmlns="http://www.w3.org/2000/svg">
<path d="M79.6 223.5C55.8 223.5 36.7 215.8 22.3 200.4C7.9 185 0.7 165.6 0.7 142.2C0.7 118.8 7.7 99.4 21.7 84C35.9 68.6 54.5 60.9 77.5 60.9C96.9 60.9 112.7 66 124.9 76.2C137.1 86.4 144.6 100.1 147.4 117.3H107.5C106.1 110.3 102.9 104.6 97.9 100.2C92.9 95.8 86.7 93.6 79.3 93.6C67.3 93.6 58.1 97.9 51.7 106.5C45.3 115.1 42.1 127 42.1 142.2C42.1 157.2 45.2 169.1 51.4 177.9C57.6 186.5 66.7 190.8 78.7 190.8C96.5 190.8 106.8 182.1 109.6 164.7H148.9C147.5 181.7 140.6 195.8 128.2 207C115.8 218 99.6 223.5 79.6 223.5ZM252.496 223.5C231.696 223.5 216.396 215.6 206.596 199.8H205.996V219H166.696V4.49999H207.496V83.7H208.396C218.196 68.5 232.496 60.9 251.296 60.9C270.696 60.9 286.596 68.5 298.996 83.7C311.396 98.7 317.596 118.2 317.596 142.2C317.596 167 311.596 186.8 299.596 201.6C287.596 216.2 271.896 223.5 252.496 223.5ZM243.496 189.3C253.896 189.3 261.896 185.2 267.496 177C273.296 168.8 276.196 157.2 276.196 142.2C276.196 127.4 273.196 115.7 267.196 107.1C261.396 98.3 252.996 93.9 241.996 93.9C218.396 93.9 206.596 110.3 206.596 143.1C206.596 157.3 209.896 168.6 216.496 177C223.096 185.2 232.096 189.3 243.496 189.3ZM339.918 219V4.49999H435.918C458.918 4.49999 476.218 9.69999 487.818 20.1C499.218 30.3 504.918 43.7 504.918 60.3C504.918 81.3 493.718 95.6 471.318 103.2V104.1C483.318 107.7 492.918 114.2 500.118 123.6C507.518 133 511.218 144.2 511.218 157.2C511.218 176.2 504.918 191.1 492.318 201.9C479.318 213.3 461.318 219 438.318 219H339.918ZM383.418 123V183H433.518C443.918 183 452.118 180.4 458.118 175.2C464.118 169.8 467.118 162.7 467.118 153.9C467.118 144.1 463.818 136.5 457.218 131.1C450.818 125.7 442.518 123 432.318 123H383.418ZM383.418 90.9H430.518C440.118 90.9 447.818 88.7 453.618 84.3C459.418 79.7 462.318 73.3 462.318 65.1C462.318 57.1 459.518 50.9 453.918 46.5C448.518 42.1 441.018 39.9 431.418 39.9H383.418V90.9ZM525.693 41.1V4.49999H698.193V41.1H633.693V219H590.193V41.1H525.693ZM803.545 223.5C773.345 223.5 748.545 213.1 729.145 192.3C709.945 171.3 700.345 144.7 700.345 112.5C700.345 80.1 709.745 53.3 728.545 32.1C747.345 10.9 772.245 0.29999 803.245 0.29999C828.845 0.29999 849.345 7.09999 864.745 20.7C880.345 34.1 889.345 51.4 891.745 72.6H848.545C846.545 61.6 841.545 52.9 833.545 46.5C825.745 40.1 815.645 36.9 803.245 36.9C784.245 36.9 769.745 43.9 759.745 57.9C749.745 71.9 744.745 90.1 744.745 112.5C744.745 134.7 750.045 152.8 760.645 166.8C771.445 180.8 785.745 187.8 803.545 187.8C816.145 187.8 826.645 184.4 835.045 177.6C843.445 170.6 848.345 161.4 849.745 150H892.345C891.145 170.2 883.245 187.1 868.645 200.7C852.445 215.9 830.745 223.5 803.545 223.5Z" fill="white"/>
</svg>
