<?xml version="1.0" encoding="UTF-8"?>
<svg id="Layer_1" data-name="Layer 1" xmlns="http://www.w3.org/2000/svg" viewBox="0 0 509 509">
  <defs>
    <style>
      .cls-1 {
        fill: none;
      }

      .cls-2 {
        fill: #231f20;
      }
    </style>
  </defs>
  <path class="cls-2" d="m456.79,133.33c0,35.02-6.9,69.7-20.3,102.05-13.4,32.35-33.04,61.75-57.81,86.51-24.76,24.76-54.16,44.4-86.51,57.81-32.35,13.4-67.03,20.3-102.05,20.3v-133.33c17.51,0,34.85-3.45,51.02-10.15,16.18-6.7,30.88-16.52,43.26-28.9,12.38-12.38,22.2-27.08,28.9-43.26,6.7-16.18,10.15-33.51,10.15-51.02h133.33Z"/>
  <rect class="cls-2" x="56.79" y="133.33" width="133.33" height="133.33"/>
  <rect class="cls-2" x="190.12" width="133.33" height="133.33"/>
  <path class="cls-2" d="m0,509v-32.1h9.17v4.58h4.59v4.59h4.59v4.59h4.59v-13.76h9.17v32.1h-9.17v-9.17h-4.59v-4.59h-4.59v-4.58h-4.59v18.34H0Z"/>
  <path class="cls-2" d="m41.27,509v-4.58h-4.59v-4.59h4.59v-4.59h18.34v-4.58h-18.34v-4.59h22.93v4.59h4.59v18.34h-27.51Zm4.59-4.58h13.76v-4.59h-13.76v4.59Z"/>
  <path class="cls-2" d="m77.95,509v-4.58h-4.59v-18.34h9.17v18.34h13.76v-18.34h9.17v22.93h-27.51Z"/>
  <path class="cls-2" d="m123.81,509v-18.34h-9.17v-4.59h9.17v-9.17h9.17v9.17h9.17v4.59h-9.17v18.34h-9.17Z"/>
  <path class="cls-2" d="m160.5,481.49v-4.58h9.17v4.58h-9.17Zm-9.17,27.51v-4.58h9.17v-13.76h-4.59v-4.59h13.76v18.34h9.17v4.58h-27.51Z"/>
  <path class="cls-2" d="m188.01,509v-4.58h9.17v-22.93h-4.59v-4.58h13.76v27.51h9.17v4.58h-27.51Z"/>
  <path class="cls-2" d="m224.69,509v-4.58h-4.59v-18.34h9.17v18.34h13.76v-18.34h9.17v22.93h-27.51Z"/>
  <path class="cls-2" d="m256.79,509v-4.58h22.93v-4.59h-18.34v-4.59h-4.59v-4.58h4.59v-4.59h22.93v4.59h-18.34v4.58h18.34v4.59h4.59v4.59h-4.59v4.58h-27.51Z"/>
  <path class="cls-2" d="m339.33,509v-4.58h-4.59v-4.59h-4.58v-13.76h4.58v-4.59h4.59v-4.58h18.34v4.58h4.58v4.59h-9.17v-4.59h-9.17v4.59h-4.59v13.76h4.59v4.59h9.17v-4.59h9.17v4.59h-4.58v4.58h-18.34Z"/>
  <path class="cls-2" d="m366.85,509v-32.1h9.17v9.17h18.34v4.59h4.59v18.34h-9.17v-18.34h-13.76v18.34h-9.17Z"/>
  <path class="cls-2" d="m408.12,509v-4.58h-4.59v-4.59h4.59v-4.59h18.34v-4.58h-18.34v-4.59h22.93v4.59h4.58v18.34h-27.51Zm4.59-4.58h13.76v-4.59h-13.76v4.59Z"/>
  <path class="cls-2" d="m453.97,481.49v-4.58h9.17v4.58h-9.17Zm-9.17,27.51v-4.58h9.17v-13.76h-4.59v-4.59h13.76v18.34h9.17v4.58h-27.51Z"/>
  <path class="cls-2" d="m476.9,509v-22.93h27.51v4.59h4.59v18.34h-9.17v-18.34h-13.76v18.34h-9.17Z"/>
  <rect class="cls-1" width="509" height="509"/>
</svg>