<svg width="35" height="11" viewBox="0 0 35 11" fill="none" xmlns="http://www.w3.org/2000/svg">
<path d="M2.45984 10.23H0.764844L-0.000156198 -2.01464e-05H0.989844L1.58984 9.23998H1.72484L3.07484 -2.01464e-05H4.58984L5.93984 9.23998H6.07484L6.67484 -2.01464e-05H7.66484L6.89984 10.23H5.21984L3.89984 1.19998H3.76484L2.45984 10.23ZM16.644 10.23H15.474L14.589 7.06498H11.109L10.224 10.23H9.02398L11.994 -2.01464e-05H13.704L16.644 10.23ZM12.789 1.04998L11.394 6.02998H14.304L12.924 1.04998H12.789ZM25.3381 3.07498V3.11998C25.3381 5.08498 24.3631 6.02998 22.7431 6.17998V6.25498L25.2031 10.23H23.9431L21.4681 6.19498H19.9681V10.23H18.8581V-2.01464e-05H22.2631C24.1681 -2.01464e-05 25.3381 0.91498 25.3381 3.07498ZM24.2281 3.11998V3.07498C24.2281 1.51498 23.6281 1.03498 22.2631 1.03498H19.9681V5.15998H22.2631C23.6281 5.15998 24.2281 4.67998 24.2281 3.11998ZM27.7923 -2.01464e-05H31.4073C33.3123 -2.01464e-05 34.4823 0.91498 34.4823 3.07498V3.11998C34.4823 5.27998 33.3123 6.19498 31.4073 6.19498H28.9023V10.23H27.7923V-2.01464e-05ZM33.3723 3.11998V3.07498C33.3723 1.51498 32.7723 1.03498 31.4073 1.03498H28.9023V5.15998H31.4073C32.7723 5.15998 33.3723 4.67998 33.3723 3.11998Z" fill="#CB49F8"/>
</svg>
