<svg fill="none" xmlns="http://www.w3.org/2000/svg" viewBox="0 0 133 28"><path d="M.6 22V.6H5V9h8.4V.6h4.3V22h-4.3v-9.4H5V22H.6ZM21 27v-3.2h1.5c1.5 0 2.2-.7 2.2-2 0-.7-.4-2.1-1.1-4.2l-4.2-11h4.3l2.3 7 1 3.3c.3-1.3.6-2.4 1-3.3l2-7h4.2l-5.4 15.8c-.6 1.7-1.2 3-2 3.6-.7.7-1.9 1-3.4 1H21Zm14.6 0V6.6h3.9v2a5.3 5.3 0 0 1 4.6-2.4c2 0 3.6.8 4.8 2.3a9 9 0 0 1 1.9 5.8 9 9 0 0 1-1.9 6 6 6 0 0 1-4.8 2.1c-2 0-3.4-.7-4.4-2.1V27h-4.1Zm7.7-8c1 0 1.8-.3 2.4-1.2.6-.8 1-2 1-3.3 0-1.6-.3-2.8-1-3.7-.5-.8-1.4-1.3-2.6-1.3-1.2 0-2.1.5-2.7 1.4-.6.9-.9 2-.9 3.6 0 1.4.4 2.5 1 3.3.6.9 1.6 1.3 2.8 1.3Zm16.6 3.4c-2.5 0-4.4-.7-5.9-2.2a8.3 8.3 0 0 1-2-5.9c0-2.3.6-4.2 2-5.7a7 7 0 0 1 5.5-2.4c2.4 0 4.3.9 5.6 2.5 1.3 1.7 2 4 2 6.8H55.9c.2 1.2.6 2.1 1.3 2.8.6.7 1.5 1 2.6 1 1.5 0 2.5-.6 3-1.9h4a6 6 0 0 1-2.3 3.6 7.3 7.3 0 0 1-4.6 1.4Zm-.4-13c-2 0-3.1 1-3.5 3.3h6.8c0-1-.4-1.8-1-2.4a3 3 0 0 0-2.3-1ZM73 6.6v2.5c.5-.9 1-1.6 1.6-2 .6-.4 1.3-.6 2.2-.6h1v3.6h-.1c-1.4 0-2.5.2-3.3 1-.9.7-1.3 1.8-1.3 3.4V22h-4V6.6h3.9ZM79.5 22V.6h4V22h-4Zm16.4 0a4 4 0 0 1-.5-1.7c-.5.7-1 1.2-1.7 1.5-.7.4-1.6.6-2.8.6-1.7 0-3-.4-4-1.3-1-.8-1.4-2-1.4-3.4 0-1.6.5-2.7 1.6-3.5 1-.7 2.6-1.2 4.6-1.5l2.9-.6c.5-.2.8-.6.8-1.1 0-.6-.2-1-.7-1.3a3 3 0 0 0-1.9-.5c-1.9 0-2.8.7-3 2.1h-3.6c0-1.4.7-2.6 1.8-3.6s2.7-1.4 4.8-1.4c4.3 0 6.5 1.8 6.5 5.6v7.8c0 1.2.2 1.9.5 2.2v.1H96Zm-4-2.5c1 0 2-.3 2.6-.9.6-.5 1-1.2 1-2v-2.3l-2.9.9c-1.1.2-2 .5-2.4.9-.5.3-.8.8-.8 1.5 0 1.3.8 2 2.4 2Zm14-12.9v2.1a5 5 0 0 1 4.6-2.5 5 5 0 0 1 3.8 1.6c1 1.1 1.5 2.5 1.5 4.2v10h-4v-9.4c0-.9-.3-1.5-.8-2-.4-.6-1-.8-2-.8a3 3 0 0 0-2.2 1c-.6.6-.8 1.5-.8 2.5V22h-4.1V6.6h4Zm19.6 15.8c-2.5 0-4.4-.7-5.8-2.2a8.3 8.3 0 0 1-2.1-5.9c0-2.3.7-4.2 2-5.7a7 7 0 0 1 5.5-2.4c2.4 0 4.3.9 5.6 2.5 1.3 1.7 2 4 2 6.8h-11.1c.1 1.2.5 2.1 1.2 2.8.7.7 1.6 1 2.7 1 1.5 0 2.5-.6 3-1.9h4a6 6 0 0 1-2.3 3.6 7.3 7.3 0 0 1-4.7 1.4Zm-.3-13c-2 0-3.2 1-3.6 3.3h6.9c-.1-1-.4-1.8-1-2.4a3 3 0 0 0-2.3-1Z" fill="#010101"/></svg>