<?xml version="1.0" encoding="UTF-8"?>
<svg id="Layer_1" data-name="Layer 1" xmlns="http://www.w3.org/2000/svg" viewBox="0 0 465 48">
  <defs>
    <style>
      .cls-1 {
        fill: #231f20;
      }
    </style>
  </defs>
  <path class="cls-1" d="m48,16c0,4.2-.83,8.36-2.44,12.25-1.61,3.88-3.97,7.41-6.94,10.38s-6.5,5.33-10.38,6.94c-3.88,1.61-8.04,2.44-12.25,2.44v-16c2.1,0,4.18-.41,6.12-1.22s3.71-1.98,5.19-3.47,2.66-3.25,3.47-5.19c.8-1.94,1.22-4.02,1.22-6.12h16Z"/>
  <rect class="cls-1" y="16" width="16" height="16"/>
  <rect class="cls-1" x="16" width="16" height="16"/>
  <path class="cls-1" d="m75,36.59V12h7.03v3.51h3.51v3.51h3.51v3.51h3.51v-10.54h7.03v24.59h-7.03v-7.03h-3.51v-3.51h-3.51v-3.51h-3.51v14.05h-7.03Z"/>
  <path class="cls-1" d="m106.62,36.59v-3.51h-3.51v-3.51h3.51v-3.51h14.05v-3.51h-14.05v-3.51h17.57v3.51h3.51v14.05h-21.08Zm3.51-3.51h10.54v-3.51h-10.54v3.51Z"/>
  <path class="cls-1" d="m134.73,36.59v-3.51h-3.51v-14.05h7.03v14.05h10.54v-14.05h7.03v17.57h-21.08Z"/>
  <path class="cls-1" d="m169.87,36.59v-14.05h-7.03v-3.51h7.03v-7.03h7.03v7.03h7.03v3.51h-7.03v14.05h-7.03Z"/>
  <path class="cls-1" d="m197.97,15.51v-3.51h7.03v3.51h-7.03Zm-7.03,21.08v-3.51h7.03v-10.54h-3.51v-3.51h10.54v14.05h7.03v3.51h-21.08Z"/>
  <path class="cls-1" d="m219.05,36.59v-3.51h7.03V15.51h-3.51v-3.51h10.54v21.08h7.03v3.51h-21.08Z"/>
  <path class="cls-1" d="m247.16,36.59v-3.51h-3.51v-14.05h7.03v14.05h10.54v-14.05h7.03v17.57h-21.08Z"/>
  <path class="cls-1" d="m271.76,36.59v-3.51h17.57v-3.51h-14.05v-3.51h-3.51v-3.51h3.51v-3.51h17.57v3.51h-14.05v3.51h14.05v3.51h3.51v3.51h-3.51v3.51h-21.08Z"/>
  <path class="cls-1" d="m335,36.59v-3.51h-3.51v-3.51h-3.51v-10.54h3.51v-3.51h3.51v-3.51h14.05v3.51h3.51v3.51h-7.03v-3.51h-7.03v3.51h-3.51v10.54h3.51v3.51h7.03v-3.51h7.03v3.51h-3.51v3.51h-14.05Z"/>
  <path class="cls-1" d="m356.08,36.59V12h7.03v7.03h14.05v3.51h3.51v14.05h-7.03v-14.05h-10.54v14.05h-7.03Z"/>
  <path class="cls-1" d="m387.7,36.59v-3.51h-3.51v-3.51h3.51v-3.51h14.05v-3.51h-14.05v-3.51h17.57v3.51h3.51v14.05h-21.08Zm3.51-3.51h10.54v-3.51h-10.54v3.51Z"/>
  <path class="cls-1" d="m422.84,15.51v-3.51h7.03v3.51h-7.03Zm-7.03,21.08v-3.51h7.03v-10.54h-3.51v-3.51h10.54v14.05h7.03v3.51h-21.08Z"/>
  <path class="cls-1" d="m440.4,36.59v-17.57h21.08v3.51h3.51v14.05h-7.03v-14.05h-10.54v14.05h-7.03Z"/>
</svg>