<svg width="43" height="11" viewBox="0 0 43 11" fill="none" xmlns="http://www.w3.org/2000/svg">
<path d="M-9.76026e-05 10.38V0.150004H1.6649L5.0849 8.79H5.2199V0.150004H6.2999V10.38H4.6349L1.2149 1.74H1.0799V10.38H-9.76026e-05ZM9.27904 10.38V0.150004H15.519V1.185H9.92404L10.389 0.765004V5.1L9.92404 4.725H14.364V5.76H9.92404L10.389 5.4V9.765L9.92404 9.345H15.519V10.38H9.27904ZM17.4032 10.38L20.6432 4.725L20.6282 5.355L17.5682 0.150004H18.7982L21.0632 4.035H21.2132L23.4782 0.150004H24.7082L21.6332 5.355L21.6182 4.725L24.8882 10.38H23.6582L21.2132 6.105H21.0632L18.6482 10.38H17.4032ZM30.1023 10.53C29.0723 10.53 28.2773 10.245 27.7173 9.675C27.1673 9.105 26.8923 8.23 26.8923 7.05V0.150004H28.0023V7.05C28.0023 7.65 28.0723 8.13 28.2123 8.49C28.3623 8.85 28.5873 9.11 28.8873 9.27C29.1973 9.43 29.6023 9.51 30.1023 9.51H30.1773C30.6773 9.51 31.0773 9.43 31.3773 9.27C31.6773 9.11 31.8973 8.85 32.0373 8.49C32.1873 8.13 32.2623 7.65 32.2623 7.05V0.150004H33.3873V7.05C33.3873 8.22 33.1073 9.095 32.5473 9.675C31.9873 10.245 31.1973 10.53 30.1773 10.53H30.1023ZM39.1565 10.53C38.0665 10.53 37.2065 10.265 36.5765 9.735C35.9565 9.195 35.6465 8.365 35.6465 7.245H36.7565C36.7565 8.085 36.9515 8.675 37.3415 9.015C37.7315 9.345 38.3365 9.51 39.1565 9.51H39.2315C39.9815 9.51 40.5465 9.365 40.9265 9.075C41.3065 8.785 41.4965 8.345 41.4965 7.755C41.4965 7.345 41.3915 7.01 41.1815 6.75C40.9715 6.49 40.7115 6.29 40.4015 6.15C40.1015 6.01 39.6965 5.865 39.1865 5.715C39.0765 5.675 38.9565 5.635 38.8265 5.595L38.4965 5.475C37.9665 5.305 37.5165 5.115 37.1465 4.905C36.7865 4.685 36.4815 4.39 36.2315 4.02C35.9915 3.65 35.8715 3.185 35.8715 2.625C35.8815 1.805 36.1615 1.165 36.7115 0.705004C37.2715 0.235004 38.0165 4.41074e-06 38.9465 4.41074e-06H39.0215C40.0415 4.41074e-06 40.8515 0.270005 41.4515 0.810005C42.0515 1.34 42.3515 2.16 42.3515 3.27H41.2565C41.2565 2.72 41.1665 2.28 40.9865 1.95C40.8065 1.61 40.5565 1.37 40.2365 1.23C39.9165 1.09 39.5115 1.02 39.0215 1.02H38.9465C38.2965 1.02 37.8065 1.16 37.4765 1.44C37.1565 1.71 36.9965 2.105 36.9965 2.625C36.9965 3.005 37.0865 3.32 37.2665 3.57C37.4565 3.81 37.6915 4 37.9715 4.14C38.2515 4.28 38.6115 4.42 39.0515 4.56C39.1115 4.57 39.1665 4.585 39.2165 4.605C39.2665 4.615 39.3165 4.63 39.3665 4.65L39.7565 4.77C40.3265 4.95 40.8065 5.145 41.1965 5.355C41.5865 5.565 41.9165 5.865 42.1865 6.255C42.4665 6.645 42.6065 7.145 42.6065 7.755C42.6065 8.635 42.3015 9.32 41.6915 9.81C41.0815 10.29 40.2615 10.53 39.2315 10.53H39.1565Z" fill="#CB49F8"/>
</svg>
