<svg width="2384" height="500" viewBox="0 0 2384 500" fill="none" xmlns="http://www.w3.org/2000/svg">
<path d="M2261.99 371.813V172.641H2315.8V371.813H2261.99ZM2194.72 179.203V132.281H2383.4V179.203H2194.72Z" fill="white"/>
<path d="M2021.89 373.126V322.922H2066.51C2077.67 322.922 2087.73 321.282 2096.7 318.001C2105.67 314.501 2113.32 309.688 2119.67 303.563C2126.01 297.219 2130.82 289.672 2134.1 280.922C2137.39 271.954 2139.03 262.11 2139.03 251.391C2139.03 240.235 2137.39 230.282 2134.1 221.532C2130.82 212.782 2126.01 205.344 2119.67 199.219C2113.32 193.094 2105.67 188.501 2096.7 185.438C2087.73 182.157 2077.67 180.516 2066.51 180.516H2021.89V130.313H2063.56C2085.21 130.313 2104.14 133.485 2120.32 139.829C2136.51 146.172 2150.07 154.813 2161.01 165.751C2171.95 176.688 2180.04 189.266 2185.29 203.485C2190.76 217.485 2193.49 232.251 2193.49 247.782V255.001C2193.49 269.438 2190.76 283.766 2185.29 297.985C2180.04 311.985 2171.95 324.672 2161.01 336.047C2150.07 347.204 2136.51 356.173 2120.32 362.954C2104.14 369.735 2085.21 373.126 2063.56 373.126H2021.89ZM1974.64 373.126V130.313H2028.45V373.126H1974.64Z" fill="white"/>
<path d="M1848.97 378.047C1827.31 378.047 1809.04 374.656 1794.17 367.875C1779.29 360.875 1768.03 351.469 1760.37 339.656C1752.72 327.625 1748.89 313.844 1748.89 298.312H1801.06C1801.06 304.437 1802.7 310.125 1805.98 315.375C1809.48 320.625 1814.73 324.891 1821.73 328.172C1828.73 331.234 1837.81 332.766 1848.97 332.766C1859.03 332.766 1867.45 331.453 1874.23 328.828C1881.01 326.203 1886.15 322.594 1889.65 318C1893.15 313.187 1894.9 307.719 1894.9 301.594C1894.9 293.937 1891.62 287.922 1885.06 283.547C1878.5 278.953 1867.89 276 1853.23 274.688L1835.19 273.047C1811.34 271.078 1792.31 263.641 1778.09 250.734C1763.87 237.828 1756.76 220.766 1756.76 199.547C1756.76 184.234 1760.37 171 1767.59 159.844C1775.03 148.688 1785.31 140.156 1798.44 134.25C1811.56 128.125 1827.09 125.062 1845.03 125.062C1863.84 125.062 1879.92 128.344 1893.26 134.906C1906.83 141.25 1917.22 150.328 1924.44 162.141C1931.65 173.734 1935.26 187.406 1935.26 203.156H1882.76C1882.76 197.25 1881.34 191.891 1878.5 187.078C1875.65 182.047 1871.39 178 1865.7 174.938C1860.23 171.875 1853.34 170.344 1845.03 170.344C1837.15 170.344 1830.48 171.656 1825.01 174.281C1819.76 176.906 1815.83 180.516 1813.2 185.109C1810.58 189.484 1809.26 194.297 1809.26 199.547C1809.26 206.328 1811.67 212.234 1816.48 217.266C1821.29 222.297 1829.17 225.25 1840.11 226.125L1858.48 227.766C1875.98 229.297 1891.4 233.125 1904.75 239.25C1918.09 245.156 1928.48 253.359 1935.92 263.859C1943.58 274.141 1947.4 286.719 1947.4 301.594C1947.4 316.906 1943.36 330.359 1935.26 341.953C1927.39 353.328 1916.12 362.188 1901.47 368.531C1886.81 374.875 1869.31 378.047 1848.97 378.047Z" fill="white"/>
<path d="M1621.13 378.047C1598.6 378.047 1579.46 373.891 1563.71 365.578C1548.17 357.047 1536.36 345.016 1528.27 329.485C1520.17 313.953 1516.13 295.578 1516.13 274.36V132.281H1569.94V276.328C1569.94 286.828 1571.91 296.016 1575.85 303.891C1580 311.547 1585.8 317.453 1593.24 321.61C1600.89 325.766 1610.19 327.844 1621.13 327.844C1632.28 327.844 1641.58 325.766 1649.02 321.61C1656.67 317.453 1662.47 311.547 1666.41 303.891C1670.35 296.235 1672.31 287.047 1672.31 276.328V132.281H1726.13V274.36C1726.13 295.578 1722.08 313.953 1713.99 329.485C1705.89 345.016 1694.08 357.047 1678.55 365.578C1663.02 373.891 1643.88 378.047 1621.13 378.047Z" fill="white"/>
<path d="M1313.56 371.812V192H1355.23V269.109H1352.28C1352.28 250.734 1354.58 235.422 1359.17 223.172C1363.98 210.922 1371.2 201.734 1380.83 195.609C1390.45 189.484 1402.16 186.422 1415.94 186.422H1418.23C1439.23 186.422 1455.2 193.312 1466.14 207.094C1477.3 220.656 1482.87 241.328 1482.87 269.109V371.812H1430.37V266.156C1430.37 256.531 1427.53 248.656 1421.84 242.531C1416.16 236.406 1408.5 233.344 1398.87 233.344C1389.03 233.344 1381.05 236.515 1374.92 242.859C1369.02 248.984 1366.06 257.078 1366.06 267.14V371.812H1313.56Z" fill="white"/>
<path d="M1201.01 378.047C1185.7 378.047 1172.13 375.422 1160.32 370.172C1148.73 364.922 1138.99 357.922 1131.12 349.172C1123.46 340.204 1117.55 330.25 1113.4 319.313C1109.46 308.157 1107.49 296.782 1107.49 285.188V278.625C1107.49 266.594 1109.46 255.11 1113.4 244.172C1117.55 233.016 1123.46 223.063 1131.12 214.313C1138.77 205.563 1148.29 198.672 1159.66 193.641C1171.26 188.391 1184.38 185.766 1199.04 185.766C1218.29 185.766 1234.48 190.141 1247.6 198.891C1260.95 207.422 1271.12 218.688 1278.12 232.688C1285.12 246.469 1288.62 261.563 1288.62 277.969V295.688H1129.48V265.829H1256.79L1239.73 279.61C1239.73 268.891 1238.2 259.704 1235.13 252.047C1232.07 244.391 1227.48 238.594 1221.35 234.657C1215.45 230.5 1208.01 228.422 1199.04 228.422C1189.85 228.422 1182.09 230.5 1175.74 234.657C1169.4 238.813 1164.59 244.938 1161.3 253.032C1158.02 260.907 1156.38 270.641 1156.38 282.235C1156.38 292.954 1157.91 302.36 1160.98 310.454C1164.04 318.329 1168.85 324.454 1175.41 328.829C1181.98 333.204 1190.51 335.391 1201.01 335.391C1210.63 335.391 1218.51 333.532 1224.63 329.813C1230.76 326.094 1234.91 321.5 1237.1 316.032H1285.34C1282.71 328.063 1277.57 338.782 1269.91 348.188C1262.26 357.594 1252.63 364.922 1241.04 370.172C1229.45 375.422 1216.1 378.047 1201.01 378.047Z" fill="white"/>
<path d="M897.78 437.438V192H939.452V269.766L933.874 269.438C934.749 251.5 938.467 236.406 945.03 224.156C951.592 211.688 960.452 202.391 971.608 196.266C982.764 189.922 995.342 186.75 1009.34 186.75C1021.81 186.75 1033.08 189.047 1043.14 193.641C1053.42 198.235 1062.17 204.688 1069.39 213C1076.83 221.094 1082.4 230.719 1086.12 241.875C1090.06 252.813 1092.03 264.844 1092.03 277.969V285.516C1092.03 298.422 1090.17 310.563 1086.45 321.938C1082.73 333.094 1077.26 342.828 1070.05 351.141C1063.05 359.453 1054.4 366.016 1044.12 370.828C1034.06 375.422 1022.47 377.719 1009.34 377.719C995.78 377.719 983.53 374.985 972.592 369.516C961.874 363.828 953.233 355.297 946.67 343.922C940.108 332.328 936.499 317.672 935.842 299.953L950.28 319.641V437.438H897.78ZM994.577 333.75C1003.55 333.75 1011.31 331.563 1017.87 327.188C1024.65 322.813 1029.9 316.688 1033.62 308.813C1037.34 300.938 1039.2 291.86 1039.2 281.578C1039.2 271.297 1037.34 262.328 1033.62 254.672C1029.9 247.016 1024.76 241.11 1018.2 236.953C1011.64 232.578 1003.76 230.391 994.577 230.391C986.702 230.391 979.264 232.25 972.264 235.969C965.264 239.688 959.577 245.047 955.202 252.047C951.045 258.828 948.967 267.141 948.967 276.985V289.125C948.967 298.531 951.155 306.625 955.53 313.406C960.124 319.969 965.92 325 972.92 328.5C979.92 332 987.139 333.75 994.577 333.75Z" fill="white"/>
<path d="M741.836 378.047C720.179 378.047 701.258 374.328 685.07 366.891C669.101 359.234 655.867 349.281 645.367 337.031C634.867 324.563 626.992 311.109 621.742 296.672C616.711 282.234 614.195 268.344 614.195 255V247.781C614.195 232.906 616.82 218.25 622.07 203.813C627.539 189.156 635.633 175.922 646.351 164.109C657.07 152.297 670.414 142.891 686.383 135.891C702.351 128.672 720.836 125.062 741.836 125.062C762.836 125.062 781.32 128.672 797.289 135.891C813.258 142.891 826.601 152.297 837.32 164.109C848.039 175.922 856.133 189.156 861.601 203.813C867.07 218.25 869.804 232.906 869.804 247.781V255C869.804 268.344 867.179 282.234 861.929 296.672C856.679 311.109 848.804 324.563 838.304 337.031C827.804 349.281 814.461 359.234 798.273 366.891C782.304 374.328 763.492 378.047 741.836 378.047ZM741.836 327.844C753.211 327.844 763.383 325.875 772.351 321.937C781.539 318 789.304 312.531 795.648 305.531C802.211 298.531 807.133 290.437 810.414 281.25C813.695 272.062 815.336 262.219 815.336 251.719C815.336 240.562 813.586 230.391 810.086 221.203C806.804 211.797 801.883 203.703 795.32 196.922C788.976 189.922 781.32 184.563 772.351 180.844C763.383 177.125 753.211 175.266 741.836 175.266C730.461 175.266 720.289 177.125 711.32 180.844C702.351 184.563 694.586 189.922 688.023 196.922C681.679 203.703 676.867 211.797 673.586 221.203C670.304 230.391 668.664 240.562 668.664 251.719C668.664 262.219 670.304 272.062 673.586 281.25C676.867 290.437 681.679 298.531 688.023 305.531C694.586 312.531 702.351 318 711.32 321.937C720.289 325.875 730.461 327.844 741.836 327.844Z" fill="white"/>
<ellipse cx="250.826" cy="250" rx="250" ry="250" fill="#FF0420"/>
<g clip-path="url(#clip0_64_11691)">
<path d="M447.527 247.32V250.995C360.795 294.188 295.854 359.129 252.661 445.861H248.986C205.792 359.172 140.851 294.188 54.1191 250.995V247.32C140.851 204.127 205.792 139.185 248.986 52.4532H252.661C295.854 139.185 360.795 204.127 447.527 247.32Z" fill="white"/>
<path fill-rule="evenodd" clip-rule="evenodd" d="M264.234 316.263V340.384H236.263V315.954C229.835 315.084 224.152 313.622 219.213 311.565C210.656 307.876 204.206 302.723 199.864 296.107C195.649 289.363 193.542 281.411 193.542 272.25H225.344C225.344 275.686 226.301 278.739 228.217 281.411C230.133 284.083 233.007 286.182 236.838 287.709C240.797 289.109 245.715 289.808 251.59 289.808C259.253 289.808 265.256 288.6 269.598 286.182C274.068 283.638 276.303 280.011 276.303 275.304C276.303 271.36 274.451 268.179 270.748 265.761C267.171 263.217 261.169 261.563 252.739 260.799L243.927 260.036C229.878 258.763 218.702 254.565 210.4 247.44C202.099 240.187 197.948 230.009 197.948 216.903C197.948 207.87 199.927 200.363 203.887 194.383C207.846 188.403 213.593 183.95 221.129 181.023C225.421 179.284 230.21 178.04 235.497 177.292V157.931H263.468V177.658C268.526 178.547 273.06 179.923 277.07 181.787C284.86 185.222 290.735 190.184 294.695 196.673C298.654 203.162 300.634 211.051 300.634 220.339H268.832C268.832 217.031 268.002 214.168 266.341 211.75C264.681 209.206 262.318 207.234 259.253 205.834C256.315 204.307 252.675 203.544 248.333 203.544C244.374 203.544 240.989 204.116 238.179 205.262C235.497 206.279 233.39 207.806 231.857 209.842C230.452 211.75 229.75 214.104 229.75 216.903C229.75 220.339 231.027 223.52 233.581 226.446C236.263 229.245 240.734 230.963 246.992 231.599L255.804 232.362C271.642 233.635 284.286 237.833 293.737 244.959C303.316 251.956 308.105 262.071 308.105 275.304C308.105 284.337 305.934 291.971 301.592 298.206C297.249 304.313 290.863 308.957 282.434 312.138C277.107 314.148 271.04 315.523 264.234 316.263Z" fill="#FF0420"/>
<path d="M219.213 311.565C210.656 307.876 204.206 302.723 199.864 296.107C195.649 289.363 193.542 281.411 193.542 272.25H225.344C225.344 275.686 226.301 278.739 228.217 281.411C230.133 284.083 233.007 286.182 236.838 287.709C240.797 289.109 245.715 289.808 251.59 289.808C259.253 289.808 265.256 288.6 269.598 286.182C274.068 283.638 276.303 280.011 276.303 275.304C276.303 271.36 274.451 268.179 270.748 265.761C267.171 263.217 261.169 261.563 252.739 260.799L243.927 260.036C229.878 258.763 218.702 254.565 210.4 247.44C202.099 240.187 197.948 230.009 197.948 216.903C197.948 207.87 199.927 200.363 203.887 194.383C207.846 188.403 213.593 183.95 221.129 181.023C225.421 179.284 230.21 178.04 235.497 177.292V157.931H263.468V177.658C268.526 178.547 273.06 179.923 277.07 181.787C284.86 185.222 290.735 190.184 294.695 196.673C298.654 203.162 300.634 211.051 300.634 220.339H268.832C268.832 217.031 268.002 214.168 266.341 211.75C264.681 209.206 262.318 207.234 259.253 205.834C256.315 204.307 252.675 203.544 248.333 203.544C244.374 203.544 240.989 204.116 238.179 205.262C235.497 206.279 233.39 207.806 231.857 209.842C230.452 211.75 229.75 214.104 229.75 216.903C229.75 220.339 231.027 223.52 233.581 226.446C236.263 229.245 240.734 230.963 246.992 231.599L255.804 232.362C271.642 233.635 284.286 237.833 293.737 244.959C303.316 251.956 308.105 262.071 308.105 275.304C308.105 284.337 305.934 291.971 301.592 298.206C297.249 304.313 290.863 308.957 282.434 312.138C277.107 314.148 271.04 315.523 264.234 316.263V340.384H236.263V315.954C229.835 315.084 224.152 313.622 219.213 311.565Z" fill="#FF0420"/>
</g>
<defs>
<clipPath id="clip0_64_11691">
<rect width="393.408" height="393.408" fill="white" transform="translate(54.1191 53.2964)"/>
</clipPath>
</defs>
</svg>
