<svg width="1325" height="266" viewBox="0 0 1325 266" fill="none" xmlns="http://www.w3.org/2000/svg">
<path d="M0.5 215V0.5H44V84.5H128.3V0.5H171.8V215H128.3V120.5H44V215H0.5Z" fill="black"/>
<path d="M204.699 265.4V233.3H219.099C234.299 233.3 241.899 226.3 241.899 212.3C241.899 205.5 237.999 191.6 230.199 170.6L188.799 61.1H231.699L254.499 130.4L264.399 164H264.999C267.799 151 270.799 139.8 273.999 130.4L295.599 61.1H336.699L282.999 218.9C276.999 236.5 270.199 248.6 262.599 255.2C255.199 262 243.899 265.4 228.699 265.4H204.699Z" fill="black"/>
<path d="M350.52 265.4V61.1H389.82V80.3H390.72C402.12 64.7 417.22 56.9 436.02 56.9C456.22 56.9 472.42 64.4 484.62 79.4C496.82 94.4 502.92 114 502.92 138.2C502.92 163 496.82 182.8 484.62 197.6C472.42 212.2 456.32 219.5 436.32 219.5C416.32 219.5 401.52 212.2 391.92 197.6H391.32V265.4H350.52ZM427.62 185.6C438.02 185.6 446.22 181.5 452.22 173.3C458.42 165.1 461.52 153.8 461.52 139.4C461.52 124 458.62 111.9 452.82 103.1C447.02 94.3 438.12 89.9 426.12 89.9C413.92 89.9 404.92 94.5 399.12 103.7C393.32 112.7 390.42 124.6 390.42 139.4C390.42 153.6 393.62 164.9 400.02 173.3C406.42 181.5 415.62 185.6 427.62 185.6Z" fill="black"/>
<path d="M594.207 219.5C569.407 219.5 549.907 211.9 535.707 196.7C521.507 181.3 514.407 161.7 514.407 137.9C514.407 114.9 521.507 95.7 535.707 80.3C549.907 64.7 568.107 56.9 590.307 56.9C614.507 56.9 633.207 65.3 646.407 82.1C659.607 98.9 666.207 121.4 666.207 149.6H554.607C556.207 161.8 560.307 171.3 566.907 178.1C573.507 184.7 582.507 188 593.907 188C608.907 188 618.807 181.7 623.607 169.1H663.807C660.807 183.5 653.207 195.5 641.007 205.1C628.807 214.7 613.207 219.5 594.207 219.5ZM590.907 88.4C571.107 88.4 559.207 99.4 555.207 121.4H623.607C623.007 111.6 619.707 103.7 613.707 97.7C607.707 91.5 600.107 88.4 590.907 88.4Z" fill="black"/>
<path d="M724.391 61.1V85.7H725.291C730.091 76.7 735.391 70.1 741.191 65.9C746.991 61.5 754.291 59.3 763.091 59.3C767.291 59.3 770.491 59.7 772.691 60.5V96.2H771.791C757.991 94.8 746.891 97.8 738.491 105.2C730.091 112.6 725.891 124.2 725.891 140V215H685.091V61.1H724.391Z" fill="black"/>
<path d="M790.866 215V0.5H831.666V215H790.866Z" fill="black"/>
<path d="M955.428 215C953.428 212.4 951.828 206.7 950.628 197.9H950.028C945.628 204.5 940.028 209.6 933.228 213.2C926.428 216.8 916.928 218.6 904.728 218.6C888.528 218.6 875.528 214.5 865.728 206.3C855.928 198.1 851.028 186.5 851.028 171.5C851.028 155.9 856.428 144.5 867.228 137.3C878.028 129.9 893.228 124.8 912.828 122C927.228 120 937.028 118 942.228 116C947.428 113.8 950.028 110 950.028 104.6C950.028 99 947.828 94.6 943.428 91.4C939.028 88 932.628 86.3 924.228 86.3C905.628 86.3 895.728 93.5 894.528 107.9H858.228C858.828 93.3 864.728 81.2 875.928 71.6C887.128 62 903.328 57.2 924.528 57.2C967.728 57.2 989.328 76.1 989.328 113.9V192.2C989.328 203.8 991.128 210.9 994.728 213.5V215H955.428ZM914.628 190.1C925.828 190.1 934.628 187.2 941.028 181.4C947.628 175.6 950.928 168.7 950.928 160.7V137.6C946.528 140.2 937.028 143.2 922.428 146.6C910.828 149.2 902.628 152.2 897.828 155.6C893.028 158.8 890.628 163.8 890.628 170.6C890.628 183.6 898.628 190.1 914.628 190.1Z" fill="black"/>
<path d="M1055.17 61.1V82.1H1056.07C1066.67 65.3 1081.87 56.9 1101.67 56.9C1117.47 56.9 1130.27 62.3 1140.07 73.1C1149.87 83.7 1154.77 97.5 1154.77 114.5V215H1113.97V120.5C1113.97 112.1 1111.57 105.3 1106.77 100.1C1102.17 94.9 1095.67 92.3 1087.27 92.3C1078.27 92.3 1070.77 95.6 1064.77 102.2C1058.97 108.8 1056.07 117.3 1056.07 127.7V215H1015.27V61.1H1055.17Z" fill="black"/>
<path d="M1252.21 219.5C1227.41 219.5 1207.91 211.9 1193.71 196.7C1179.51 181.3 1172.41 161.7 1172.41 137.9C1172.41 114.9 1179.51 95.7 1193.71 80.3C1207.91 64.7 1226.11 56.9 1248.31 56.9C1272.51 56.9 1291.21 65.3 1304.41 82.1C1317.61 98.9 1324.21 121.4 1324.21 149.6H1212.61C1214.21 161.8 1218.31 171.3 1224.91 178.1C1231.51 184.7 1240.51 188 1251.91 188C1266.91 188 1276.81 181.7 1281.61 169.1H1321.81C1318.81 183.5 1311.21 195.5 1299.01 205.1C1286.81 214.7 1271.21 219.5 1252.21 219.5ZM1248.91 88.4C1229.11 88.4 1217.21 99.4 1213.21 121.4H1281.61C1281.01 111.6 1277.71 103.7 1271.71 97.7C1265.71 91.5 1258.11 88.4 1248.91 88.4Z" fill="black"/>
</svg>
