<svg fill="none" xmlns="http://www.w3.org/2000/svg" viewBox="0 0 211 27"><path d="M1.6 22 .6 2.84h3.38L4.2 18.9h.63l5.9-16.07h2.91l.23 16.07h.63l5.9-16.07h3.64L16.24 22H11.2l-.21-11.6L6.57 22H1.6Zm22.33 0-2.37-2.89.58-3.3 2.96-2.55h6.94l.21-1.14-.94-1.14H24.8l.44-2.58h7.46l2.76 3.36L33.65 22h-3.14l.34-1.98L28.5 22h-4.58Zm1.82-2.42 2.44-.02 3.23-2.73.18-1.12h-5.15l-1.35 1.14-.29 1.56.94 1.17ZM37.68 22l2.4-13.6h3.14l-.42 2.37 2.58-2.37h3.35l-.54 3.15h-3.05l-2.9 2.47L40.82 22h-3.15Zm10.27 4.86L51.2 8.4h3.15L54 10.3l2.05-1.9h5.15l2.4 2.91-1.38 7.8-3.4 2.89h-4.58l-1.92-2.05-1.22 6.91h-3.15Zm7.2-7.3h2.7l1.36-1.15L60.33 12l-.94-1.14h-2.7l-3.25 2.75-.57 3.23 2.28 2.73Zm20.29 7.3-3.51-4.26 3.3-18.8L79.39.26h3.35l-.44 2.58h-1.17L78.09 5.4l-2.86 16.3 2.1 2.58h1.17l-.44 2.57h-2.62ZM85.94 22l2.83-16.2h-5.3l.52-2.96h13.9l-.54 2.96h-5.3L89.19 22h-3.25Zm11.59 0-2.66-3.22 1.38-7.83 2.97-2.55h6.26l2.66 3.23-.84 4.73h-8.86l-.34 1.92.94 1.15h7.5l-.46 2.57h-8.55Zm1.32-8.06h5.72l.34-1.95-.94-1.14h-3.43l-1.35 1.14-.34 1.95ZM110.21 22l2.4-13.6h3.14l-.42 2.37 2.58-2.37h4.78l2.18 2.55 2.76-2.55h4.78l2.7 3.12L133.28 22h-3.14l1.74-9.96-.89-1.2h-2.73l-3.22 2.74-1.48 8.42h-3.15l1.74-9.96-.88-1.2h-2.73l-3.77 3.18-1.4 7.98h-3.15Zm26.24 4.86L139.7 8.4h3.15l-.34 1.9 2.05-1.9h5.15l2.4 2.91-1.39 7.8-3.4 2.89h-4.58l-1.92-2.05-1.22 6.91h-3.15Zm7.2-7.3h2.7l1.36-1.15 1.12-6.42-.94-1.14h-2.7l-3.25 2.75-.58 3.23 2.3 2.73ZM154.1 22l3.38-19.16h3.14L157.24 22h-3.14Zm9.03 0-2.37-2.89.58-3.3 2.96-2.55h6.94l.21-1.14-.94-1.14H164l.44-2.58h7.46l2.76 3.36-1.8 10.24h-3.14l.34-1.98L167.7 22h-4.58Zm1.82-2.42 2.45-.02 3.22-2.73.18-1.12h-5.15l-1.35 1.14-.29 1.56.94 1.17ZM179.77 22l-2.31-2.73 1.48-8.42h-1.07l.42-2.45h1.17l1.43-3.3h2.2l-.56 3.3h2.36l-.41 2.45h-2.4l-1.3 7.46.86 1.12h1.95l-.47 2.57h-3.35Zm9.3 0-2.65-3.22 1.38-7.83 2.96-2.55h6.27l2.65 3.23-.83 4.73h-8.87l-.34 1.92.94 1.15h7.51l-.47 2.57h-8.55Zm1.33-8.06h5.72l.34-1.95-.94-1.14h-3.43l-1.35 1.14-.34 1.95Zm9.6 12.92.44-2.57h1.17l3.05-2.58 2.86-16.3-2.11-2.57h-1.17l.44-2.58h2.63l3.5 4.27-3.3 18.8-4.15 3.53H200Z" fill="#010101"/></svg>