<svg width="2019" height="494" viewBox="0 0 2019 494" fill="none" xmlns="http://www.w3.org/2000/svg">
<path d="M270.652 0H371.119C384.826 0 397.089 7.95912 401.874 19.9606L490.058 241.148C490.739 242.854 490.747 244.731 490.081 246.443L489.587 247.714L489.582 247.726L401.769 473.524C397.054 485.646 384.726 493.716 370.923 493.716H270.471C264.822 493.716 260.862 488.506 262.724 483.523L353.271 241.148L262.946 10.2988C260.989 5.29678 264.952 0 270.652 0Z" fill="black"/>
<path d="M8.39276 0H108.86C122.567 0 134.83 7.95912 139.614 19.9606L227.799 241.148C228.479 242.854 228.487 244.731 227.822 246.443L227.327 247.714L227.322 247.726L139.509 473.524C134.795 485.646 122.467 493.716 108.664 493.716H8.2115C2.56253 493.716 -1.39662 488.506 0.465105 483.523L91.0122 241.148L0.686825 10.2988C-1.27034 5.29678 2.69291 0 8.39276 0Z" fill="black"/>
<path d="M338.826 194H197V301H338.826L362 245.971L338.826 194Z" fill="black"/>
<path d="M694.5 352V137.5H738V221.5H822.3V137.5H865.8V352H822.3V257.5H738V352H694.5Z" fill="black"/>
<path d="M898.699 402.4V370.3H913.099C928.299 370.3 935.899 363.3 935.899 349.3C935.899 342.5 931.999 328.6 924.199 307.6L882.799 198.1H925.699L948.499 267.4L958.399 301H958.999C961.799 288 964.799 276.8 967.999 267.4L989.599 198.1H1030.7L976.999 355.9C970.999 373.5 964.199 385.6 956.599 392.2C949.199 399 937.899 402.4 922.699 402.4H898.699Z" fill="black"/>
<path d="M1044.52 402.4V198.1H1083.82V217.3H1084.72C1096.12 201.7 1111.22 193.9 1130.02 193.9C1150.22 193.9 1166.42 201.4 1178.62 216.4C1190.82 231.4 1196.92 251 1196.92 275.2C1196.92 300 1190.82 319.8 1178.62 334.6C1166.42 349.2 1150.32 356.5 1130.32 356.5C1110.32 356.5 1095.52 349.2 1085.92 334.6H1085.32V402.4H1044.52ZM1121.62 322.6C1132.02 322.6 1140.22 318.5 1146.22 310.3C1152.42 302.1 1155.52 290.8 1155.52 276.4C1155.52 261 1152.62 248.9 1146.82 240.1C1141.02 231.3 1132.12 226.9 1120.12 226.9C1107.92 226.9 1098.92 231.5 1093.12 240.7C1087.32 249.7 1084.42 261.6 1084.42 276.4C1084.42 290.6 1087.62 301.9 1094.02 310.3C1100.42 318.5 1109.62 322.6 1121.62 322.6Z" fill="black"/>
<path d="M1288.21 356.5C1263.41 356.5 1243.91 348.9 1229.71 333.7C1215.51 318.3 1208.41 298.7 1208.41 274.9C1208.41 251.9 1215.51 232.7 1229.71 217.3C1243.91 201.7 1262.11 193.9 1284.31 193.9C1308.51 193.9 1327.21 202.3 1340.41 219.1C1353.61 235.9 1360.21 258.4 1360.21 286.6H1248.61C1250.21 298.8 1254.31 308.3 1260.91 315.1C1267.51 321.7 1276.51 325 1287.91 325C1302.91 325 1312.81 318.7 1317.61 306.1H1357.81C1354.81 320.5 1347.21 332.5 1335.01 342.1C1322.81 351.7 1307.21 356.5 1288.21 356.5ZM1284.91 225.4C1265.11 225.4 1253.21 236.4 1249.21 258.4H1317.61C1317.01 248.6 1313.71 240.7 1307.71 234.7C1301.71 228.5 1294.11 225.4 1284.91 225.4Z" fill="black"/>
<path d="M1418.39 198.1V222.7H1419.29C1424.09 213.7 1429.39 207.1 1435.19 202.9C1440.99 198.5 1448.29 196.3 1457.09 196.3C1461.29 196.3 1464.49 196.7 1466.69 197.5V233.2H1465.79C1451.99 231.8 1440.89 234.8 1432.49 242.2C1424.09 249.6 1419.89 261.2 1419.89 277V352H1379.09V198.1H1418.39Z" fill="black"/>
<path d="M1484.87 352V137.5H1525.67V352H1484.87Z" fill="black"/>
<path d="M1649.43 352C1647.43 349.4 1645.83 343.7 1644.63 334.9H1644.03C1639.63 341.5 1634.03 346.6 1627.23 350.2C1620.43 353.8 1610.93 355.6 1598.73 355.6C1582.53 355.6 1569.53 351.5 1559.73 343.3C1549.93 335.1 1545.03 323.5 1545.03 308.5C1545.03 292.9 1550.43 281.5 1561.23 274.3C1572.03 266.9 1587.23 261.8 1606.83 259C1621.23 257 1631.03 255 1636.23 253C1641.43 250.8 1644.03 247 1644.03 241.6C1644.03 236 1641.83 231.6 1637.43 228.4C1633.03 225 1626.63 223.3 1618.23 223.3C1599.63 223.3 1589.73 230.5 1588.53 244.9H1552.23C1552.83 230.3 1558.73 218.2 1569.93 208.6C1581.13 199 1597.33 194.2 1618.53 194.2C1661.73 194.2 1683.33 213.1 1683.33 250.9V329.2C1683.33 340.8 1685.13 347.9 1688.73 350.5V352H1649.43ZM1608.63 327.1C1619.83 327.1 1628.63 324.2 1635.03 318.4C1641.63 312.6 1644.93 305.7 1644.93 297.7V274.6C1640.53 277.2 1631.03 280.2 1616.43 283.6C1604.83 286.2 1596.63 289.2 1591.83 292.6C1587.03 295.8 1584.63 300.8 1584.63 307.6C1584.63 320.6 1592.63 327.1 1608.63 327.1Z" fill="black"/>
<path d="M1749.17 198.1V219.1H1750.07C1760.67 202.3 1775.87 193.9 1795.67 193.9C1811.47 193.9 1824.27 199.3 1834.07 210.1C1843.87 220.7 1848.77 234.5 1848.77 251.5V352H1807.97V257.5C1807.97 249.1 1805.57 242.3 1800.77 237.1C1796.17 231.9 1789.67 229.3 1781.27 229.3C1772.27 229.3 1764.77 232.6 1758.77 239.2C1752.97 245.8 1750.07 254.3 1750.07 264.7V352H1709.27V198.1H1749.17Z" fill="black"/>
<path d="M1946.21 356.5C1921.41 356.5 1901.91 348.9 1887.71 333.7C1873.51 318.3 1866.41 298.7 1866.41 274.9C1866.41 251.9 1873.51 232.7 1887.71 217.3C1901.91 201.7 1920.11 193.9 1942.31 193.9C1966.51 193.9 1985.21 202.3 1998.41 219.1C2011.61 235.9 2018.21 258.4 2018.21 286.6H1906.61C1908.21 298.8 1912.31 308.3 1918.91 315.1C1925.51 321.7 1934.51 325 1945.91 325C1960.91 325 1970.81 318.7 1975.61 306.1H2015.81C2012.81 320.5 2005.21 332.5 1993.01 342.1C1980.81 351.7 1965.21 356.5 1946.21 356.5ZM1942.91 225.4C1923.11 225.4 1911.21 236.4 1907.21 258.4H1975.61C1975.01 248.6 1971.71 240.7 1965.71 234.7C1959.71 228.5 1952.11 225.4 1942.91 225.4Z" fill="black"/>
</svg>
