<svg xmlns="http://www.w3.org/2000/svg" width="280" height="280"><path fill="#07071D" d="M0 0h280v280H0V0Z"/><path fill="#FBFBFB" d="M140 148c12.2-2 12.2-2 18 0 4.3 3.6 6.6 8.9 9 14 1 2 2.3 4 3.8 5.9 2.2 3.1 2.2 3.1 2.2 5.1h2l.7-2c1.8-4.1 4.3-7.8 6.8-11.6l1.5-2.3 6-9.1c1.9-.3 1.9-.3 4.1-.3h2.5l2.5.1h2.6l6.3.2c-2.8 5.4-6 10.6-9.4 15.6l-1.2 1.8a1617.5 1617.5 0 0 1-10.7 15.7 15.6 15.6 0 0 0-2.7 7.9c.8 2 .8 2 2.1 3.8l1.5 2.2 1.7 2.3a4264.3 4264.3 0 0 1 14.4 21.4c3.3 5 3.3 5 3.3 7.3-15 1.5-15 1.5-19.4-1.8a68 68 0 0 1-4.6-8.2 377 377 0 0 0-4.4-6.5c-3.6-5.2-3.6-5.2-3.6-7.5-3 2.7-4.8 5.2-6.6 8.8-7.7 14.1-7.7 14.1-12.8 16.1-5.3.8-10.3.2-15.6-.9 3-5.6 6.2-11 9.8-16.2l1.2-2a619.2 619.2 0 0 1 9.3-13.4l1.2-1.7c1.2-1.8 1.2-1.8 2.5-4.7-.9-4.4-3.9-8-6.4-11.7a99216.6 99216.6 0 0 1-12.2-18.1l-1.6-2.4-1.5-2.2-1.4-2c-.9-1.6-.9-1.6-.9-3.6ZM148 54a1672.4 1672.4 0 0 1 21.6-.3c22.4-.4 22.4-.4 31.3 7.5 5.7 6.5 7.9 12 7.5 20.8A27.6 27.6 0 0 1 198 99.8a34.5 34.5 0 0 1-7.9 3.2l5.1 8.4 1.5 2.5c3 5 6.1 9.8 9.5 14.6.9 1.5.9 1.5.9 3.5-5.8 1.5-11.4 2.6-17 0a97.3 97.3 0 0 1-17-26l-25-1V90h3.3a2003.5 2003.5 0 0 0 25.1-.5h2.4c4.6-.1 7.6-.7 11.2-3.5 2.1-2.6 2.1-4.8 2-8-.6-3.3-1-4-3.4-6.4a24.9 24.9 0 0 0-13.5-3h-2.4A2800.6 2800.6 0 0 0 148 68V54Z"/><path fill="#FAFAFA" d="M72 54a1672.4 1672.4 0 0 1 21.6-.3c11.4-.2 20.3-.1 30.2 6a28 28 0 0 1 8.5 22.2c-.7 7.6-4 12.5-9.7 17.5-8.1 5-15.3 6.2-24.7 5.8L87 105v27H72V90l23.9-.4h4.5l2.4-.1c4.5-.1 7.6-.7 11.2-3.5 2.3-3.2 2.5-6.1 2-10-2.5-4-4.6-5.6-9-7a117.7 117.7 0 0 0-10.5-.5A1346.6 1346.6 0 0 0 72 68V54Z"/><path fill="#FCFCFC" d="M72 148a1614.4 1614.4 0 0 1 16.6-.3c7 0 13 .4 19.4 3.3l2.6 1.1a41 41 0 0 1 19.8 22.8c2.5 9 2 20.6-2.2 29L127 206l-1.2 2.3c-4.7 8-12.5 14-21.2 17.1-6 1.3-12 .9-18.1.8A2114.9 2114.9 0 0 0 72 226v-14l5.4-.1 7.2-.2H88c9.1-.4 15.5-1.6 22.3-8 5.3-5.9 6.4-12.7 6.1-20.5a23 23 0 0 0-8.5-14.9 31.2 31.2 0 0 0-17-5.7l-3.3-.1-3.5-.1-3.6-.1-8.6-.3v-14Z"/></svg>