<svg viewBox="0 0 160 160" xmlns="http://www.w3.org/2000/svg"><path d="M2 78.999c0 42.526 34.473 76.999 76.999 76.999S156 121.524 156 78.998C156 36.474 121.525 2 78.999 2S2 36.473 2 78.999Z" fill="#0C0C4F" stroke="#EC796B"/><path d="m44.154 60.388 1.95-6.025a3.94 3.94 0 0 1 2.594-2.555l6.054-1.862c.838-.256.845-1.438.014-1.708l-6.027-1.95a3.95 3.95 0 0 1-2.555-2.593l-1.86-6.054c-.256-.836-1.438-.845-1.708-.012l-1.95 6.025a3.95 3.95 0 0 1-2.593 2.555l-6.055 1.86c-.838.258-.847 1.438-.013 1.707l6.027 1.95a3.95 3.95 0 0 1 2.555 2.596l1.86 6.052c.255.838 1.438.847 1.707.014" fill="#FAFAFA"/><path d="M139.848 56.881c-2.496-2.791-6.391-4.362-10.178-5.007-3.817-.619-7.82-.561-11.588.108-7.625 1.29-14.552 4.447-20.594 8.342-3.137 1.912-5.813 4.123-8.585 6.376-1.336 1.14-2.553 2.352-3.822 3.548l-3.465 3.448c-3.765 3.936-7.476 7.52-11.067 10.492-3.605 2.957-6.976 5.204-10.298 6.772-3.32 1.577-6.872 2.505-11.502 2.653-4.589.162-10.018-.666-15.826-2.034-5.84-1.36-11.97-3.3-18.823-4.97 2.391 6.632 5.991 12.494 10.614 17.852 4.676 5.265 10.516 10.063 18.017 13.219 7.394 3.226 16.685 4.384 25.372 2.637 8.71-1.677 16.354-5.707 22.533-10.369 6.194-4.709 11.206-10.073 15.431-15.65a106 106 0 0 0 2.627-3.607l2.333-3.456c1.621-2.137 3.097-4.57 4.701-6.689 3.146-4.435 6.248-8.865 9.852-12.946 1.814-2.07 3.727-4.05 5.985-5.953a31.4 31.4 0 0 1 3.691-2.657 17.5 17.5 0 0 1 4.592-2.109" fill="#EC796B"/><path d="M139.848 56.88c-2.681-6.765-7.666-12.46-14.357-16.663-6.65-4.157-15.886-6.278-25.039-4.47a41 41 0 0 0-12.746 4.8c-3.827 2.233-7.256 4.922-10.225 7.805-1.482 1.447-2.827 2.956-4.163 4.474l-3.464 4.416-5.35 7.11c-6.82 9.146-14.165 19.865-26.218 23.04-11.832 3.119-16.964.357-24.186-.783 1.32 3.409 2.957 6.72 5.174 9.632 2.176 2.971 4.746 5.762 7.942 8.155 1.615 1.149 3.32 2.283 5.213 3.245a36 36 0 0 0 6.088 2.362c4.316 1.183 9.175 1.598 13.88.961 4.707-.628 9.206-2.119 13.139-4.1 3.961-1.963 7.412-4.353 10.494-6.875 6.125-5.087 10.89-10.708 14.914-16.389a116 116 0 0 0 5.562-8.63l2-3.446a86 86 0 0 1 1.858-2.966c2.535-3.793 5.014-6.834 8.025-9.117 2.969-2.342 7.104-4.072 12.629-4.474 5.502-.406 11.854.345 18.83 1.914Z" fill="#FAFAFA"/><path d="M110.08 113.1c0 4.97 4.031 9 9 9s8.995-4.03 8.995-9-4.025-9-8.995-9-9 4.031-9 9" fill="#EC796B"/></svg>