<svg xmlns="http://www.w3.org/2000/svg" xml:space="preserve" id="Layer_1" x="0" y="0" style="enable-background:new 0 0 512 512" version="1.1" viewBox="0 0 512.1 511.9"><style>.st0{fill:#7b2bf9}</style><g id="CIRCLE_OUTLINE_BLACK"><path d="M250.1 0h11.8l1.2.3 6.9.3c5.9.5 11.8.8 17.7 1.6a244.5 244.5 0 0 1 69.5 18.7 256.3 256.3 0 0 1 152.2 198.5c.8 5.5 1.4 11.1 1.8 16.6.4 4.3.4 8.7.6 13l.3 1.1v11.8l-.3.7-.3 7.5c-.4 5.1-.6 10.2-1.3 15.3-1.1 8.2-2.3 16.3-3.9 24.4a247.6 247.6 0 0 1-19.1 56.3 255 255 0 0 1-74.6 92.4 250.9 250.9 0 0 1-91.3 45 238 238 0 0 1-43.6 7.4c-6.3.5-12.6.7-18.9 1-3.2.1-6.5 0-9.7-.2-5.8-.3-11.7-.5-17.5-1.1a357 357 0 0 1-17.7-2.3c-12.5-2-24.8-4.9-36.8-8.9a255.6 255.6 0 0 1-167.8-175A239.1 239.1 0 0 1 1 277.6c-.4-5.9-.8-11.9-1-17.8-.1-3.5 0-7.1.2-10.6.4-6.8.7-13.5 1.3-20.2a240.3 240.3 0 0 1 15.1-63.7A256.4 256.4 0 0 1 219.3 2.8c5.5-.8 11.1-1.4 16.6-1.8 4.4-.4 8.8-.4 13.1-.6l1.1-.4zm5.8 444.4a188.4 188.4 0 1 0 .5-376.8 188.4 188.4 0 0 0-.5 376.8z" class="st0"/><path d="M255.9 444.4A188.2 188.2 0 0 1 67.6 253.8a188 188 0 0 1 190.6-186 188.6 188.6 0 0 1 186.2 190.4 188.2 188.2 0 0 1-188.5 186.2zm101.2-245.2-1.4-1.2-6.2-4.9a303.8 303.8 0 0 0-102.4-51.8 220.6 220.6 0 0 0-50.9-8.7c-6.4-.3-12.8 0-19.2.2a108.5 108.5 0 0 0-49 13.8 55.9 55.9 0 0 0-20.7 22.4 56 56 0 0 0-4.9 31.5c.9 7.9 3 15.7 6 23a150.8 150.8 0 0 0 21.2 36.1 220 220 0 0 0 30.5 32c3.1 2.8 7.8 3 11 .3a478.7 478.7 0 0 1 53.1-36.3c4.2-2.3 6.8-6.6 6.9-11.3l1.3-19c.4-4.9.9-9.8 1.6-14.7a469 469 0 0 1 4.1-23.7c2.2-11.3 5.2-22.5 9-33.4.6-2.5 3.2-4 5.7-3.4l.6.2 5.5 1.8c3.4 1.1 4.6 3.4 3.4 6.8a285.5 285.5 0 0 0-12.1 53.1c-1.1 8.5-1.9 17-2.6 25.5-.5 7.2-.6 14.5-.8 21.7-.1 4.1.1 8.3.2 12.4l.2 6.8c.5 7.5.9 15 1.6 22.4.5 5.7 1.2 11.4 2.1 17.1 1.3 7.9 3 15.8 4.6 23.7.9 4.2-.8 7.6-4.8 9.3l-8.7 3.5a15.2 15.2 0 0 1-12.7-.4 407.2 407.2 0 0 1-42.7-22.9 271.9 271.9 0 0 1-68-59.4c-9.7-12.2-18-25.3-24-39.7-1.5-3.7-2.8-7.5-4.1-11.3-.3-.9-.8-1.7-1.8-1.4-.6.2-1.2.7-1.4 1.3a140 140 0 0 0-3.6 27.3c-.2 7.6 0 15.3.5 22.9a162.9 162.9 0 0 0 27.5 80 3.8 3.8 0 0 0 3.9 2.1 3.9 3.9 0 0 0 3.2-2.8l1.9-3.9a137.8 137.8 0 0 1 23.8-30.5 6.2 6.2 0 0 1 8.1-.4l2.8 2.2a6 6 0 0 1 .5 9.4c-6.3 6.2-12 13-17 20.2-3.6 5.4-6.9 11-8.3 17.4-1.5 6.6.5 10.8 6.6 13.6 4.6 2 9.5 3.1 14.5 3.2 4.5.2 9 .2 13.4-.2a218 218 0 0 0 21.3-2.9c16.7-3.4 33.2-8.1 49.1-14.2a539.2 539.2 0 0 0 66.2-30 488.9 488.9 0 0 0 72.1-46.8 4.4 4.4 0 0 0 1.9-3.6c.3-5.8.8-11.6 1-17.3l.3-15-.2-6.6c-.2-4.9-.2-9.8-.5-14.7a350 350 0 0 0-4.4-38.4 240.9 240.9 0 0 0-11.3-43.4c-4-11.1-9-21.7-15.8-31.3a56.5 56.5 0 0 0-16.1-16.2c-7.5-4.7-15.4-6-23.9-2.8-4.9 2-9.4 4.9-13.2 8.6a90 90 0 0 0-16.2 21.5c-1.6 2.9-.8 5.2 2.3 6.4a328 328 0 0 1 79.5 44.3c3.8 2.8 6.4 6.9 7.3 11.5.8 4 1.5 7.9 2 11.9.8 6.5-2.6 11.7-8.5 13.2-18.2 4.6-36 10.5-53.3 17.6a521.4 521.4 0 0 0-46.1 21.5c-3 1.5-5.2.1-5.2-3.2.1-2.6.3-5.1.3-7.7 0-3.5 1.5-5.7 4.8-7.2 9.6-4.4 19-9.1 28.6-13.3a418.5 418.5 0 0 1 59.6-21.3l10.4-2.5zM255.8 428.6c7.3-.1 14.6-.6 21.9-1.6 1.2 0 2.2-.8 2.6-1.9.3-1.1-.2-2.3-1.1-2.9a88.3 88.3 0 0 1-18.7-23c-3.7-6.4-7-13-9.8-19.8-1-2.4-2.7-3.1-5.1-2.2a364 364 0 0 1-56.9 16.8c-7.9 1.6-15.8 2.7-23.9 3.2-1.3.1-2.3.4-2.7 1.7-.4 1.3.4 2.1 1.5 2.7 3.3 2 6.5 4 9.9 5.9a168.5 168.5 0 0 0 64 20c6.1.6 12.2.7 18.3 1.1zm-2.6-302.7c3.8 0 6.1-1.4 7.6-4.1 3.6-6.7 7.9-13 12.6-18.9a77 77 0 0 1 12.1-12.1c.9-.6 1.3-1.7 1-2.8-.2-1-1.1-1.8-2.1-2l-1.8-.3c-6.9-.7-13.7-1.5-20.6-1.9-4.9-.2-9.8-.2-14.7.2a166.6 166.6 0 0 0-91 31.2c-.8.6-1.5 1.2-1.1 2.3.4 1 1.3 1.1 2.2.9a147 147 0 0 1 22.9-2.4 283.2 283.2 0 0 1 37.8 2.2 221.8 221.8 0 0 1 35.1 7.7zm56.3 292.6c2-.3 4.1-.5 6-1a36.8 36.8 0 0 0 16.3-9.5c8.2-7.7 14.1-17 19.1-27 .7-1.3.2-3-1.1-3.7-.5-.2-1-.4-1.5-.3-3.3.1-6.6.4-9.9.4a206.8 206.8 0 0 1-32-2.1 474 474 0 0 1-23.8-4.3c-4-.8-8-2-12-3a4 4 0 0 0-4.3 1.1 3.6 3.6 0 0 0-.4 4.2c3 5.9 5.7 12 8.9 17.8 4.2 7.9 10 14.8 17.1 20.4a28.3 28.3 0 0 0 17.6 7zm-78.8-148c-6.8 2.7-49 32.1-51.7 36a310 310 0 0 0 59.7 33.6c-5-22.9-7.6-46.2-8-69.6zM334 361.6l10.5-.4c3.5-.2 6.9-.8 10.4-1 3.9-.2 6-2.2 7.2-5.8 4.4-13.6 7.8-27.5 10.1-41.6.2-1 .2-1.9-.7-2.5-.9-.5-1.7-.1-2.5.5l-8.8 6.2a572 572 0 0 1-63.1 37.4c-.9.4-1.6 1-1.5 2 .1 1.1 1 1.5 2 1.7 12 2.2 24.2 3.4 36.4 3.5zm85.4-60.6c-.2-2.9-.3-5.9-.8-8.8-.8-4.6-1.7-9.1-2.9-13.6-.8-3-4.2-3.7-6.5-1.6l-14.8 13.8a11 11 0 0 0-3.6 5.8c-.5 2.2-.8 4.5-1.1 6.8-1.1 6.7-1.9 13.4-3.3 20-1.6 8.1-3.7 16.1-5.6 24.1-.6 1.8.4 3.8 2.2 4.4.9.3 1.9.2 2.8-.3l2.3-1.1a59.4 59.4 0 0 0 20.9-17.3 52.5 52.5 0 0 0 10.4-32.2zm-6.5-106c2.3.1 3.5-1.5 2.8-3.7l-.5-1.2a171.6 171.6 0 0 0-29.6-47.4c-3.5-4-7.3-7.7-11-11.4a2 2 0 0 0-1.9-.3c-.7.3-1.1 1.1-.8 1.8l.1.2.7 1.9a255.7 255.7 0 0 1 14.7 51.6 8.6 8.6 0 0 0 8.9 7.5 129.3 129.3 0 0 1 16.6 1zm-12.6 14.8h-1.7c-1.3-.2-2.5.5-3 1.7-.6 1.3 0 2.3.8 3.2 2 2.4 4.1 4.7 5.9 7.2l11.8 16.4c1.6 2.2 4.5 2.2 5.9-.1 2.1-3.5 3.6-7.4 4.5-11.3 1.5-6.8-.7-11.1-6.9-13.8l-.4-.1c-5.4-2.4-11.1-3-16.9-3.2zm-7.3 56.3h-.2v.4c0 .9-.1 1.8.9 2.2 1 .4 1.7-.1 2.3-.8l8-8.3c2-2.1 2.2-3.6.7-6-2.7-4.4-5.5-8.6-8.3-12.9-.6-.9-1.3-1.4-2.3-1.1-1 .3-1.2 1.2-1.2 2.2l.1 24.3zM369.9 385l1-.6c.9-.8 1.9-1.6 2.7-2.5l8-7.9c.4-.5.6-1.2.4-1.9-.2-.9-1-1.1-1.9-1l-.5.1-6.6 2c-.5.2-1 .5-1.3 1-1.3 2.9-2.6 5.7-3.8 8.7-.3 1 .5 2.1 2 2.1zm58.6-126.2-.1-1.5c0-.3-.2-.7-.4-.8l-.9.3a3.2 3.2 0 0 0-.5 4.5l.1.2c.5.6 1.2.5 1.4-.3l.4-2.4z" style="fill:#fff"/><path d="m357.1 199.2-10.3 2.6a418.5 418.5 0 0 0-59.6 21.3c-9.6 4.3-19 9-28.6 13.3-3.2 1.5-4.8 3.7-4.8 7.2 0 2.6-.2 5.1-.3 7.7-.1 3.3 2.2 4.8 5.2 3.2 15-7.9 30.4-15.1 46.1-21.5 17.3-7.2 35.1-13 53.3-17.6 5.9-1.5 9.3-6.7 8.5-13.2-.5-4-1.2-8-2-11.9-.9-4.6-3.5-8.7-7.3-11.5a328 328 0 0 0-79.5-44.3c-3.1-1.2-3.9-3.6-2.3-6.4a92 92 0 0 1 16.2-21.5c3.8-3.7 8.3-6.6 13.2-8.6 8.4-3.3 16.4-2 23.9 2.8a57.8 57.8 0 0 1 16.1 16.2c6.8 9.7 11.7 20.3 15.8 31.3 5.1 14.1 8.9 28.6 11.3 43.4a459.2 459.2 0 0 1 4.4 38.4 360.8 360.8 0 0 1 .7 21.3l-.3 15c-.2 5.8-.7 11.6-1 17.3 0 1.4-.7 2.8-1.9 3.6a494.2 494.2 0 0 1-72.1 46.8 532.5 532.5 0 0 1-66.2 30c-16 6.1-32.4 10.8-49.1 14.2a218 218 0 0 1-21.3 2.9c-4.5.4-8.9.5-13.4.2-5-.1-9.9-1.2-14.5-3.2-6.1-2.9-8.1-7.1-6.6-13.6 1.5-6.4 4.7-12 8.3-17.4 5.1-7.2 10.8-14 17-20.2a6 6 0 0 0 .4-8.6l-.9-.8-2.8-2.2a6.2 6.2 0 0 0-8.1.4 138.4 138.4 0 0 0-25.7 34.4 4.2 4.2 0 0 1-3.2 2.8c-1.6.2-3.2-.6-3.9-2.1a162.9 162.9 0 0 1-27.5-80 250 250 0 0 1-.5-22.9 140 140 0 0 1 3.6-27.3c.2-.6.8-1.1 1.4-1.3 1-.3 1.5.5 1.8 1.4 1.4 3.8 2.6 7.6 4.1 11.3 6 14.4 14.3 27.5 24 39.7a270.1 270.1 0 0 0 68 59.4c13.7 8.5 28 16.2 42.7 22.9 4 2 8.6 2.1 12.7.4l8.7-3.5c4-1.7 5.7-5.1 4.8-9.3-1.6-7.9-3.2-15.7-4.6-23.7-1-5.7-1.6-11.4-2.1-17.1-.7-7.5-1.1-14.9-1.6-22.4l-.2-6.8c-.1-4.1-.3-8.3-.2-12.4.2-7.2.3-14.5.8-21.7.6-8.5 1.4-17 2.6-25.5a282 282 0 0 1 12.1-53.1c1.2-3.4 0-5.7-3.4-6.8l-5.5-1.8c-2.4-1-5.1.2-6.1 2.6l-.2.6a274.2 274.2 0 0 0-9 33.4c-1.5 7.9-2.9 15.8-4.1 23.7-.7 4.9-1.2 9.8-1.6 14.7l-1.3 19c-.1 4.7-2.8 9.1-6.9 11.3a478.7 478.7 0 0 0-53.1 36.3 8.5 8.5 0 0 1-11-.3 220 220 0 0 1-30.5-32c-8.6-11.1-15.9-23-21.2-36.1-3-7.4-5.1-15.1-6-23a55.1 55.1 0 0 1 4.9-31.5c4.7-9.2 11.8-17 20.7-22.4a108.5 108.5 0 0 1 49-13.8c6.4-.2 12.8-.5 19.2-.2 17.3.9 34.4 3.8 50.9 8.7a303.8 303.8 0 0 1 102.4 51.8l6.2 4.9c.4.2.7.5 1.3 1.1z" class="st0"/><path d="M255.8 428.6c-6.1-.4-12.2-.5-18.2-1.1a168 168 0 0 1-64-20c-3.4-1.8-6.6-3.9-9.9-5.9-1-.6-1.8-1.4-1.5-2.7.4-1.3 1.4-1.6 2.7-1.7 8-.5 16-1.6 23.9-3.2 19.4-4 38.4-9.6 56.9-16.8 2.4-.9 4.1-.2 5.1 2.2 2.8 6.8 6.1 13.4 9.8 19.8 5.1 8.6 11 16.5 18.7 23 1 .6 1.4 1.8 1.1 2.9a2.8 2.8 0 0 1-2.6 1.9c-7.4.9-14.7 1.5-22 1.6z" class="st0"/><path d="m253.2 125.9-4.7-1.1a257 257 0 0 0-48.5-8.1c-6.5-.4-13-.6-19.5-.4-7.7.2-15.4 1-22.9 2.4-1 .2-1.8.1-2.2-.9-.4-1.1.3-1.7 1.1-2.3a168.5 168.5 0 0 1 91-31.2c4.9-.4 9.8-.4 14.7-.2 6.9.4 13.7 1.2 20.6 1.9l1.8.3c1.1.1 1.9.9 2.1 2 .3 1.1-.1 2.2-1 2.8a77 77 0 0 0-12.1 12.1c-4.8 5.9-9 12.3-12.6 18.9-1.7 2.5-4 3.8-7.8 3.8z" class="st0"/><path d="M309.5 418.5a30 30 0 0 1-17.7-6.9 67.3 67.3 0 0 1-17.1-20.4c-3.3-5.8-6-11.9-8.9-17.8-.8-1.3-.7-3 .4-4.2a3.9 3.9 0 0 1 4.3-1.1c4 1 8 2.2 12 3 7.9 1.6 15.9 3.1 23.8 4.3 5.4.8 10.8 1.2 16.2 1.6 5.3.3 10.6.4 15.8.5 3.3 0 6.6-.3 9.9-.4 1.5-.1 2.8 1 3 2.5l-.3 1.5c-5 10-11 19.3-19.1 27a36 36 0 0 1-16.3 9.5c-1.9.4-4 .6-6 .9z" class="st0"/><path d="M230.7 270.5a348 348 0 0 0 8 69.7c-21.1-9-41.1-20.3-59.7-33.6 2.7-4 44.9-33.4 51.7-36.1z" class="st0"/><path d="M334 361.6c-12.2-.1-24.4-1.3-36.4-3.5-1-.2-1.9-.6-2-1.7-.1-1 .6-1.5 1.5-2a572 572 0 0 0 71.9-43.6c.8-.5 1.5-1 2.5-.5 1 .6.9 1.4.7 2.5-2.3 14.1-5.7 28-10.1 41.6-1.2 3.6-3.3 5.6-7.2 5.8-3.5.2-6.9.7-10.4 1l-10.5.4z" class="st0"/><path d="M419.4 301a53.2 53.2 0 0 1-10.4 32.2 59.4 59.4 0 0 1-20.9 17.3l-2.3 1.1a3.5 3.5 0 0 1-5-4.1c1.9-8 3.9-16 5.6-24.1 1.3-6.6 2.2-13.3 3.3-20 .4-2.3.6-4.6 1.1-6.8.6-2.2 1.9-4.3 3.6-5.8l14.8-13.8c2.2-2.1 5.7-1.4 6.5 1.6 1.2 4.5 2.1 9 2.9 13.6.6 2.9.6 5.9.8 8.8z" class="st0"/><path d="M412.9 195c-2.6-.2-5.2-.6-7.9-.7-2.9-.2-5.9-.2-8.8-.3a8.6 8.6 0 0 1-8.9-7.5c-3.1-17.7-8-34.9-14.7-51.6l-.7-1.9c-.4-.7-.1-1.6.6-1.9l.2-.1a2 2 0 0 1 1.9.3c3.7 3.7 7.5 7.4 11 11.4 12.4 14 22.5 30 29.6 47.4l.5 1.2c.8 2.2-.5 3.8-2.8 3.7z" class="st0"/><path d="M400.3 209.8c5.8.2 11.5.8 17 3l.4.1c6.2 2.7 8.4 7 6.9 13.8-.9 4-2.4 7.8-4.5 11.3-1.4 2.4-4.3 2.4-5.9.1l-11.8-16.4c-1.8-2.5-3.9-4.8-5.9-7.2-.8-1-1.5-1.9-.8-3.2.5-1.2 1.8-1.8 3-1.7.5.2 1 .2 1.6.2z" class="st0"/><path d="M393 266.1v-24.3c0-1 .1-1.8 1.2-2.2 1.1-.4 1.8.2 2.3 1.1l8.3 12.9c1.5 2.4 1.2 3.9-.7 6l-8 8.3c-.7.7-1.4 1.2-2.3.8-1-.4-.9-1.3-.9-2.2v-.4h.1z" class="st0"/><path d="M369.9 385c-1.5 0-2.3-1.1-1.8-2.3l3.8-8.7c.3-.5.7-.8 1.3-1l6.6-2 .5-.1c.8-.1 1.7.1 1.9 1 .1.7 0 1.4-.4 1.9a298 298 0 0 1-8 7.9l-2.7 2.5-1.2.8z" class="st0"/><path d="m428.5 258.8-.3 2.4c-.2.8-.9.9-1.4.3a3.2 3.2 0 0 1 .2-4.5l.2-.1c.2-.2.6-.3.9-.3.2.1.4.5.4.8v1.4z" class="st0"/></g></svg>