<svg xmlns="http://www.w3.org/2000/svg" width="2000" height="2000"><path fill="#FBFE51" d="M1086.71 2.772c2.335.232 4.67.45 7.005.666C1145.463 8.235 1196.621 17.302 1247 30l2.072.521C1268.254 35.362 1287.174 40.927 1306 47l3.933 1.261c63.614 20.45 126.595 47.077 184.2 81.053a1113 1113 0 0 0 8.119 4.72c14.075 8.117 27.972 16.428 41.488 25.457 2.254 1.505 4.515 2.996 6.78 4.486 27.54 18.163 54.13 37.633 79.655 58.53q2.411 1.972 4.829 3.934c10.065 8.19 19.964 16.525 29.523 25.301a311 311 0 0 0 6.348 5.633A433 433 0 0 1 1694.969 280c1.888 1.86 3.827 3.594 5.844 5.313 7.68 6.605 14.789 13.916 21.347 21.628 2.345 2.624 4.837 5.089 7.34 7.559 3.704 3.66 7.253 7.39 10.633 11.352 1.895 2.18 3.847 4.302 5.812 6.419a295 295 0 0 1 13.618 15.76c2.866 3.492 5.835 6.884 8.812 10.282 5.61 6.428 10.94 13.026 16.149 19.781a947 947 0 0 0 4.816 6.152 767 767 0 0 1 22.112 29.578 1804 1804 0 0 0 4.466 6.242c17.98 25.147 34.583 51.195 50.082 77.934l1.613 2.78c8.287 14.339 16.063 28.913 23.578 43.67q1.816 3.565 3.645 7.124c40.31 78.445 68.833 163.321 101.477 351.364l.228 2.208c.572 5.612 1.037 11.23 1.459 16.854l.261 3.45c1.73 23.665 2.103 47.27 2.057 70.993q-.008 4.371-.01 8.743c-.03 27.266-.355 54.392-3.083 81.544a810 810 0 0 0-.647 6.889c-6.478 71.287-20.78 142.245-42.911 210.325q-1.007 3.11-2.001 6.223c-14.754 46.085-33.218 90.85-54.827 134.14a1410 1410 0 0 0-5.269 10.7c-7.019 14.305-14.565 28.22-22.57 41.993l-2.05 3.547c-7.881 13.64-15.787 27.243-24.543 40.345a1396 1396 0 0 0-4.696 7.096c-18.751 28.385-38.67 55.868-60.223 82.192q-1.952 2.39-3.894 4.789a713 713 0 0 1-25.594 29.816c-1.796 1.99-3.56 4-5.312 6.028-7.27 8.332-14.813 16.394-22.688 24.156-1.86 1.888-3.594 3.827-5.312 5.844-6.606 7.68-13.917 14.789-21.63 21.347-2.623 2.345-5.088 4.837-7.558 7.34-3.66 3.704-7.39 7.253-11.352 10.633-2.18 1.895-4.302 3.847-6.419 5.812a295 295 0 0 1-15.76 13.618c-3.492 2.866-6.884 5.835-10.281 8.812-6.429 5.61-13.027 10.94-19.782 16.149a947 947 0 0 0-6.152 4.816 767 767 0 0 1-29.578 22.112 1804 1804 0 0 0-6.242 4.466c-25.147 17.98-51.195 34.583-77.934 50.082l-2.78 1.613c-14.353 8.295-28.942 16.075-43.713 23.595a1655 1655 0 0 0-10.343 5.343c-32.032 16.494-65.41 30.348-99.225 42.737q-2.855 1.051-5.706 2.114c-78.228 29.076-160.763 46.722-243.733 54.91l-2.294.23c-5.73.56-11.465 1.025-17.206 1.458l-3.371.261c-23.335 1.758-46.607 2.103-70.002 2.057q-4.383-.008-8.766-.011c-27.198-.035-54.287-.263-81.368-3.05a1935 1935 0 0 0-7.911-.793c-71.129-7.107-141.495-20.698-209.542-42.804q-3.06-.988-6.127-1.962c-33.376-10.622-65.97-23.344-97.913-37.698-1.052-.47-2.105-.938-3.189-1.421-27.687-12.374-55.093-25.79-81.277-41.107a579 579 0 0 0-7.745-4.406c-45.843-25.741-89.312-56.29-129.969-89.578q-2.39-1.952-4.789-3.894A713 713 0 0 1 335.215 1748c-1.99-1.796-4-3.56-6.027-5.312-8.333-7.27-16.395-14.813-24.157-22.688-1.888-1.86-3.827-3.594-5.843-5.312-7.68-6.606-14.79-13.917-21.348-21.63-2.345-2.623-4.837-5.088-7.34-7.558-3.704-3.66-7.253-7.39-10.633-11.352-1.895-2.18-3.847-4.302-5.812-6.419a295 295 0 0 1-13.617-15.76c-2.867-3.492-5.836-6.884-8.813-10.281-5.61-6.429-10.94-13.027-16.149-19.782a947 947 0 0 0-4.816-6.152c-8.168-10.39-16.002-20.983-23.66-31.754l-3.059-4.277c-7.198-10.099-14.126-20.363-20.941-30.723l-1.321-1.995c-19.933-30.12-37.6-61.541-53.997-93.708q-1.65-3.234-3.313-6.461C61.229 1363.153 31.423 1271.166 3.688 1097l-.23-2.222C2.894 1089.191 2.429 1083.6 2 1078l-.261-3.333c-1.797-23.654-2.102-47.252-2.057-70.967q.008-4.491.011-8.982c.035-27.493.222-54.881 3.054-82.255.267-2.597.52-5.194.773-7.792 8.528-86.848 27.964-172.214 99.641-348.979a1410 1410 0 0 0 5.269-10.7c7.019-14.304 14.565-28.218 22.57-41.992l2.05-3.547c7.881-13.64 15.787-27.243 24.543-40.345a1396 1396 0 0 0 4.696-7.096c18.75-28.384 38.668-55.864 60.218-82.187a1959 1959 0 0 0 3.934-4.829c8.19-10.065 16.525-19.964 25.301-29.523a311 311 0 0 0 5.633-6.348A433 433 0 0 1 280 305.031c1.86-1.888 3.594-3.827 5.313-5.843 6.605-7.68 13.916-14.79 21.628-21.348 2.624-2.345 5.089-4.837 7.559-7.34 3.66-3.704 7.39-7.253 11.352-10.633 2.18-1.895 4.302-3.847 6.419-5.812a295 295 0 0 1 15.76-13.617c3.492-2.867 6.884-5.836 10.282-8.813 6.428-5.61 13.026-10.94 19.781-16.149a947 947 0 0 0 6.152-4.816 767 767 0 0 1 29.578-22.112q3.126-2.226 6.242-4.466C445.214 166.102 471.263 149.504 498 134l2.749-1.597c14.986-8.678 30.263-16.74 45.693-24.59 3.335-1.7 6.661-3.411 9.988-5.125C638.398 60.744 728.184 32.15 908.695 3.213c2.284-.211 4.567-.437 6.85-.666 56.092-5.546 115.089-5.42 171.166.225Z"/><path d="M441 437h1118v399h-182l-8-16c-11.78-23.527-25.029-46.055-41-67l-1.432-1.887c-6.852-8.99-14.101-17.629-21.568-26.113l-2.5-2.844c-6.02-6.697-12.333-13.09-18.688-19.468l-2.556-2.571c-4.924-4.911-9.951-9.62-15.256-14.117l-2.484-2.125c-40.636-33.63-85.697-58.765-135.548-75.856a702 702 0 0 1-7.366-2.578c-15.776-5.492-32.075-8.96-48.53-11.7-2.574-.429-5.145-.874-7.717-1.321-20.878-3.575-41.36-4.866-62.543-4.857h-3.778C952.992 587.66 908.478 594.68 866 610l-2.747.98C815.34 628.207 770.035 654.03 732 688l-2.625 2.324A917 917 0 0 0 722 697l-2.977 2.66c-11.441 10.296-22.154 21.413-31.738 33.469a334 334 0 0 1-5.226 6.398C661.567 764.114 645.274 791.414 631 820l-1.126 2.229C610.298 861.169 598.295 904.809 593 948l-.259 1.914c-1.876 13.967-2.05 27.848-2.002 41.926.01 3.758 0 7.515-.012 11.273-.015 21.937 1.277 43.522 5.086 65.137l.396 2.31c3.252 18.922 7.61 37.253 13.791 55.44l1.05 3.12c14.493 42.767 34.627 82.846 61.95 118.88l1.436 1.896c16.446 21.571 34.848 42.536 55.564 60.104l2.898 2.563c44.324 39.02 98.423 68.122 155.102 84.437l2.138.63c19.405 5.664 39.609 9.356 59.612 12.182l2.333.339c16.604 2.174 33.516 2.09 50.23 2.099l3.181.002c17.352-.018 34.315-.711 51.506-3.252l3.442-.504c37.725-5.73 73.87-16.63 108.558-32.496l2.581-1.166c19.76-8.966 38.454-19.676 56.419-31.834l2.124-1.437c10.108-6.886 19.697-14.273 29.098-22.094a342 342 0 0 1 4.907-3.973c5.155-4.122 9.945-8.387 14.508-13.16 2.003-1.98 4.045-3.804 6.18-5.637 4.07-3.532 7.775-7.308 11.433-11.262l1.96-2.11c10.995-11.899 21.15-24.306 30.79-37.327l1.515-2.042c14.332-19.444 26.028-40.281 36.854-61.823 2.127-4.09 4.392-8.106 6.631-12.135h185v393H441z"/></svg>