<svg xmlns="http://www.w3.org/2000/svg" fill="none" viewBox="0.8 0 71.9 73.9"><path fill="url(#a)" d="M35 0A37.8 37.8 0 0 0 5 14.8a28.3 28.3 0 0 1 16.8-5.4 27.8 27.8 0 0 1 28 27.5 27.8 27.8 0 0 1-28 27.6c-6.3 0-12.1-2-16.8-5.4a37.9 37.9 0 0 0 67.8-22.2C72.7 16.5 56 0 35.1 0Z"/><path fill="url(#b)" d="M16 37a15.6 15.6 0 0 1 19.5-15A20.8 20.8 0 0 0 .8 37C.8 48 10 57.1 21.5 57.1c5.3 0 10.1-2 13.8-5.2A15.6 15.6 0 0 1 16 37Z"/><defs><linearGradient id="a" x1="38.8" x2="38.8" y1="0" y2="73.9" gradientUnits="userSpaceOnUse"><stop offset=".3" stop-color="#AB97FB"/><stop offset="1" stop-color="#C7BAFC"/></linearGradient><linearGradient id="b" x1="18.1" x2="18.1" y1="16.7" y2="57.2" gradientUnits="userSpaceOnUse"><stop stop-color="#C7BAFC"/><stop offset=".8" stop-color="#AB97FB"/></linearGradient></defs></svg>