<svg width="200" height="199" viewBox="0 0 200 199" fill="none" xmlns="http://www.w3.org/2000/svg">
<path d="M200 0H0V198.364H200V0Z" fill="white"/>
<path d="M100.11 40.4885L99.3259 43.1556L99.3259 120.542L100.11 121.325L135.978 100.092L100.11 40.4885Z" fill="#6B6B6B"/>
<path d="M100.11 40.4885L64.2407 100.092L100.11 121.325L100.11 83.7641L100.11 40.4885Z" fill="#A2A2A2"/>
<path d="M100.11 128.126L99.6681 128.666L99.6681 156.232L100.11 157.524L136 106.904L100.11 128.126Z" fill="#4F4E4E"/>
<path d="M100.11 157.524L100.11 128.126L64.2407 106.904L100.11 157.524Z" fill="#A2A2A2"/>
<path d="M100.11 121.325L135.978 100.092L100.11 83.7641L100.11 121.325Z" fill="#797979"/>
<path d="M64.2407 100.092L100.11 121.325L100.11 83.7641L64.2407 100.092Z" fill="#D4D4D4"/>
<g style="mix-blend-mode:overlay">
<path d="M100.11 40.4885L99.3259 43.1556L99.3259 120.542L100.11 121.325L135.978 100.092L100.11 40.4885Z" fill="#ACE730"/>
<path d="M100.11 40.4885L64.2407 100.092L100.11 121.325L100.11 83.7641L100.11 40.4885Z" fill="#ACE730"/>
<path d="M100.11 128.126L99.6681 128.666L99.6681 156.232L100.11 157.524L136 106.904L100.11 128.126Z" fill="#ACE730"/>
<path d="M100.11 157.524L100.11 128.126L64.2407 106.904L100.11 157.524Z" fill="#ACE730"/>
<path d="M100.11 121.325L135.978 100.092L100.11 83.7641L100.11 121.325Z" fill="#ACE730"/>
<path d="M64.2407 100.092L100.11 121.325L100.11 83.7641L64.2407 100.092Z" fill="#ACE730"/>
</g>
</svg>
