<?xml version="1.0" encoding="utf-8"?>
<!-- Generator: Adobe Illustrator 24.0.1, SVG Export Plug-In . SVG Version: 6.00 Build 0)  -->
<svg version="1.1" id="gradient_1_" xmlns="http://www.w3.org/2000/svg" xmlns:xlink="http://www.w3.org/1999/xlink" x="0px"
	 y="0px" viewBox="0 0 200 200" style="enable-background:new 0 0 200 200;" xml:space="preserve">
<style type="text/css">
	.st0{fill-rule:evenodd;clip-rule:evenodd;fill:url(#gradient_2_);}
</style>
<linearGradient id="gradient_2_" gradientUnits="userSpaceOnUse" x1="0.01636" y1="101.827" x2="200.06276" y2="98.17155">
	<stop  offset="0" style="stop-color:#29CCB9"/>
	<stop  offset="0.49479" style="stop-color:#0091FF"/>
	<stop  offset="1" style="stop-color:#FF66B7"/>
</linearGradient>
<path id="gradient" class="st0" d="M46.49512,171.71983c-21.83411-16.31526-35.96881-42.36678-35.96881-71.71983
	c0-49.41493,40.05875-89.47368,89.47368-89.47368c40.78323,0,85.31981,24.37216,96.09084,61.69868
	C184.05455,30.51404,145.59755,0,100,0C44.77165,0,0.00001,44.77166,0.00001,100.00001S44.77165,200,100,200
	s99.99998-44.77165,99.99998-99.99999V94.7369l-5.4939-0.00122c-0.16342-0.00122-0.41037-0.00365-0.73232-0.00854
	c-0.6442-0.00975-1.5881-0.02957-2.76524-0.06951c-2.35793-0.08018-5.63506-0.24024-9.30641-0.55945
	c-7.50334-0.65274-16.05974-1.92622-21.8878-4.25397c-9.37621-3.74451-14.6698-8.70853-20.71858-14.51707l-0.3494-0.33567
	c-6.05914-5.82073-12.86646-12.36006-24.66371-17.91189c-11.62226-5.46921-24.47379-4.59177-33.91768-2.64848
	c-4.79574,0.98659-8.90366,2.2878-11.81799,3.34329c-1.46098,0.52896-2.63201,1-3.45092,1.34482
	c-4.75243,2.00092-9.36523,4.36829-14.02926,6.56463c0,0,9.15092,2.51006,13.67683,3.91129
	c0.16372,0.05061,0.4192,0.1317,0.75365,0.2442c0.66952,0.22561,1.6494,0.575,2.83506,1.05488
	c2.3872,0.96647,5.52714,2.42866,8.62683,4.42134c4.88201,3.13842,8.92957,7.08689,10.58963,11.93414
	c-10.36372,1.3625-20.08384,5.91159-27.35274,10.1875c-4.40762,2.59268-8.07317,5.18018-10.64207,7.12318
	c-1.28689,0.97347-2.30518,1.78994-3.01067,2.37073c-0.59207,0.4875-9.94908,8.73598-9.94908,8.73598
	s12.07195,1.28384,18.02896,2.48415c3.96311,0.79847,9.3061,2.08353,14.87927,4.02835
	c5.59878,1.95335,11.25457,4.5125,15.94817,7.78871c4.70335,3.28293,8.14786,7.07835,9.84818,11.42317
	c4.9506,12.65213,0.09267,24.97714-9.66129,31.91006C75.79939,180.15213,61.14634,181.78081,46.49512,171.71983z M80.61494,187.368
	c3.94056-1.27988,7.6186-3.13933,10.92104-5.48689c13.27256-9.43384,20.2567-26.71434,13.36523-44.3253
	c-2.70731-6.91861-7.88079-12.20915-13.6256-16.21891c-5.75457-4.01676-12.37653-6.95761-18.50518-9.09603
	c-4.02988-1.4061-7.92226-2.49146-11.3314-3.31524c1.20945-0.78903,2.51219-1.60245,3.8939-2.41555
	c8.10122-4.76524,18.30396-9.14176,28.0881-9.14176c14.74725,0,25.73048,4.5253,36.21707,9.38139
	c0.95335,0.44116,1.91006,0.89024,2.87195,1.34147c9.37103,4.39634,19.21312,9.01402,30.64787,9.01402
	c11.08961,0,19.72682-3.13506,25.67926-6.37744c-5.3,44.35701-43.05273,78.74603-88.83719,78.74603
	C93.3436,189.47379,86.85671,188.74664,80.61494,187.368z M177.46341,104.2625c-3.94116,1.34482-8.7189,2.31647-14.30548,2.31647
	c-8.97044,0-16.67744-3.5936-26.46159-8.15549c-0.86128-0.40153-1.73901-0.81097-2.63475-1.22561
	c-9.79695-4.53689-21.1314-9.34482-35.88536-10.21616c-1.97958-9.76859-9.38323-16.44389-15.725-20.52072
	c-0.70641-0.45427-1.4119-0.88445-2.10976-1.29086c0.63263-0.14878,1.28171-0.29238,1.94512-0.42896
	c8.52225-1.75366,18.69665-2.19208,27.31403,1.8628c10.22744,4.81311,15.99665,10.35366,21.99877,16.11829l0.20549,0.19726
	c6.17622,5.93109,12.70854,12.14878,24.10548,16.7003C162.24176,102.14848,170.43597,103.50854,177.46341,104.2625z"/>
</svg>
