<svg width="1024" height="1024" viewBox="0 0 1024 1024" fill="none" xmlns="http://www.w3.org/2000/svg">
<g clip-path="url(#clip0_7856_1077)">
<rect width="1024" height="1024" rx="512" fill="#E5FFC3"/>
<circle cx="511.248" cy="511.248" r="511.248" fill="#CCE7FF"/>
<g clip-path="url(#clip1_7856_1077)">
<path d="M874.787 1424.83L694.577 1371.5L558.673 1452.24L463.854 1452.2L327.871 1371.5L147.739 1424.83L92.9458 1241L147.739 1036.98L92.9458 864.492L147.739 650.709L429.21 817.83H593.316L874.787 650.709L929.581 864.492L874.787 1036.98L929.581 1241L874.787 1424.83Z" fill="#FF5C16"/>
<path d="M147.784 650.709L429.236 817.936L418.042 932.701L147.784 650.709Z" fill="#FF5C16"/>
<path d="M441.883 1086.06L418.082 932.794L265.73 1037.01L265.651 1036.97V1037.05L266.123 1144.33L327.904 1086.06H327.943H441.883Z" fill="#FF5C16"/>
<path d="M874.791 650.709L593.339 817.936L604.494 932.701L874.791 650.709Z" fill="#FF5C16"/>
<path d="M756.88 1037.05H756.92H756.88V1036.97L756.841 1037.01L604.489 932.794L580.688 1086.06H694.628L756.448 1144.33L756.88 1037.05Z" fill="#FF5C16"/>
<path d="M593.359 817.839H511.305H429.252L418.097 932.612L476.269 1307.48H546.342L604.553 932.612L593.359 817.839Z" fill="#FF8D5D"/>
<path d="M147.74 650.709L92.9463 864.492L147.74 1036.98H265.576L418.016 932.72L147.74 650.709Z" fill="#661800"/>
<path d="M874.803 650.709L929.597 864.492L874.803 1036.98H756.967L604.527 932.72L874.803 650.709Z" fill="#661800"/>
</g>
<path d="M304.263 647.155V540.092H577.052V486.618H376.827L304.263 423.809V295.483L376.827 222.407H444.545V152.132H577.052V222.407H717.333V329.47H444.545V382.944H645.791L718.355 451.929V574.079L645.791 647.155H577.052V717.43L444.545 718.339V647.155H304.263Z" fill="#190066"/>
</g>
<defs>
<clipPath id="clip0_7856_1077">
<rect width="1024" height="1024" rx="512" fill="white"/>
</clipPath>
<clipPath id="clip1_7856_1077">
<rect width="836.635" height="836.635" fill="white" transform="translate(92.9448 650.709)"/>
</clipPath>
</defs>
</svg>
