<svg xmlns="http://www.w3.org/2000/svg" width="298" height="297" viewBox="0 0 298 297" fill="none">
<path d="M297.099 162.111C297.099 162.345 297.021 162.656 297.021 162.89C290.552 234.048 233.969 289.539 165.072 296.71C164.605 296.788 164.137 296.788 163.67 296.866L297.099 162.111Z" fill="#C4FF61"/>
<path d="M214.173 15.042C210.432 13.2494 206.613 11.5348 202.716 10.054C195.156 7.09237 187.207 4.75421 179.101 3.11752C169.359 1.09113 159.227 0 148.861 0C143.873 0 138.963 0.233833 134.053 0.70146C99.7605 4.05279 68.975 19.0948 45.5157 41.6968L45.4377 41.7747C43.879 43.3335 42.3202 44.8923 40.7615 46.451L40.6835 46.5289C18.3154 70.1441 3.58511 101.163 0.545527 135.534C0.155838 139.899 0 144.341 0 148.783C0 159.929 1.24701 170.762 3.50721 181.128C5.22184 188.999 7.6379 196.715 10.5995 204.041C12.2362 208.094 14.0288 212.069 15.9773 215.966C19.4065 222.669 23.3034 229.137 27.668 235.217L52.1404 210.51L209.653 51.439L234.125 26.7327C227.812 22.3682 221.188 18.4713 214.173 15.042ZM37.644 176.841C37.4101 175.828 37.1763 174.815 36.9425 173.802V173.724C35.1499 165.618 34.2147 157.201 34.2147 148.783C34.2147 119.323 45.2039 91.5771 65.3119 70.3L65.3898 70.2221L69.4427 66.0913L69.5206 66.0134C90.9535 45.3599 119.089 34.0589 148.939 34.0589C156.811 34.0589 164.683 34.8383 172.321 36.397C173.49 36.6308 174.659 36.9426 175.906 37.1764L37.644 176.841Z" fill="#C4FF61"/>
<path d="M97.5003 288.526C93.8372 287.201 90.252 285.642 86.6669 284.084C79.3407 280.732 72.3263 276.758 65.6237 272.237L271.38 64.3767C275.822 70.7676 279.797 77.6261 283.148 84.7185C284.941 88.3816 286.5 92.2005 287.981 96.0195L97.5003 288.526Z" fill="#C4FF61"/>
</svg>