<svg xmlns="http://www.w3.org/2000/svg" data-name="86977684-12db-4850-8f30-233a7c267d11" viewBox="0 0 2000 2000"><path fill="#2775ca" d="M1000 2000c554.2 0 1000-445.8 1000-1000S1554.2 0 1000 0 0 445.8 0 1000s445.8 1000 1000 1000z"/><path fill="#fff" d="M1275 1158.3c0-145.8-87.5-195.8-262.5-216.6-125-16.7-150-50-150-108.4s41.7-95.8 125-95.8c75 0 116.7 25 137.5 87.5a31.3 31.3 0 0 0 29.2 20.8h66.6a28.5 28.5 0 0 0 29.2-29.1v-4.2a208.2 208.2 0 0 0-187.5-170.8v-100c0-16.7-12.5-29.2-33.3-33.4h-62.5c-16.7 0-29.2 12.5-33.4 33.4v95.8c-125 16.7-204.1 100-204.1 204.2 0 137.5 83.3 191.6 258.3 212.5 116.7 20.8 154.2 45.8 154.2 112.5s-58.4 112.5-137.5 112.5c-108.4 0-145.9-45.9-158.4-108.4-4.1-16.6-16.6-25-29.1-25h-70.9a28.5 28.5 0 0 0-29.1 29.2v4.2c16.6 104.1 83.3 179.1 220.8 200v100c0 16.6 12.5 29.1 33.3 33.3h62.5c16.7 0 29.2-12.5 33.4-33.3v-100c125-20.9 208.3-108.4 208.3-220.9z"/><path fill="#fff" d="M787.5 1595.8c-325-116.6-491.7-479.1-370.8-800A616.4 616.4 0 0 1 787.5 425c16.7-8.3 25-20.8 25-41.7V325c0-16.7-8.3-29.2-25-33.3-4.2 0-12.5 0-16.7 4.1-395.8 125-612.5 545.9-487.5 941.7A749.6 749.6 0 0 0 770.8 1725c16.7 8.3 33.4 0 37.5-16.7 4.2-4.1 4.2-8.3 4.2-16.6v-58.4c0-12.5-12.5-29.1-25-37.5zm441.7-1300c-16.7-8.3-33.4 0-37.5 16.7-4.2 4.2-4.2 8.3-4.2 16.7v58.3c0 16.7 12.5 33.3 25 41.7 325 116.6 491.7 479.1 370.8 800a616.4 616.4 0 0 1-370.8 370.8c-16.7 8.3-25 20.8-25 41.7v58.3c0 16.7 8.3 29.2 25 33.3 4.2 0 12.5 0 16.7-4.1 395.8-125 612.5-545.9 487.5-941.7a755.7 755.7 0 0 0-487.5-491.7z"/></svg>