<svg xmlns="http://www.w3.org/2000/svg" viewBox="0 0 2000 2000"><path fill="#53ae94" d="M1000 0c552.3 0 1000 447.7 1000 1000s-447.8 1000-1000 1000S0 1552.4 0 1000 447.7 0 1000 0"/><path fill="#fff" d="M1123.4 866.8V718h340.2V491.3H537.3V718h340.2v148.6C601 879.3 393.1 934.1 393.1 999.7s208 120.4 484.4 133.1v476.5h246v-476.5c276-12.7 483.5-67.5 483.5-133s-207.5-120.3-483.5-133m0 225.6c-7 .4-42.6 2.5-122 2.5-63.5 0-108.1-1.8-123.9-2.6v.2C633.3 1081.7 451 1039 451 988.2S633.4 894.8 877.6 884v166.1c16 1.1 61.8 3.8 125 3.8 75.8 0 114-3.2 121-3.8V884c243.7 10.9 425.7 53.4 425.7 104.2s-182 93.3-425.8 104.1"/></svg>