<svg xmlns="http://www.w3.org/2000/svg" viewBox="0 0 48 48"><path fill="#010101" d="M11.7 46q-2.4 0-4-1.7-1.7-1.6-1.7-4t1.7-4 4-1.7l1.2.1 1.1.4 4.2-5.3q-.9-1.1-1.4-2.6t-.3-3.1l-6-2q-.8 1.2-2 1.9t-2.8.7q-2.4 0-4-1.7Q0 21.4 0 19t1.7-4 4-1.7q2.4 0 4 1.6t1.7 4.1v.2l6.1 2.1q.9-1.6 2.2-2.5 1.3-.8 2.8-1.1v-6.5q-2-.6-3-2.1-1.2-1.6-1.2-3.4 0-2.4 1.7-4T24 0q2.4 0 4 1.6t1.7 4.1q0 1.8-1.1 3.4t-3.1 2.1v6.5q1.6.3 2.9 1.1t2.2 2.5l6-2.1V19q0-2.4 1.7-4t4-1.7q2.4 0 4 1.6T48 19q0 2.4-1.6 4-1.7 1.7-4.1 1.7-1.6 0-2.9-.7t-1.9-2l-6 2.1q.2 1.6-.3 3t-1.4 2.7l4.2 5.3 1-.4 1.3-.1q2.4 0 4 1.6t1.7 4.1q0 2.4-1.6 4-1.7 1.7-4.1 1.7-2.4 0-4-1.7-1.7-1.6-1.7-4 0-1 .3-1.8t.8-1.6l-4.3-5.2q-1.6.8-3.4.8-1.9 0-3.5-.8L16.4 37q.5.8.7 1.5.3.8.3 1.8 0 2.4-1.6 4Q14 46 11.6 46Zm-6-24.3q1.1 0 2-.8.7-.8.7-1.9t-.8-2q-.8-.7-1.9-.7t-2 .8Q3 17.9 3 19t.8 2q.8.7 1.9.7Zm6 21.3q1.1 0 2-.8.7-.8.7-1.9t-.8-2q-.8-.7-1.9-.7t-2 .8q-.7.8-.7 1.9t.8 2q.8.7 1.9.7ZM24 8.4q1.1 0 2-.8.7-.8.7-1.9t-.8-2Q25.1 3 24 3t-2 .8q-.7.8-.7 1.9t.8 2q.8.7 1.9.7Zm0 21.1q1.9 0 3.2-1.3 1.3-1.3 1.3-3.2 0-1.9-1.3-3.2-1.3-1.3-3.2-1.3-1.9 0-3.2 1.3-1.3 1.3-1.3 3.2 0 1.9 1.3 3.2 1.3 1.3 3.3 1.3ZM36.4 43q1.1 0 2-.8.7-.8.7-1.9t-.8-2q-.8-.7-1.9-.7t-2 .8q-.7.8-.7 1.9t.8 2q.8.7 1.9.7Zm6-21.3q1.1 0 2-.8.7-.8.7-1.9t-.8-2q-.8-.7-1.9-.7t-2 .8q-.7.8-.7 1.9t.8 2q.8.7 1.9.7ZM24 5.7ZM5.7 19ZM24 25Zm18.3-6ZM11.7 40.3Zm24.6 0Z"/></svg>