<svg xmlns="http://www.w3.org/2000/svg" viewBox="4 4 40 40"><path fill="#010101" d="M24.2 35.6q.8 0 1.4-.5t.5-1.4q0-.8-.6-1.3t-1.3-.6q-.8 0-1.4.6t-.5 1.4q0 .8.5 1.3t1.4.6Zm-1.8-7.3h3q0-1.3.3-2.3t2-2.5q1.6-1.3 2.3-2.5.6-1.3.6-2.8 0-2.6-1.7-4.3t-4.6-1.6q-2.5 0-4.3 1.3t-2.8 3.3l2.7 1q.6-1.3 1.6-2.1 1.1-.8 2.6-.8 1.7 0 2.8 1t1 2.3q0 1.1-.6 2-.7 1-1.9 2.1-1.5 1.3-2.2 2.6-.7 1.2-.7 3.3ZM24 44q-4.1 0-7.8-1.6-3.6-1.6-6.3-4.3-2.8-2.7-4.3-6.4Q4 28.1 4 24q0-4.2 1.6-7.8 1.6-3.6 4.3-6.3 2.7-2.8 6.3-4.3Q20 4 24 4q4.2 0 7.8 1.6 3.6 1.6 6.3 4.3 2.7 2.7 4.3 6.3Q44 19.9 44 24t-1.6 7.8q-1.6 3.6-4.3 6.3t-6.3 4.3Q28.1 44 24 44Zm0-3q7.1 0 12-5 5-5 5-12 0-7.1-5-12-4.9-5-12-5-7 0-12 5-5 4.9-5 12 0 7 5 12t12 5Zm0-17Z"/></svg>