<svg fill="none" xmlns="http://www.w3.org/2000/svg" viewBox="0 0 77 20"><path d="M.5 3.5V2.2h5.8v1.3H.5Zm12.8 12.8h-2.2l-5.7-15h2.2l5.7 15Zm-.4 2.2v-1h10v1h-10Zm13.8 1.3a31.9 31.9 0 0 1-2-4.1 16.6 16.6 0 0 1-.9-5.1c0-1.6.3-3.2.8-4.8.5-1.5 1.2-3 2.1-4.4h1.9a18 18 0 0 0-1.9 14c.4 1.5 1 3 1.9 4.4h-1.9ZM37.5 1l-1.5.5c.5 1 1.6 4.1 2 5.3l1.5-.6C39.2 5.1 38 2 37.5 1Zm9 1.3-2-.6c-.3 3-1.6 6.2-3.1 8.3-2 2.5-5 4.4-7.9 5.3l1.4 1.4A17.5 17.5 0 0 0 46 3.4l.3-1.1Zm-14.6-.1-1.5.5a56 56 0 0 1 2.2 5.5l1.6-.5a89 89 0 0 0-2.3-5.5Zm18.2-.8a24.2 24.2 0 0 1 2 4.1 14.5 14.5 0 0 1 .9 5.1 17.9 17.9 0 0 1-2.9 9.2h-1.8a19.6 19.6 0 0 0 2.4-9.2 18.8 18.8 0 0 0-2.4-9.2H50ZM54 18.5v-1h10v1H54ZM69.3 1.4h2.2l-5.8 15h-2.2l5.8-15Zm1.3 2.1V2.2h5.7v1.3h-5.7Z" fill="#010101"/></svg>