<svg width="28" height="28" viewBox="0 0 28 28" fill="none" xmlns="http://www.w3.org/2000/svg">
<path d="M18.4352 23.3918L20.9429 20.8846L23.4142 23.3554L24.2497 22.5198L21.7426 20.0122L24.3225 17.4322L23.4864 16.5962L20.9429 19.1402L18.3988 16.5962L17.5633 17.4322L20.1068 19.9758L17.5633 22.5198L18.4352 23.3918ZM0.228516 23.9736V0.715118L24.3589 10.8903H22.2147C21.6334 10.8903 21.0818 10.9026 20.561 10.9273C20.0402 10.9514 19.5866 11.0001 19.1985 11.0729L2.40916 3.98552V10.0912L11.2034 12.3446L2.40916 14.5247V20.594L12.6572 16.3055C12.4634 16.7171 12.2999 17.1959 12.1666 17.7408C12.0333 18.2862 11.9426 18.7281 11.8939 19.0674L0.229636 23.973L0.228516 23.9736ZM20.9429 26.88C19.0529 26.88 17.43 26.208 16.0732 24.8634C14.7163 23.5183 14.0381 21.901 14.0381 20.0116C14.0381 18.0975 14.7163 16.4623 16.0732 15.106C17.43 13.7491 19.0529 13.0704 20.9429 13.0704C22.8324 13.0704 24.4558 13.7491 25.8127 15.1054C27.169 16.4623 27.8477 18.0975 27.8477 20.0116C27.8477 21.9016 27.169 23.5183 25.8127 24.8629C24.4558 26.2074 22.8324 26.88 20.9429 26.88ZM2.40916 16.3055V3.98552V20.5934V16.3055Z" fill="#6B7280"/>
<path d="M20.869 25.7835C24.0797 25.7835 26.6824 23.1808 26.6824 19.9702C26.6824 16.7595 24.0797 14.1568 20.869 14.1568C17.6584 14.1568 15.0557 16.7595 15.0557 19.9702C15.0557 23.1808 17.6584 25.7835 20.869 25.7835Z" fill="#6B7280"/>
<path d="M22.0367 16.7273L21.8733 21.7734H20.4138L20.2504 16.7273H22.0367ZM21.1418 24.103C20.8885 24.103 20.6707 24.013 20.4884 23.8331C20.3084 23.6532 20.2185 23.4354 20.2185 23.1797C20.2185 22.9287 20.3084 22.7145 20.4884 22.5369C20.6707 22.357 20.8885 22.267 21.1418 22.267C21.3856 22.267 21.5999 22.357 21.7845 22.5369C21.9716 22.7145 22.0651 22.9287 22.0651 23.1797C22.0651 23.3501 22.0213 23.5052 21.9337 23.6449C21.8485 23.7846 21.736 23.8958 21.5963 23.9787C21.459 24.0616 21.3075 24.103 21.1418 24.103Z" fill="white"/>
</svg>
