<svg xmlns="http://www.w3.org/2000/svg" xml:space="preserve" version="1.0" viewBox="413.8 163.7 872.8 872.8"><linearGradient id="a" x1="-48" x2="840.4" y1="887.7" y2="904" gradientTransform="matrix(1 0 0 -1 454 1496)" gradientUnits="userSpaceOnUse"><stop offset="0" style="stop-color:#29ccb9"/><stop offset=".5" style="stop-color:#0091ff"/><stop offset="1" style="stop-color:#ff66b7"/></linearGradient><path d="M617 913a390 390 0 0 1 233-703c178 0 372 106 419 269a437 437 0 1 0 18 121v-23h-40l-40-3c-33-2-70-8-96-18-41-16-64-38-90-63l-2-2c-26-25-56-54-107-78s-107-20-148-12a376 376 0 0 0-67 21c-21 8-41 19-61 28l59 17 4 2a247 247 0 0 1 50 23c21 14 39 31 46 53-45 5-88 25-119 44a483 483 0 0 0-60 41l-43 39s52 5 78 10c18 4 41 9 65 18 25 8 49 20 70 34 20 14 36 31 43 50 22 55 0 109-42 139s-106 37-170-7m149 68c17-5 33-13 47-24 58-41 89-116 59-193-12-30-35-53-60-71s-54-30-81-39l-49-15 17-10c35-21 80-40 123-40 64 0 112 19 158 41l12 6c41 19 84 39 134 39 48 0 86-14 112-28a390 390 0 0 1-472 334m422-362c-17 6-38 10-62 10-39 0-73-16-116-36l-11-5c-43-20-92-41-157-45a145 145 0 0 0-78-95l9-2c37-7 82-9 119 8 45 21 70 46 96 71l1 1c27 26 56 53 105 73 28 11 64 16 94 20" style="fill-rule:evenodd;clip-rule:evenodd;fill:url(#a)"/></svg>